<?xml version="1.0" encoding="UTF-8" standalone="no"?><!DOCTYPE svg PUBLIC "-//W3C//DTD SVG 1.1//EN" "http://www.w3.org/Graphics/SVG/1.1/DTD/svg11.dtd"><svg width="100%" height="100%" viewBox="0 0 2000 1417" version="1.1" xmlns="http://www.w3.org/2000/svg" xmlns:xlink="http://www.w3.org/1999/xlink" xml:space="preserve" xmlns:serif="http://www.serif.com/" style="fill-rule:evenodd;clip-rule:evenodd;stroke-linejoin:round;stroke-miterlimit:2;"><g><rect x="541.667" y="0" width="916.667" height="250" style="fill:#031d45;"/></g><g><rect x="541.667" y="0" width="16.667" height="250" style="fill:#00c1e6;"/></g><g><path d="M766.4,145.833l0,-40.354l7.367,0l0,21.017l-2.004,-0.704l17.171,-20.312l9.263,0l-16.087,19.067l0.433,-5.2l16.142,26.487l-8.667,0l-10.833,-17.767l-5.417,6.446l0,11.321l-7.367,0Zm36.167,0l0,-29.467l7.096,0l0,29.467l-7.096,0Zm0,-32.771l0,-7.583l7.096,0l0,7.583l-7.096,0Zm13.65,32.771l0,-29.467l6.662,0l0,5.796l-0.542,-1.029c0.683,-1.771 1.804,-3.104 3.358,-4.008c1.588,-0.938 3.429,-1.408 5.525,-1.408c2.167,0 4.079,0.471 5.742,1.408c1.696,0.938 3.013,2.258 3.954,3.954c0.938,1.663 1.408,3.592 1.408,5.796l0,18.958l-7.096,0l0,-17.279c0,-1.3 -0.254,-2.421 -0.758,-3.358c-0.508,-0.938 -1.213,-1.663 -2.112,-2.167c-0.867,-0.542 -1.896,-0.813 -3.088,-0.813c-1.158,0 -2.187,0.271 -3.087,0.813c-0.904,0.504 -1.608,1.229 -2.112,2.167c-0.508,0.938 -0.758,2.058 -0.758,3.358l0,17.279l-7.096,0Zm61.45,0.65c-2.888,0 -5.558,-0.525 -8.017,-1.571c-2.454,-1.046 -4.604,-2.508 -6.446,-4.387c-1.842,-1.879 -3.283,-4.079 -4.333,-6.608c-1.008,-2.529 -1.517,-5.292 -1.517,-8.288c0,-2.996 0.487,-5.758 1.462,-8.287c1.013,-2.563 2.421,-4.767 4.225,-6.608c1.842,-1.879 3.992,-3.321 6.446,-4.333c2.458,-1.046 5.129,-1.571 8.017,-1.571c2.892,0 5.471,0.487 7.746,1.462c2.312,0.975 4.263,2.275 5.85,3.9c1.592,1.587 2.729,3.342 3.413,5.254l-6.554,3.142c-0.758,-2.096 -2.038,-3.792 -3.846,-5.092c-1.804,-1.3 -4.008,-1.95 -6.608,-1.95c-2.525,0 -4.767,0.596 -6.717,1.788c-1.912,1.192 -3.412,2.833 -4.496,4.929c-1.046,2.096 -1.571,4.55 -1.571,7.367c0,2.817 0.542,5.292 1.625,7.421c1.121,2.096 2.654,3.737 4.604,4.929c1.95,1.192 4.192,1.788 6.717,1.788c2.058,0 3.954,-0.396 5.688,-1.192c1.733,-0.829 3.125,-1.987 4.171,-3.467c1.05,-1.517 1.571,-3.304 1.571,-5.363l0,-3.088l3.358,2.925l-14.95,0l0,-6.229l18.958,0l0,4.062c0,3.104 -0.521,5.85 -1.571,8.233c-1.046,2.383 -2.471,4.387 -4.279,6.012c-1.767,1.588 -3.771,2.8 -6.013,3.629c-2.237,0.796 -4.55,1.192 -6.933,1.192Zm24.029,-0.65l0,-41.004l7.096,0l0,41.004l-7.096,0Zm28.058,0.65c-2.892,0 -5.525,-0.667 -7.908,-2.004c-2.35,-1.338 -4.225,-3.158 -5.633,-5.471c-1.375,-2.312 -2.058,-4.946 -2.058,-7.908c0,-2.963 0.683,-5.596 2.058,-7.908c1.408,-2.312 3.283,-4.133 5.633,-5.471c2.346,-1.338 4.983,-2.004 7.908,-2.004c2.888,0 5.504,0.667 7.854,2.004c2.346,1.337 4.204,3.158 5.579,5.471c1.408,2.275 2.112,4.913 2.112,7.908c0,2.962 -0.704,5.596 -2.112,7.908c-1.408,2.312 -3.288,4.133 -5.633,5.471c-2.35,1.337 -4.95,2.004 -7.8,2.004Zm0,-6.5c1.587,0 2.979,-0.379 4.171,-1.138c1.225,-0.758 2.183,-1.804 2.871,-3.142c0.721,-1.371 1.083,-2.908 1.083,-4.604c0,-1.733 -0.362,-3.25 -1.083,-4.55c-0.688,-1.337 -1.646,-2.383 -2.871,-3.142c-1.192,-0.796 -2.583,-1.192 -4.171,-1.192c-1.625,0 -3.054,0.396 -4.279,1.192c-1.229,0.758 -2.204,1.804 -2.925,3.142c-0.687,1.3 -1.029,2.817 -1.029,4.55c0,1.696 0.342,3.233 1.029,4.604c0.721,1.337 1.696,2.383 2.925,3.142c1.225,0.758 2.654,1.138 4.279,1.138Zm37.013,6.5c-2.129,0 -4.1,-0.417 -5.904,-1.246c-1.771,-0.867 -3.179,-2.096 -4.225,-3.683l0.704,-1.408l0,5.687l-6.662,0l0,-41.004l7.096,0l0,17.387l-1.083,-1.462c1.012,-1.588 2.383,-2.817 4.117,-3.683c1.733,-0.904 3.737,-1.354 6.013,-1.354c2.779,0 5.292,0.687 7.529,2.058c2.237,1.371 4.008,3.212 5.308,5.525c1.338,2.312 2.004,4.912 2.004,7.8c0,2.854 -0.65,5.454 -1.95,7.8c-1.3,2.346 -3.071,4.208 -5.308,5.579c-2.238,1.337 -4.783,2.004 -7.638,2.004Zm-0.812,-6.5c1.625,0 3.071,-0.379 4.333,-1.138c1.263,-0.758 2.237,-1.804 2.925,-3.142c0.721,-1.338 1.083,-2.871 1.083,-4.604c0,-1.733 -0.362,-3.25 -1.083,-4.55c-0.688,-1.337 -1.663,-2.383 -2.925,-3.142c-1.263,-0.796 -2.708,-1.192 -4.333,-1.192c-1.554,0 -2.963,0.379 -4.225,1.138c-1.229,0.758 -2.204,1.825 -2.925,3.196c-0.688,1.337 -1.029,2.854 -1.029,4.55c0,1.733 0.342,3.267 1.029,4.604c0.721,1.337 1.696,2.383 2.925,3.142c1.263,0.758 2.671,1.138 4.225,1.138Zm30.054,6.5c-2.058,0 -3.846,-0.342 -5.362,-1.029c-1.517,-0.688 -2.688,-1.663 -3.521,-2.925c-0.829,-1.3 -1.246,-2.8 -1.246,-4.496c0,-1.625 0.362,-3.071 1.083,-4.333c0.725,-1.3 1.842,-2.383 3.358,-3.25c1.517,-0.867 3.433,-1.479 5.742,-1.842l9.642,-1.571l0,5.417l-8.288,1.408c-1.408,0.254 -2.454,0.704 -3.142,1.354c-0.683,0.65 -1.029,1.5 -1.029,2.546c0,1.012 0.379,1.825 1.137,2.438c0.796,0.579 1.771,0.867 2.925,0.867c1.483,0 2.783,-0.308 3.9,-0.921c1.158,-0.65 2.042,-1.533 2.654,-2.654c0.65,-1.121 0.975,-2.346 0.975,-3.683l0,-7.583c0,-1.262 -0.504,-2.312 -1.517,-3.142c-0.975,-0.867 -2.275,-1.3 -3.9,-1.3c-1.517,0 -2.871,0.417 -4.062,1.246c-1.154,0.796 -2.004,1.858 -2.546,3.196l-5.796,-2.817c0.579,-1.554 1.483,-2.887 2.708,-4.008c1.267,-1.154 2.746,-2.058 4.442,-2.708c1.7,-0.65 3.542,-0.975 5.525,-0.975c2.421,0 4.55,0.45 6.392,1.354c1.842,0.867 3.271,2.096 4.279,3.683c1.05,1.554 1.571,3.375 1.571,5.471l0,19.608l-6.717,0l0,-5.037l1.517,-0.108c-0.758,1.262 -1.658,2.329 -2.708,3.196c-1.046,0.829 -2.238,1.479 -3.575,1.95c-1.333,0.433 -2.817,0.65 -4.442,0.65Zm22.488,-0.65l0,-41.004l7.096,0l0,41.004l-7.096,0Zm23.867,0l0,-40.354l7.367,0l0,33.854l17.279,0l0,6.5l-24.646,0Zm28.817,0l0,-29.467l7.096,0l0,29.467l-7.096,0Zm0,-32.771l0,-7.583l7.096,0l0,7.583l-7.096,0Zm13.646,32.771l0,-29.467l6.663,0l0,6.825l-0.758,-1.137c0.542,-2.129 1.625,-3.721 3.25,-4.767c1.625,-1.046 3.542,-1.571 5.742,-1.571c2.421,0 4.55,0.633 6.392,1.896c1.842,1.262 3.033,2.925 3.575,4.983l-2.004,0.162c0.904,-2.346 2.258,-4.1 4.063,-5.254c1.808,-1.192 3.883,-1.787 6.229,-1.787c2.096,0 3.954,0.471 5.579,1.408c1.663,0.938 2.962,2.258 3.9,3.954c0.942,1.663 1.408,3.592 1.408,5.796l0,18.958l-7.096,0l0,-17.279c0,-1.3 -0.233,-2.421 -0.704,-3.358c-0.467,-0.938 -1.117,-1.663 -1.95,-2.167c-0.829,-0.542 -1.842,-0.813 -3.033,-0.813c-1.117,0 -2.112,0.271 -2.979,0.813c-0.867,0.504 -1.533,1.229 -2.004,2.167c-0.467,0.938 -0.704,2.058 -0.704,3.358l0,17.279l-7.096,0l0,-17.279c0,-1.3 -0.233,-2.421 -0.704,-3.358c-0.467,-0.938 -1.138,-1.663 -2.004,-2.167c-0.829,-0.542 -1.821,-0.813 -2.979,-0.813c-1.117,0 -2.112,0.271 -2.979,0.813c-0.867,0.504 -1.533,1.229 -2.004,2.167c-0.467,0.938 -0.704,2.058 -0.704,3.358l0,17.279l-7.096,0Zm50.042,0l0,-29.467l7.096,0l0,29.467l-7.096,0Zm0,-32.771l0,-7.583l7.096,0l0,7.583l-7.096,0Zm27.083,33.096c-3.325,0 -5.904,-0.904 -7.746,-2.708c-1.808,-1.842 -2.708,-4.425 -2.708,-7.746l0,-13l-5.092,0l0,-6.337l0.542,0c1.442,0 2.562,-0.379 3.358,-1.137c0.792,-0.758 1.192,-1.858 1.192,-3.304l0,-2.275l7.096,0l0,6.717l6.771,0l0,6.337l-6.771,0l0,12.621c0,0.975 0.162,1.804 0.487,2.492c0.358,0.688 0.9,1.208 1.625,1.571c0.758,0.363 1.713,0.542 2.871,0.542c0.25,0 0.542,-0.017 0.867,-0.054c0.358,-0.037 0.704,-0.071 1.029,-0.108l0,6.067c-0.508,0.071 -1.083,0.146 -1.733,0.217c-0.65,0.071 -1.246,0.108 -1.788,0.108Zm22.65,0.325c-3.033,0 -5.687,-0.688 -7.962,-2.058c-2.275,-1.371 -4.042,-3.233 -5.308,-5.579c-1.263,-2.346 -1.896,-4.946 -1.896,-7.8c0,-2.962 0.633,-5.579 1.896,-7.854c1.3,-2.312 3.054,-4.133 5.254,-5.471c2.242,-1.338 4.733,-2.004 7.475,-2.004c2.312,0 4.333,0.379 6.067,1.137c1.771,0.758 3.271,1.804 4.496,3.142c1.229,1.338 2.167,2.871 2.817,4.604c0.65,1.696 0.975,3.538 0.975,5.525c0,0.504 -0.033,1.029 -0.108,1.571c-0.033,0.542 -0.125,1.012 -0.271,1.408l-22.75,0l0,-5.417l18.742,0l-3.358,2.546c0.325,-1.663 0.238,-3.142 -0.271,-4.442c-0.467,-1.3 -1.263,-2.329 -2.383,-3.088c-1.083,-0.758 -2.4,-1.137 -3.954,-1.137c-1.479,0 -2.796,0.379 -3.954,1.137c-1.154,0.721 -2.038,1.804 -2.654,3.25c-0.575,1.408 -0.792,3.125 -0.65,5.146c-0.142,1.804 0.092,3.412 0.704,4.821c0.65,1.371 1.592,2.438 2.817,3.196c1.267,0.758 2.708,1.137 4.333,1.137c1.625,0 3,-0.342 4.117,-1.029c1.158,-0.688 2.058,-1.608 2.708,-2.762l5.742,2.817c-0.575,1.408 -1.479,2.654 -2.708,3.737c-1.225,1.083 -2.687,1.933 -4.388,2.546c-1.658,0.612 -3.5,0.921 -5.525,0.921Zm32.896,0c-2.85,0 -5.396,-0.667 -7.638,-2.004c-2.237,-1.371 -4.008,-3.233 -5.308,-5.579c-1.3,-2.346 -1.95,-4.946 -1.95,-7.8c0,-2.888 0.65,-5.488 1.95,-7.8c1.3,-2.312 3.071,-4.154 5.308,-5.525c2.275,-1.371 4.804,-2.058 7.583,-2.058c2.242,0 4.225,0.45 5.958,1.354c1.771,0.867 3.163,2.096 4.171,3.683l-1.083,1.462l0,-17.387l7.096,0l0,41.004l-6.717,0l0,-5.687l0.758,1.408c-1.008,1.587 -2.417,2.817 -4.225,3.683c-1.804,0.829 -3.771,1.246 -5.904,1.246Zm0.758,-6.5c1.625,0 3.054,-0.379 4.279,-1.138c1.229,-0.758 2.188,-1.804 2.871,-3.142c0.725,-1.338 1.083,-2.871 1.083,-4.604c0,-1.696 -0.358,-3.213 -1.083,-4.55c-0.683,-1.371 -1.642,-2.438 -2.871,-3.196c-1.225,-0.758 -2.654,-1.138 -4.279,-1.138c-1.587,0 -3.012,0.396 -4.279,1.192c-1.263,0.758 -2.254,1.804 -2.979,3.142c-0.683,1.3 -1.029,2.817 -1.029,4.55c0,1.733 0.346,3.267 1.029,4.604c0.725,1.337 1.717,2.383 2.979,3.142c1.267,0.758 2.692,1.138 4.279,1.138Z" style="fill:#fff;fill-rule:nonzero;"/></g><g><rect x="541.667" y="500" width="916.667" height="250" style="fill:#031d45;"/></g><g><path d="M695.567,645.833l0,-40.354l7.367,0l0,21.017l-2.004,-0.704l17.171,-20.312l9.263,0l-16.088,19.067l0.433,-5.2l16.142,26.488l-8.667,0l-10.833,-17.767l-5.417,6.446l0,11.321l-7.367,0Zm36.167,0l0,-29.467l7.096,0l0,29.467l-7.096,0Zm0,-32.771l0,-7.583l7.096,0l0,7.583l-7.096,0Zm13.65,32.771l0,-29.467l6.662,0l0,5.796l-0.542,-1.029c0.683,-1.771 1.804,-3.104 3.358,-4.008c1.588,-0.938 3.429,-1.408 5.525,-1.408c2.167,0 4.079,0.471 5.742,1.408c1.696,0.938 3.013,2.258 3.954,3.954c0.938,1.663 1.408,3.592 1.408,5.796l0,18.958l-7.096,0l0,-17.279c0,-1.3 -0.254,-2.421 -0.758,-3.358c-0.508,-0.938 -1.213,-1.663 -2.113,-2.167c-0.867,-0.542 -1.896,-0.812 -3.088,-0.812c-1.158,0 -2.188,0.271 -3.087,0.812c-0.904,0.504 -1.608,1.229 -2.113,2.167c-0.508,0.938 -0.758,2.058 -0.758,3.358l0,17.279l-7.096,0Zm42.329,0l0,-40.354l15.058,0c2.746,0 5.167,0.504 7.258,1.517c2.133,0.975 3.792,2.421 4.983,4.333c1.192,1.879 1.787,4.171 1.787,6.879c0,2.671 -0.612,4.967 -1.842,6.879c-1.192,1.879 -2.833,3.321 -4.929,4.333c-2.092,1.013 -4.512,1.517 -7.258,1.517l-7.692,0l0,14.896l-7.367,0Zm7.367,-21.396l7.8,0c1.338,0 2.492,-0.254 3.467,-0.758c0.975,-0.542 1.733,-1.283 2.275,-2.221c0.542,-0.938 0.812,-2.021 0.812,-3.25c0,-1.263 -0.271,-2.346 -0.812,-3.25c-0.542,-0.938 -1.3,-1.663 -2.275,-2.167c-0.975,-0.542 -2.129,-0.812 -3.467,-0.812l-7.8,0l0,12.458Zm27.162,21.396l0,-29.467l6.662,0l0,6.554l-0.542,-0.975c0.687,-2.204 1.75,-3.737 3.196,-4.604c1.479,-0.867 3.25,-1.3 5.308,-1.3l1.733,0l0,6.283l-2.546,0c-2.021,0 -3.646,0.633 -4.875,1.896c-1.229,1.229 -1.842,2.963 -1.842,5.2l0,16.413l-7.096,0Zm34.667,0.65c-2.888,0 -5.525,-0.667 -7.908,-2.004c-2.346,-1.338 -4.225,-3.158 -5.633,-5.471c-1.371,-2.313 -2.058,-4.946 -2.058,-7.908c0,-2.963 0.688,-5.596 2.058,-7.908c1.408,-2.312 3.287,-4.133 5.633,-5.471c2.35,-1.338 4.983,-2.004 7.908,-2.004c2.892,0 5.508,0.667 7.854,2.004c2.35,1.338 4.208,3.158 5.579,5.471c1.408,2.275 2.113,4.913 2.113,7.908c0,2.962 -0.704,5.596 -2.113,7.908c-1.408,2.312 -3.283,4.133 -5.633,5.471c-2.346,1.338 -4.946,2.004 -7.8,2.004Zm0,-6.5c1.592,0 2.979,-0.379 4.171,-1.138c1.229,-0.758 2.188,-1.804 2.871,-3.142c0.725,-1.371 1.083,-2.908 1.083,-4.604c0,-1.733 -0.358,-3.25 -1.083,-4.55c-0.683,-1.338 -1.642,-2.383 -2.871,-3.142c-1.192,-0.796 -2.579,-1.192 -4.171,-1.192c-1.625,0 -3.05,0.396 -4.279,1.192c-1.225,0.758 -2.2,1.804 -2.925,3.142c-0.683,1.3 -1.029,2.817 -1.029,4.55c0,1.696 0.346,3.233 1.029,4.604c0.725,1.338 1.7,2.383 2.925,3.142c1.229,0.758 2.654,1.138 4.279,1.138Zm34.633,6.5c-2.854,0 -5.4,-0.667 -7.638,-2.004c-2.242,-1.371 -4.008,-3.233 -5.308,-5.579c-1.3,-2.346 -1.95,-4.946 -1.95,-7.8c0,-2.888 0.65,-5.488 1.95,-7.8c1.3,-2.313 3.067,-4.154 5.308,-5.525c2.275,-1.371 4.8,-2.058 7.583,-2.058c2.237,0 4.225,0.45 5.958,1.354c1.767,0.867 3.158,2.096 4.171,3.683l-1.083,1.463l0,-17.388l7.096,0l0,41.004l-6.717,0l0,-5.688l0.758,1.408c-1.013,1.587 -2.421,2.817 -4.225,3.683c-1.808,0.829 -3.775,1.246 -5.904,1.246Zm0.758,-6.5c1.625,0 3.05,-0.379 4.279,-1.138c1.225,-0.758 2.183,-1.804 2.871,-3.142c0.721,-1.338 1.083,-2.871 1.083,-4.604c0,-1.696 -0.362,-3.213 -1.083,-4.55c-0.688,-1.371 -1.646,-2.438 -2.871,-3.196c-1.229,-0.758 -2.654,-1.138 -4.279,-1.138c-1.592,0 -3.017,0.396 -4.279,1.192c-1.267,0.758 -2.258,1.804 -2.979,3.142c-0.688,1.3 -1.029,2.817 -1.029,4.55c0,1.733 0.342,3.267 1.029,4.604c0.721,1.338 1.712,2.383 2.979,3.142c1.263,0.758 2.687,1.138 4.279,1.138Zm32.438,6.5c-2.275,0 -4.263,-0.504 -5.958,-1.517c-1.662,-1.013 -2.942,-2.421 -3.846,-4.225c-0.867,-1.804 -1.3,-3.917 -1.3,-6.337l0,-18.037l7.096,0l0,17.442c0,1.229 0.233,2.312 0.704,3.25c0.504,0.904 1.208,1.625 2.113,2.167c0.937,0.504 1.987,0.758 3.142,0.758c1.154,0 2.183,-0.254 3.088,-0.758c0.904,-0.542 1.608,-1.283 2.113,-2.221c0.504,-0.937 0.758,-2.058 0.758,-3.358l0,-17.279l7.096,0l0,29.467l-6.717,0l0,-5.796l0.596,1.029c-0.688,1.804 -1.825,3.158 -3.412,4.062c-1.554,0.904 -3.375,1.354 -5.471,1.354Zm35.792,0c-2.925,0 -5.562,-0.667 -7.908,-2.004c-2.313,-1.371 -4.133,-3.213 -5.471,-5.525c-1.337,-2.346 -2.004,-4.983 -2.004,-7.908c0,-2.925 0.667,-5.542 2.004,-7.854c1.338,-2.312 3.158,-4.133 5.471,-5.471c2.346,-1.338 4.983,-2.004 7.908,-2.004c2.096,0 4.046,0.379 5.85,1.138c1.804,0.721 3.358,1.733 4.658,3.033c1.338,1.263 2.292,2.779 2.871,4.55l-6.229,2.708c-0.542,-1.479 -1.463,-2.671 -2.763,-3.575c-1.263,-0.904 -2.725,-1.354 -4.388,-1.354c-1.554,0 -2.942,0.379 -4.171,1.138c-1.192,0.758 -2.129,1.804 -2.817,3.142c-0.688,1.338 -1.029,2.871 -1.029,4.604c0,1.733 0.342,3.267 1.029,4.604c0.687,1.338 1.625,2.383 2.817,3.142c1.229,0.758 2.617,1.138 4.171,1.138c1.696,0 3.179,-0.45 4.442,-1.354c1.263,-0.904 2.167,-2.112 2.708,-3.629l6.229,2.817c-0.579,1.663 -1.517,3.158 -2.817,4.496c-1.3,1.3 -2.854,2.329 -4.658,3.088c-1.804,0.721 -3.775,1.083 -5.904,1.083Zm32.196,-0.325c-3.321,0 -5.904,-0.904 -7.746,-2.708c-1.804,-1.842 -2.708,-4.425 -2.708,-7.746l0,-13l-5.092,0l0,-6.337l0.542,0c1.446,0 2.567,-0.379 3.358,-1.138c0.796,-0.758 1.192,-1.858 1.192,-3.304l0,-2.275l7.096,0l0,6.717l6.771,0l0,6.337l-6.771,0l0,12.621c0,0.975 0.163,1.804 0.487,2.492c0.362,0.688 0.904,1.208 1.625,1.571c0.758,0.362 1.717,0.542 2.871,0.542c0.254,0 0.542,-0.017 0.867,-0.054c0.363,-0.037 0.704,-0.071 1.029,-0.108l0,6.067c-0.504,0.071 -1.083,0.146 -1.733,0.217c-0.65,0.071 -1.246,0.108 -1.787,0.108Zm8.942,-0.325l0,-29.467l7.096,0l0,29.467l-7.096,0Zm0,-32.771l0,-7.583l7.096,0l0,7.583l-7.096,0Zm28.058,33.421c-2.892,0 -5.525,-0.667 -7.908,-2.004c-2.35,-1.338 -4.225,-3.158 -5.633,-5.471c-1.375,-2.313 -2.058,-4.946 -2.058,-7.908c0,-2.963 0.683,-5.596 2.058,-7.908c1.408,-2.312 3.283,-4.133 5.633,-5.471c2.346,-1.338 4.983,-2.004 7.908,-2.004c2.888,0 5.504,0.667 7.854,2.004c2.346,1.338 4.204,3.158 5.579,5.471c1.408,2.275 2.112,4.913 2.112,7.908c0,2.962 -0.704,5.596 -2.112,7.908c-1.408,2.312 -3.287,4.133 -5.633,5.471c-2.35,1.338 -4.95,2.004 -7.8,2.004Zm0,-6.5c1.587,0 2.979,-0.379 4.171,-1.138c1.225,-0.758 2.183,-1.804 2.871,-3.142c0.721,-1.371 1.083,-2.908 1.083,-4.604c0,-1.733 -0.362,-3.25 -1.083,-4.55c-0.688,-1.338 -1.646,-2.383 -2.871,-3.142c-1.192,-0.796 -2.583,-1.192 -4.171,-1.192c-1.625,0 -3.054,0.396 -4.279,1.192c-1.229,0.758 -2.204,1.804 -2.925,3.142c-0.687,1.3 -1.029,2.817 -1.029,4.55c0,1.696 0.342,3.233 1.029,4.604c0.721,1.338 1.696,2.383 2.925,3.142c1.225,0.758 2.654,1.138 4.279,1.138Zm20.925,5.85l0,-29.467l6.662,0l0,5.796l-0.542,-1.029c0.688,-1.771 1.808,-3.104 3.358,-4.008c1.592,-0.938 3.433,-1.408 5.525,-1.408c2.167,0 4.083,0.471 5.742,1.408c1.7,0.938 3.017,2.258 3.954,3.954c0.942,1.663 1.408,3.592 1.408,5.796l0,18.958l-7.096,0l0,-17.279c0,-1.3 -0.25,-2.421 -0.758,-3.358c-0.504,-0.938 -1.208,-1.663 -2.112,-2.167c-0.867,-0.542 -1.896,-0.812 -3.088,-0.812c-1.154,0 -2.183,0.271 -3.087,0.812c-0.9,0.504 -1.604,1.229 -2.112,2.167c-0.504,0.938 -0.758,2.058 -0.758,3.358l0,17.279l-7.096,0Zm43.321,0.65c-3.142,0 -5.883,-0.742 -8.233,-2.221c-2.308,-1.517 -3.9,-3.558 -4.767,-6.121l5.308,-2.546c0.758,1.663 1.808,2.963 3.142,3.9c1.375,0.938 2.892,1.408 4.55,1.408c1.3,0 2.329,-0.288 3.087,-0.867c0.758,-0.579 1.138,-1.338 1.138,-2.275c0,-0.579 -0.162,-1.046 -0.487,-1.408c-0.288,-0.396 -0.704,-0.721 -1.246,-0.975c-0.504,-0.288 -1.062,-0.525 -1.679,-0.704l-4.821,-1.354c-2.492,-0.721 -4.388,-1.825 -5.688,-3.304c-1.263,-1.479 -1.896,-3.233 -1.896,-5.254c0,-1.804 0.454,-3.375 1.354,-4.712c0.942,-1.371 2.221,-2.438 3.846,-3.196c1.662,-0.758 3.558,-1.138 5.688,-1.138c2.783,0 5.237,0.667 7.367,2.004c2.133,1.338 3.65,3.213 4.55,5.633l-5.417,2.546c-0.504,-1.338 -1.354,-2.4 -2.546,-3.196c-1.192,-0.796 -2.525,-1.192 -4.008,-1.192c-1.192,0 -2.129,0.271 -2.817,0.812c-0.683,0.542 -1.029,1.246 -1.029,2.112c0,0.542 0.146,1.013 0.433,1.408c0.292,0.396 0.687,0.721 1.192,0.975c0.542,0.254 1.158,0.487 1.842,0.704l4.713,1.408c2.421,0.721 4.279,1.804 5.579,3.25c1.338,1.446 2.004,3.213 2.004,5.308c0,1.771 -0.467,3.342 -1.408,4.713c-0.937,1.338 -2.237,2.383 -3.9,3.142c-1.658,0.758 -3.608,1.138 -5.85,1.138Zm26.838,-0.65l0,-40.354l15.058,0c2.742,0 5.162,0.504 7.258,1.517c2.129,0.975 3.792,2.421 4.983,4.333c1.192,1.879 1.788,4.171 1.788,6.879c0,2.671 -0.617,4.967 -1.842,6.879c-1.192,1.879 -2.838,3.321 -4.929,4.333c-2.096,1.013 -4.517,1.517 -7.258,1.517l-7.692,0l0,14.896l-7.367,0Zm7.367,-21.396l7.8,0c1.333,0 2.492,-0.254 3.467,-0.758c0.975,-0.542 1.733,-1.283 2.275,-2.221c0.542,-0.938 0.812,-2.021 0.812,-3.25c0,-1.263 -0.271,-2.346 -0.812,-3.25c-0.542,-0.938 -1.3,-1.663 -2.275,-2.167c-0.975,-0.542 -2.133,-0.812 -3.467,-0.812l-7.8,0l0,12.458Zm40.592,21.721c-3.321,0 -5.904,-0.904 -7.746,-2.708c-1.804,-1.842 -2.708,-4.425 -2.708,-7.746l0,-13l-5.092,0l0,-6.337l0.542,0c1.446,0 2.567,-0.379 3.358,-1.138c0.796,-0.758 1.192,-1.858 1.192,-3.304l0,-2.275l7.096,0l0,6.717l6.771,0l0,6.337l-6.771,0l0,12.621c0,0.975 0.163,1.804 0.488,2.492c0.362,0.688 0.904,1.208 1.625,1.571c0.758,0.362 1.717,0.542 2.871,0.542c0.254,0 0.542,-0.017 0.867,-0.054c0.363,-0.037 0.704,-0.071 1.029,-0.108l0,6.067c-0.504,0.071 -1.083,0.146 -1.733,0.217c-0.65,0.071 -1.246,0.108 -1.787,0.108Zm22.654,0.325c-3.033,0 -5.687,-0.688 -7.963,-2.058c-2.275,-1.371 -4.046,-3.233 -5.308,-5.579c-1.263,-2.346 -1.896,-4.946 -1.896,-7.8c0,-2.962 0.633,-5.579 1.896,-7.854c1.3,-2.312 3.05,-4.133 5.254,-5.471c2.237,-1.338 4.729,-2.004 7.475,-2.004c2.313,0 4.333,0.379 6.067,1.138c1.771,0.758 3.267,1.804 4.496,3.142c1.229,1.338 2.167,2.871 2.817,4.604c0.65,1.696 0.975,3.538 0.975,5.525c0,0.504 -0.037,1.029 -0.108,1.571c-0.038,0.542 -0.125,1.012 -0.271,1.408l-22.75,0l0,-5.417l18.742,0l-3.358,2.546c0.325,-1.662 0.233,-3.142 -0.271,-4.442c-0.471,-1.3 -1.262,-2.329 -2.383,-3.088c-1.083,-0.758 -2.4,-1.138 -3.954,-1.138c-1.479,0 -2.8,0.379 -3.954,1.138c-1.154,0.721 -2.042,1.804 -2.654,3.25c-0.579,1.408 -0.796,3.125 -0.65,5.146c-0.146,1.804 0.092,3.412 0.704,4.821c0.65,1.371 1.588,2.438 2.817,3.196c1.263,0.758 2.708,1.137 4.333,1.137c1.625,0 2.996,-0.342 4.117,-1.029c1.154,-0.688 2.058,-1.608 2.708,-2.762l5.742,2.817c-0.579,1.408 -1.479,2.654 -2.708,3.737c-1.229,1.083 -2.692,1.933 -4.388,2.546c-1.662,0.612 -3.504,0.921 -5.525,0.921Zm29.413,-0.65l0,-40.354l7.367,0l0,33.854l17.279,0l0,6.5l-24.646,0Zm40.608,0.325c-3.321,0 -5.904,-0.904 -7.746,-2.708c-1.804,-1.842 -2.708,-4.425 -2.708,-7.746l0,-13l-5.092,0l0,-6.337l0.542,0c1.446,0 2.567,-0.379 3.358,-1.138c0.796,-0.758 1.192,-1.858 1.192,-3.304l0,-2.275l7.096,0l0,6.717l6.771,0l0,6.337l-6.771,0l0,12.621c0,0.975 0.162,1.804 0.487,2.492c0.362,0.688 0.904,1.208 1.625,1.571c0.758,0.362 1.717,0.542 2.871,0.542c0.254,0 0.542,-0.017 0.867,-0.054c0.362,-0.037 0.704,-0.071 1.029,-0.108l0,6.067c-0.504,0.071 -1.083,0.146 -1.733,0.217c-0.65,0.071 -1.246,0.108 -1.788,0.108Zm22.383,0.325c-2.854,0 -5.4,-0.667 -7.637,-2.004c-2.238,-1.371 -4.008,-3.233 -5.308,-5.579c-1.3,-2.346 -1.95,-4.946 -1.95,-7.8c0,-2.888 0.65,-5.488 1.95,-7.8c1.3,-2.313 3.071,-4.154 5.308,-5.525c2.275,-1.371 4.804,-2.058 7.583,-2.058c2.237,0 4.225,0.45 5.958,1.354c1.771,0.867 3.158,2.096 4.171,3.683l-1.083,1.463l0,-17.388l7.096,0l0,41.004l-6.717,0l0,-5.688l0.758,1.408c-1.012,1.587 -2.421,2.817 -4.225,3.683c-1.804,0.829 -3.775,1.246 -5.904,1.246Zm0.758,-6.5c1.625,0 3.05,-0.379 4.279,-1.138c1.229,-0.758 2.183,-1.804 2.871,-3.142c0.721,-1.338 1.083,-2.871 1.083,-4.604c0,-1.696 -0.362,-3.213 -1.083,-4.55c-0.688,-1.371 -1.642,-2.438 -2.871,-3.196c-1.229,-0.758 -2.654,-1.138 -4.279,-1.138c-1.588,0 -3.017,0.396 -4.279,1.192c-1.262,0.758 -2.258,1.804 -2.979,3.142c-0.688,1.3 -1.029,2.817 -1.029,4.55c0,1.733 0.342,3.267 1.029,4.604c0.721,1.338 1.717,2.383 2.979,3.142c1.263,0.758 2.692,1.138 4.279,1.138Z" style="fill:#fff;fill-rule:nonzero;"/></g><g><rect x="0" y="1166.667" width="916.667" height="250" style="fill:#031d45;"/></g><g><path d="M259.458,1312.5l0,-40.354l7.367,0l0,21.017l-2.004,-0.704l17.171,-20.312l9.263,0l-16.087,19.067l0.433,-5.2l16.142,26.488l-8.667,0l-10.833,-17.767l-5.417,6.446l0,11.321l-7.367,0Zm36.167,0l0,-29.467l7.096,0l0,29.467l-7.096,0Zm0,-32.771l0,-7.583l7.096,0l0,7.583l-7.096,0Zm13.65,32.771l0,-29.467l6.662,0l0,5.796l-0.542,-1.029c0.683,-1.771 1.804,-3.104 3.358,-4.008c1.587,-0.938 3.429,-1.408 5.525,-1.408c2.167,0 4.079,0.471 5.742,1.408c1.696,0.937 3.012,2.258 3.954,3.954c0.938,1.663 1.408,3.592 1.408,5.796l0,18.958l-7.096,0l0,-17.279c0,-1.3 -0.254,-2.421 -0.758,-3.358c-0.508,-0.938 -1.212,-1.663 -2.112,-2.167c-0.867,-0.542 -1.896,-0.812 -3.087,-0.812c-1.158,0 -2.188,0.271 -3.088,0.812c-0.904,0.504 -1.608,1.229 -2.112,2.167c-0.508,0.937 -0.758,2.058 -0.758,3.358l0,17.279l-7.096,0Zm42.329,0l0,-40.354l13.163,0c4.263,0 7.962,0.867 11.104,2.6c3.179,1.696 5.633,4.062 7.367,7.096c1.733,2.996 2.6,6.483 2.6,10.454c0,3.938 -0.867,7.438 -2.6,10.508c-1.733,3.033 -4.188,5.417 -7.367,7.15c-3.142,1.696 -6.842,2.546 -11.104,2.546l-13.163,0Zm7.367,-6.5l5.958,0c2.746,0 5.113,-0.558 7.096,-1.679c2.025,-1.154 3.596,-2.746 4.712,-4.767c1.121,-2.058 1.679,-4.479 1.679,-7.258c0,-2.817 -0.558,-5.237 -1.679,-7.258c-1.117,-2.021 -2.688,-3.592 -4.712,-4.712c-1.983,-1.121 -4.35,-1.679 -7.096,-1.679l-5.958,0l0,27.354Zm43.671,6.5l0,-10.508l-10.508,0l0,-6.121l10.508,0l0,-10.454l6.121,0l0,10.454l10.454,0l0,6.121l-10.454,0l0,10.508l-6.121,0Zm24.817,0l0,-40.354l17.008,0c2.675,0 4.95,0.471 6.825,1.408c1.917,0.904 3.379,2.204 4.388,3.9c1.05,1.663 1.571,3.683 1.571,6.067c0,1.842 -0.504,3.575 -1.517,5.2c-0.975,1.587 -2.546,2.908 -4.713,3.954l0,-3.413c1.988,0.758 3.558,1.696 4.713,2.817c1.158,1.121 1.971,2.367 2.438,3.737c0.471,1.371 0.704,2.817 0.704,4.333c0,3.862 -1.279,6.896 -3.846,9.1c-2.525,2.167 -6.046,3.25 -10.562,3.25l-17.008,0Zm7.367,-6.5l10.4,0c1.917,0 3.433,-0.525 4.55,-1.571c1.158,-1.083 1.733,-2.508 1.733,-4.279c0,-1.771 -0.575,-3.196 -1.733,-4.279c-1.117,-1.083 -2.633,-1.625 -4.55,-1.625l-10.4,0l0,11.754Zm0,-18.2l10.021,0c1.517,0 2.729,-0.433 3.629,-1.3c0.904,-0.904 1.354,-2.058 1.354,-3.467c0,-1.408 -0.45,-2.529 -1.354,-3.358c-0.9,-0.829 -2.112,-1.246 -3.629,-1.246l-10.021,0l0,9.371Zm39.713,24.7l0,-40.354l15.058,0c2.746,0 5.163,0.504 7.258,1.517c2.129,0.975 3.792,2.421 4.983,4.333c1.192,1.879 1.788,4.171 1.788,6.879c0,2.671 -0.612,4.967 -1.842,6.879c-1.192,1.879 -2.833,3.321 -4.929,4.333c-2.096,1.013 -4.512,1.517 -7.258,1.517l-7.692,0l0,14.896l-7.367,0Zm7.367,-21.396l7.8,0c1.337,0 2.492,-0.254 3.467,-0.758c0.975,-0.542 1.733,-1.283 2.275,-2.221c0.542,-0.938 0.812,-2.021 0.812,-3.25c0,-1.263 -0.271,-2.346 -0.812,-3.25c-0.542,-0.938 -1.3,-1.663 -2.275,-2.167c-0.975,-0.542 -2.129,-0.812 -3.467,-0.812l-7.8,0l0,12.458Zm40.596,21.721c-3.325,0 -5.904,-0.904 -7.746,-2.708c-1.808,-1.842 -2.708,-4.425 -2.708,-7.746l0,-13l-5.092,0l0,-6.338l0.542,0c1.442,0 2.562,-0.379 3.358,-1.138c0.792,-0.758 1.192,-1.858 1.192,-3.304l0,-2.275l7.096,0l0,6.717l6.771,0l0,6.338l-6.771,0l0,12.621c0,0.975 0.163,1.804 0.488,2.492c0.358,0.688 0.9,1.208 1.625,1.571c0.758,0.363 1.713,0.542 2.871,0.542c0.25,0 0.542,-0.017 0.867,-0.054c0.358,-0.038 0.704,-0.071 1.029,-0.108l0,6.067c-0.508,0.071 -1.083,0.146 -1.733,0.217c-0.65,0.071 -1.246,0.108 -1.788,0.108Zm22.65,0.325c-3.033,0 -5.688,-0.688 -7.962,-2.058c-2.275,-1.371 -4.042,-3.233 -5.308,-5.579c-1.263,-2.346 -1.896,-4.946 -1.896,-7.8c0,-2.963 0.633,-5.579 1.896,-7.854c1.3,-2.312 3.054,-4.133 5.254,-5.471c2.242,-1.337 4.733,-2.004 7.475,-2.004c2.312,0 4.333,0.379 6.067,1.138c1.771,0.758 3.271,1.804 4.496,3.142c1.229,1.338 2.167,2.871 2.817,4.604c0.65,1.696 0.975,3.537 0.975,5.525c0,0.504 -0.033,1.029 -0.108,1.571c-0.033,0.542 -0.125,1.013 -0.271,1.408l-22.75,0l0,-5.417l18.742,0l-3.358,2.546c0.325,-1.662 0.237,-3.142 -0.271,-4.442c-0.467,-1.3 -1.263,-2.329 -2.383,-3.087c-1.083,-0.758 -2.4,-1.138 -3.954,-1.138c-1.479,0 -2.796,0.379 -3.954,1.138c-1.154,0.721 -2.037,1.804 -2.654,3.25c-0.575,1.408 -0.792,3.125 -0.65,5.146c-0.142,1.804 0.092,3.413 0.704,4.821c0.65,1.371 1.592,2.438 2.817,3.196c1.267,0.758 2.708,1.138 4.333,1.138c1.625,0 3,-0.342 4.117,-1.029c1.158,-0.687 2.058,-1.608 2.708,-2.763l5.742,2.817c-0.575,1.408 -1.479,2.654 -2.708,3.737c-1.225,1.083 -2.688,1.933 -4.387,2.546c-1.658,0.612 -3.5,0.921 -5.525,0.921Zm29.417,-0.65l0,-40.354l7.367,0l0,33.854l17.279,0l0,6.5l-24.646,0Zm40.608,0.325c-3.321,0 -5.904,-0.904 -7.746,-2.708c-1.804,-1.842 -2.708,-4.425 -2.708,-7.746l0,-13l-5.092,0l0,-6.338l0.542,0c1.446,0 2.562,-0.379 3.358,-1.138c0.796,-0.758 1.192,-1.858 1.192,-3.304l0,-2.275l7.096,0l0,6.717l6.771,0l0,6.338l-6.771,0l0,12.621c0,0.975 0.162,1.804 0.487,2.492c0.363,0.688 0.904,1.208 1.625,1.571c0.758,0.363 1.717,0.542 2.871,0.542c0.254,0 0.542,-0.017 0.867,-0.054c0.362,-0.038 0.704,-0.071 1.029,-0.108l0,6.067c-0.504,0.071 -1.083,0.146 -1.733,0.217c-0.65,0.071 -1.246,0.108 -1.788,0.108Zm22.383,0.325c-2.854,0 -5.4,-0.667 -7.638,-2.004c-2.242,-1.371 -4.008,-3.233 -5.308,-5.579c-1.3,-2.346 -1.95,-4.946 -1.95,-7.8c0,-2.887 0.65,-5.487 1.95,-7.8c1.3,-2.312 3.067,-4.154 5.308,-5.525c2.275,-1.371 4.8,-2.058 7.583,-2.058c2.238,0 4.225,0.45 5.958,1.354c1.767,0.867 3.158,2.096 4.171,3.683l-1.083,1.463l0,-17.388l7.096,0l0,41.004l-6.717,0l0,-5.688l0.758,1.408c-1.012,1.587 -2.421,2.817 -4.225,3.683c-1.808,0.829 -3.775,1.246 -5.904,1.246Zm0.758,-6.5c1.625,0 3.05,-0.379 4.279,-1.138c1.225,-0.758 2.183,-1.804 2.871,-3.142c0.721,-1.338 1.083,-2.871 1.083,-4.604c0,-1.696 -0.363,-3.213 -1.083,-4.55c-0.688,-1.371 -1.646,-2.438 -2.871,-3.196c-1.229,-0.758 -2.654,-1.138 -4.279,-1.138c-1.592,0 -3.017,0.396 -4.279,1.192c-1.267,0.758 -2.258,1.804 -2.979,3.142c-0.688,1.3 -1.029,2.817 -1.029,4.55c0,1.733 0.342,3.267 1.029,4.604c0.721,1.337 1.713,2.383 2.979,3.142c1.263,0.758 2.688,1.138 4.279,1.138Z" style="fill:#fff;fill-rule:nonzero;"/></g><g><rect x="1083.333" y="1166.667" width="916.667" height="250" style="fill:#031d45;"/></g><g><path d="M1262.233,1312.5l0,-40.354l7.367,0l0,21.017l-2.004,-0.704l17.171,-20.312l9.263,0l-16.088,19.067l0.433,-5.2l16.142,26.488l-8.667,0l-10.833,-17.767l-5.417,6.446l0,11.321l-7.367,0Zm36.167,0l0,-29.467l7.096,0l0,29.467l-7.096,0Zm0,-32.771l0,-7.583l7.096,0l0,7.583l-7.096,0Zm13.65,32.771l0,-29.467l6.662,0l0,5.796l-0.542,-1.029c0.683,-1.771 1.804,-3.104 3.358,-4.008c1.588,-0.938 3.429,-1.408 5.525,-1.408c2.167,0 4.079,0.471 5.742,1.408c1.696,0.937 3.013,2.258 3.954,3.954c0.938,1.663 1.408,3.592 1.408,5.796l0,18.958l-7.096,0l0,-17.279c0,-1.3 -0.254,-2.421 -0.758,-3.358c-0.508,-0.938 -1.212,-1.663 -2.112,-2.167c-0.867,-0.542 -1.896,-0.812 -3.088,-0.812c-1.158,0 -2.188,0.271 -3.088,0.812c-0.904,0.504 -1.608,1.229 -2.112,2.167c-0.508,0.937 -0.758,2.058 -0.758,3.358l0,17.279l-7.096,0Zm42.329,0l0,-40.354l7.042,0l15.113,20.529l-3.358,0l14.787,-20.529l7.042,0l0,40.354l-7.421,0l0,-31.958l2.871,0.704l-15.329,20.421l-0.867,0l-14.95,-20.421l2.438,-0.704l0,31.958l-7.367,0Zm47.754,0l0,-29.467l7.096,0l0,29.467l-7.096,0Zm0,-32.771l0,-7.583l7.096,0l0,7.583l-7.096,0Zm27.35,33.421c-2.854,0 -5.4,-0.667 -7.638,-2.004c-2.237,-1.371 -4.008,-3.233 -5.308,-5.579c-1.3,-2.346 -1.95,-4.946 -1.95,-7.8c0,-2.887 0.65,-5.487 1.95,-7.8c1.3,-2.312 3.071,-4.154 5.308,-5.525c2.275,-1.371 4.804,-2.058 7.583,-2.058c2.238,0 4.225,0.45 5.958,1.354c1.771,0.867 3.158,2.096 4.171,3.683l-1.083,1.463l0,-17.388l7.096,0l0,41.004l-6.717,0l0,-5.688l0.758,1.408c-1.013,1.587 -2.421,2.817 -4.225,3.683c-1.804,0.829 -3.775,1.246 -5.904,1.246Zm0.758,-6.5c1.625,0 3.05,-0.379 4.279,-1.138c1.229,-0.758 2.183,-1.804 2.871,-3.142c0.721,-1.338 1.083,-2.871 1.083,-4.604c0,-1.696 -0.362,-3.213 -1.083,-4.55c-0.687,-1.371 -1.642,-2.438 -2.871,-3.196c-1.229,-0.758 -2.654,-1.138 -4.279,-1.138c-1.587,0 -3.017,0.396 -4.279,1.192c-1.263,0.758 -2.258,1.804 -2.979,3.142c-0.688,1.3 -1.029,2.817 -1.029,4.55c0,1.733 0.342,3.267 1.029,4.604c0.721,1.337 1.717,2.383 2.979,3.142c1.263,0.758 2.692,1.138 4.279,1.138Zm35.637,6.5c-2.854,0 -5.4,-0.667 -7.637,-2.004c-2.242,-1.371 -4.008,-3.233 -5.308,-5.579c-1.3,-2.346 -1.95,-4.946 -1.95,-7.8c0,-2.887 0.65,-5.487 1.95,-7.8c1.3,-2.312 3.067,-4.154 5.308,-5.525c2.275,-1.371 4.8,-2.058 7.583,-2.058c2.237,0 4.225,0.45 5.958,1.354c1.767,0.867 3.158,2.096 4.171,3.683l-1.083,1.463l0,-17.388l7.096,0l0,41.004l-6.717,0l0,-5.688l0.758,1.408c-1.012,1.587 -2.421,2.817 -4.225,3.683c-1.808,0.829 -3.775,1.246 -5.904,1.246Zm0.758,-6.5c1.625,0 3.05,-0.379 4.279,-1.138c1.225,-0.758 2.183,-1.804 2.871,-3.142c0.721,-1.338 1.083,-2.871 1.083,-4.604c0,-1.696 -0.362,-3.213 -1.083,-4.55c-0.688,-1.371 -1.646,-2.438 -2.871,-3.196c-1.229,-0.758 -2.654,-1.138 -4.279,-1.138c-1.592,0 -3.017,0.396 -4.279,1.192c-1.267,0.758 -2.258,1.804 -2.979,3.142c-0.687,1.3 -1.029,2.817 -1.029,4.55c0,1.733 0.342,3.267 1.029,4.604c0.721,1.337 1.713,2.383 2.979,3.142c1.262,0.758 2.687,1.138 4.279,1.138Zm21.929,5.85l0,-41.004l7.096,0l0,41.004l-7.096,0Zm27.621,0.65c-3.033,0 -5.688,-0.688 -7.962,-2.058c-2.275,-1.371 -4.042,-3.233 -5.308,-5.579c-1.263,-2.346 -1.896,-4.946 -1.896,-7.8c0,-2.963 0.633,-5.579 1.896,-7.854c1.3,-2.312 3.054,-4.133 5.254,-5.471c2.242,-1.337 4.733,-2.004 7.475,-2.004c2.312,0 4.333,0.379 6.067,1.138c1.771,0.758 3.271,1.804 4.496,3.142c1.229,1.338 2.167,2.871 2.817,4.604c0.65,1.696 0.975,3.537 0.975,5.525c0,0.504 -0.033,1.029 -0.108,1.571c-0.033,0.542 -0.125,1.013 -0.271,1.408l-22.75,0l0,-5.417l18.742,0l-3.358,2.546c0.325,-1.662 0.238,-3.142 -0.271,-4.442c-0.467,-1.3 -1.263,-2.329 -2.383,-3.087c-1.083,-0.758 -2.4,-1.138 -3.954,-1.138c-1.479,0 -2.796,0.379 -3.954,1.138c-1.154,0.721 -2.037,1.804 -2.654,3.25c-0.575,1.408 -0.792,3.125 -0.65,5.146c-0.142,1.804 0.092,3.413 0.704,4.821c0.65,1.371 1.592,2.438 2.817,3.196c1.267,0.758 2.708,1.138 4.333,1.138c1.625,0 3,-0.342 4.117,-1.029c1.158,-0.687 2.058,-1.608 2.708,-2.763l5.742,2.817c-0.575,1.408 -1.479,2.654 -2.708,3.737c-1.225,1.083 -2.687,1.933 -4.388,2.546c-1.658,0.612 -3.5,0.921 -5.525,0.921Zm29.417,-0.65l0,-40.354l26.813,0l0,6.5l-19.446,0l0,10.346l18.362,0l0,6.5l-18.362,0l0,10.508l19.446,0l0,6.5l-26.813,0Zm40.554,0.65c-2.058,0 -3.846,-0.342 -5.362,-1.029c-1.517,-0.688 -2.688,-1.663 -3.521,-2.925c-0.829,-1.3 -1.246,-2.8 -1.246,-4.496c0,-1.625 0.363,-3.071 1.083,-4.333c0.725,-1.3 1.842,-2.383 3.358,-3.25c1.517,-0.867 3.433,-1.479 5.742,-1.842l9.642,-1.571l0,5.417l-8.287,1.408c-1.408,0.254 -2.454,0.704 -3.142,1.354c-0.683,0.65 -1.029,1.5 -1.029,2.546c0,1.013 0.379,1.825 1.137,2.438c0.796,0.579 1.771,0.867 2.925,0.867c1.483,0 2.783,-0.308 3.9,-0.921c1.158,-0.65 2.042,-1.533 2.654,-2.654c0.65,-1.121 0.975,-2.346 0.975,-3.683l0,-7.583c0,-1.263 -0.504,-2.312 -1.517,-3.142c-0.975,-0.867 -2.275,-1.3 -3.9,-1.3c-1.517,0 -2.871,0.417 -4.062,1.246c-1.154,0.796 -2.004,1.858 -2.546,3.196l-5.796,-2.817c0.579,-1.554 1.483,-2.888 2.708,-4.008c1.267,-1.154 2.746,-2.058 4.442,-2.708c1.7,-0.65 3.542,-0.975 5.525,-0.975c2.421,0 4.55,0.45 6.392,1.354c1.842,0.867 3.271,2.096 4.279,3.683c1.05,1.554 1.571,3.375 1.571,5.471l0,19.608l-6.717,0l0,-5.037l1.517,-0.108c-0.758,1.262 -1.658,2.329 -2.708,3.196c-1.046,0.829 -2.238,1.479 -3.575,1.95c-1.333,0.433 -2.817,0.65 -4.442,0.65Zm33.696,0c-3.142,0 -5.883,-0.742 -8.233,-2.221c-2.308,-1.517 -3.9,-3.558 -4.767,-6.121l5.308,-2.546c0.758,1.662 1.808,2.963 3.142,3.9c1.375,0.938 2.892,1.408 4.55,1.408c1.3,0 2.329,-0.288 3.087,-0.867c0.758,-0.579 1.138,-1.337 1.138,-2.275c0,-0.579 -0.162,-1.046 -0.488,-1.408c-0.287,-0.396 -0.704,-0.721 -1.246,-0.975c-0.504,-0.287 -1.062,-0.525 -1.679,-0.704l-4.821,-1.354c-2.492,-0.721 -4.387,-1.825 -5.688,-3.304c-1.262,-1.479 -1.896,-3.233 -1.896,-5.254c0,-1.804 0.454,-3.375 1.354,-4.712c0.942,-1.371 2.221,-2.438 3.846,-3.196c1.662,-0.758 3.558,-1.138 5.688,-1.138c2.783,0 5.238,0.667 7.367,2.004c2.133,1.338 3.65,3.213 4.55,5.633l-5.417,2.546c-0.504,-1.338 -1.354,-2.4 -2.546,-3.196c-1.192,-0.796 -2.525,-1.192 -4.008,-1.192c-1.192,0 -2.129,0.271 -2.817,0.812c-0.683,0.542 -1.029,1.246 -1.029,2.112c0,0.542 0.146,1.013 0.433,1.408c0.292,0.396 0.688,0.721 1.192,0.975c0.542,0.254 1.158,0.487 1.842,0.704l4.713,1.408c2.421,0.721 4.279,1.804 5.579,3.25c1.338,1.446 2.004,3.213 2.004,5.308c0,1.771 -0.467,3.342 -1.408,4.713c-0.938,1.337 -2.238,2.383 -3.9,3.142c-1.658,0.758 -3.608,1.138 -5.85,1.138Zm30.046,-0.325c-3.321,0 -5.904,-0.904 -7.746,-2.708c-1.804,-1.842 -2.708,-4.425 -2.708,-7.746l0,-13l-5.092,0l0,-6.338l0.542,0c1.446,0 2.562,-0.379 3.358,-1.138c0.796,-0.758 1.192,-1.858 1.192,-3.304l0,-2.275l7.096,0l0,6.717l6.771,0l0,6.338l-6.771,0l0,12.621c0,0.975 0.162,1.804 0.488,2.492c0.362,0.688 0.904,1.208 1.625,1.571c0.758,0.363 1.717,0.542 2.871,0.542c0.254,0 0.542,-0.017 0.867,-0.054c0.363,-0.038 0.704,-0.071 1.029,-0.108l0,6.067c-0.504,0.071 -1.083,0.146 -1.733,0.217c-0.65,0.071 -1.246,0.108 -1.787,0.108Zm26.696,-0.325l-10.833,-40.354l7.908,0l8.504,34.396l-2.058,0l8.883,-34.396l7.638,0l8.829,34.396l-2.058,0l8.504,-34.396l7.908,0l-10.833,40.354l-8.45,0l-8.938,-33.475l2.383,0l-8.938,33.475l-8.45,0Zm68.167,0l0,-40.354l7.367,0l0,33.854l17.279,0l0,6.5l-24.646,0Zm32.171,0l0,-7.583l7.15,0l0,7.583l-7.15,0Zm17.708,0l0,-40.354l7.367,0l0,33.854l17.279,0l0,6.5l-24.646,0Z" style="fill:#fff;fill-rule:nonzero;"/><path d="M1262.233,1312.5l0,-40.354l7.367,0l0,21.017l-2.004,-0.704l17.171,-20.312l9.263,0l-16.088,19.067l0.433,-5.2l16.142,26.488l-8.667,0l-10.833,-17.767l-5.417,6.446l0,11.321l-7.367,0Zm36.167,0l0,-29.467l7.096,0l0,29.467l-7.096,0Zm0,-32.771l0,-7.583l7.096,0l0,7.583l-7.096,0Zm13.65,32.771l0,-29.467l6.662,0l0,5.796l-0.542,-1.029c0.683,-1.771 1.804,-3.104 3.358,-4.008c1.588,-0.938 3.429,-1.408 5.525,-1.408c2.167,0 4.079,0.471 5.742,1.408c1.696,0.937 3.013,2.258 3.954,3.954c0.938,1.663 1.408,3.592 1.408,5.796l0,18.958l-7.096,0l0,-17.279c0,-1.3 -0.254,-2.421 -0.758,-3.358c-0.508,-0.938 -1.212,-1.663 -2.112,-2.167c-0.867,-0.542 -1.896,-0.812 -3.088,-0.812c-1.158,0 -2.188,0.271 -3.088,0.812c-0.904,0.504 -1.608,1.229 -2.112,2.167c-0.508,0.937 -0.758,2.058 -0.758,3.358l0,17.279l-7.096,0Zm42.329,0l0,-40.354l7.042,0l15.113,20.529l-3.358,0l14.787,-20.529l7.042,0l0,40.354l-7.421,0l0,-31.958l2.871,0.704l-15.329,20.421l-0.867,0l-14.95,-20.421l2.438,-0.704l0,31.958l-7.367,0Zm47.754,0l0,-29.467l7.096,0l0,29.467l-7.096,0Zm0,-32.771l0,-7.583l7.096,0l0,7.583l-7.096,0Zm27.35,33.421c-2.854,0 -5.4,-0.667 -7.638,-2.004c-2.237,-1.371 -4.008,-3.233 -5.308,-5.579c-1.3,-2.346 -1.95,-4.946 -1.95,-7.8c0,-2.887 0.65,-5.487 1.95,-7.8c1.3,-2.312 3.071,-4.154 5.308,-5.525c2.275,-1.371 4.804,-2.058 7.583,-2.058c2.238,0 4.225,0.45 5.958,1.354c1.771,0.867 3.158,2.096 4.171,3.683l-1.083,1.463l0,-17.388l7.096,0l0,41.004l-6.717,0l0,-5.688l0.758,1.408c-1.013,1.587 -2.421,2.817 -4.225,3.683c-1.804,0.829 -3.775,1.246 -5.904,1.246Zm0.758,-6.5c1.625,0 3.05,-0.379 4.279,-1.138c1.229,-0.758 2.183,-1.804 2.871,-3.142c0.721,-1.338 1.083,-2.871 1.083,-4.604c0,-1.696 -0.362,-3.213 -1.083,-4.55c-0.687,-1.371 -1.642,-2.438 -2.871,-3.196c-1.229,-0.758 -2.654,-1.138 -4.279,-1.138c-1.587,0 -3.017,0.396 -4.279,1.192c-1.263,0.758 -2.258,1.804 -2.979,3.142c-0.688,1.3 -1.029,2.817 -1.029,4.55c0,1.733 0.342,3.267 1.029,4.604c0.721,1.337 1.717,2.383 2.979,3.142c1.263,0.758 2.692,1.138 4.279,1.138Zm35.637,6.5c-2.854,0 -5.4,-0.667 -7.637,-2.004c-2.242,-1.371 -4.008,-3.233 -5.308,-5.579c-1.3,-2.346 -1.95,-4.946 -1.95,-7.8c0,-2.887 0.65,-5.487 1.95,-7.8c1.3,-2.312 3.067,-4.154 5.308,-5.525c2.275,-1.371 4.8,-2.058 7.583,-2.058c2.237,0 4.225,0.45 5.958,1.354c1.767,0.867 3.158,2.096 4.171,3.683l-1.083,1.463l0,-17.388l7.096,0l0,41.004l-6.717,0l0,-5.688l0.758,1.408c-1.012,1.587 -2.421,2.817 -4.225,3.683c-1.808,0.829 -3.775,1.246 -5.904,1.246Zm0.758,-6.5c1.625,0 3.05,-0.379 4.279,-1.138c1.225,-0.758 2.183,-1.804 2.871,-3.142c0.721,-1.338 1.083,-2.871 1.083,-4.604c0,-1.696 -0.362,-3.213 -1.083,-4.55c-0.688,-1.371 -1.646,-2.438 -2.871,-3.196c-1.229,-0.758 -2.654,-1.138 -4.279,-1.138c-1.592,0 -3.017,0.396 -4.279,1.192c-1.267,0.758 -2.258,1.804 -2.979,3.142c-0.687,1.3 -1.029,2.817 -1.029,4.55c0,1.733 0.342,3.267 1.029,4.604c0.721,1.337 1.713,2.383 2.979,3.142c1.262,0.758 2.687,1.138 4.279,1.138Zm21.929,5.85l0,-41.004l7.096,0l0,41.004l-7.096,0Zm27.621,0.65c-3.033,0 -5.688,-0.688 -7.962,-2.058c-2.275,-1.371 -4.042,-3.233 -5.308,-5.579c-1.263,-2.346 -1.896,-4.946 -1.896,-7.8c0,-2.963 0.633,-5.579 1.896,-7.854c1.3,-2.312 3.054,-4.133 5.254,-5.471c2.242,-1.337 4.733,-2.004 7.475,-2.004c2.312,0 4.333,0.379 6.067,1.138c1.771,0.758 3.271,1.804 4.496,3.142c1.229,1.338 2.167,2.871 2.817,4.604c0.65,1.696 0.975,3.537 0.975,5.525c0,0.504 -0.033,1.029 -0.108,1.571c-0.033,0.542 -0.125,1.013 -0.271,1.408l-22.75,0l0,-5.417l18.742,0l-3.358,2.546c0.325,-1.662 0.238,-3.142 -0.271,-4.442c-0.467,-1.3 -1.263,-2.329 -2.383,-3.087c-1.083,-0.758 -2.4,-1.138 -3.954,-1.138c-1.479,0 -2.796,0.379 -3.954,1.138c-1.154,0.721 -2.037,1.804 -2.654,3.25c-0.575,1.408 -0.792,3.125 -0.65,5.146c-0.142,1.804 0.092,3.413 0.704,4.821c0.65,1.371 1.592,2.438 2.817,3.196c1.267,0.758 2.708,1.138 4.333,1.138c1.625,0 3,-0.342 4.117,-1.029c1.158,-0.687 2.058,-1.608 2.708,-2.763l5.742,2.817c-0.575,1.408 -1.479,2.654 -2.708,3.737c-1.225,1.083 -2.687,1.933 -4.388,2.546c-1.658,0.612 -3.5,0.921 -5.525,0.921Zm29.417,-0.65l0,-40.354l26.813,0l0,6.5l-19.446,0l0,10.346l18.362,0l0,6.5l-18.362,0l0,10.508l19.446,0l0,6.5l-26.813,0Zm40.554,0.65c-2.058,0 -3.846,-0.342 -5.362,-1.029c-1.517,-0.688 -2.688,-1.663 -3.521,-2.925c-0.829,-1.3 -1.246,-2.8 -1.246,-4.496c0,-1.625 0.363,-3.071 1.083,-4.333c0.725,-1.3 1.842,-2.383 3.358,-3.25c1.517,-0.867 3.433,-1.479 5.742,-1.842l9.642,-1.571l0,5.417l-8.287,1.408c-1.408,0.254 -2.454,0.704 -3.142,1.354c-0.683,0.65 -1.029,1.5 -1.029,2.546c0,1.013 0.379,1.825 1.137,2.438c0.796,0.579 1.771,0.867 2.925,0.867c1.483,0 2.783,-0.308 3.9,-0.921c1.158,-0.65 2.042,-1.533 2.654,-2.654c0.65,-1.121 0.975,-2.346 0.975,-3.683l0,-7.583c0,-1.263 -0.504,-2.312 -1.517,-3.142c-0.975,-0.867 -2.275,-1.3 -3.9,-1.3c-1.517,0 -2.871,0.417 -4.062,1.246c-1.154,0.796 -2.004,1.858 -2.546,3.196l-5.796,-2.817c0.579,-1.554 1.483,-2.888 2.708,-4.008c1.267,-1.154 2.746,-2.058 4.442,-2.708c1.7,-0.65 3.542,-0.975 5.525,-0.975c2.421,0 4.55,0.45 6.392,1.354c1.842,0.867 3.271,2.096 4.279,3.683c1.05,1.554 1.571,3.375 1.571,5.471l0,19.608l-6.717,0l0,-5.037l1.517,-0.108c-0.758,1.262 -1.658,2.329 -2.708,3.196c-1.046,0.829 -2.238,1.479 -3.575,1.95c-1.333,0.433 -2.817,0.65 -4.442,0.65Zm33.696,0c-3.142,0 -5.883,-0.742 -8.233,-2.221c-2.308,-1.517 -3.9,-3.558 -4.767,-6.121l5.308,-2.546c0.758,1.662 1.808,2.963 3.142,3.9c1.375,0.938 2.892,1.408 4.55,1.408c1.3,0 2.329,-0.288 3.087,-0.867c0.758,-0.579 1.138,-1.337 1.138,-2.275c0,-0.579 -0.162,-1.046 -0.488,-1.408c-0.287,-0.396 -0.704,-0.721 -1.246,-0.975c-0.504,-0.287 -1.062,-0.525 -1.679,-0.704l-4.821,-1.354c-2.492,-0.721 -4.387,-1.825 -5.688,-3.304c-1.262,-1.479 -1.896,-3.233 -1.896,-5.254c0,-1.804 0.454,-3.375 1.354,-4.712c0.942,-1.371 2.221,-2.438 3.846,-3.196c1.662,-0.758 3.558,-1.138 5.688,-1.138c2.783,0 5.238,0.667 7.367,2.004c2.133,1.338 3.65,3.213 4.55,5.633l-5.417,2.546c-0.504,-1.338 -1.354,-2.4 -2.546,-3.196c-1.192,-0.796 -2.525,-1.192 -4.008,-1.192c-1.192,0 -2.129,0.271 -2.817,0.812c-0.683,0.542 -1.029,1.246 -1.029,2.112c0,0.542 0.146,1.013 0.433,1.408c0.292,0.396 0.688,0.721 1.192,0.975c0.542,0.254 1.158,0.487 1.842,0.704l4.713,1.408c2.421,0.721 4.279,1.804 5.579,3.25c1.338,1.446 2.004,3.213 2.004,5.308c0,1.771 -0.467,3.342 -1.408,4.713c-0.938,1.337 -2.238,2.383 -3.9,3.142c-1.658,0.758 -3.608,1.138 -5.85,1.138Zm30.046,-0.325c-3.321,0 -5.904,-0.904 -7.746,-2.708c-1.804,-1.842 -2.708,-4.425 -2.708,-7.746l0,-13l-5.092,0l0,-6.338l0.542,0c1.446,0 2.562,-0.379 3.358,-1.138c0.796,-0.758 1.192,-1.858 1.192,-3.304l0,-2.275l7.096,0l0,6.717l6.771,0l0,6.338l-6.771,0l0,12.621c0,0.975 0.162,1.804 0.488,2.492c0.362,0.688 0.904,1.208 1.625,1.571c0.758,0.363 1.717,0.542 2.871,0.542c0.254,0 0.542,-0.017 0.867,-0.054c0.363,-0.038 0.704,-0.071 1.029,-0.108l0,6.067c-0.504,0.071 -1.083,0.146 -1.733,0.217c-0.65,0.071 -1.246,0.108 -1.787,0.108Zm26.696,-0.325l-10.833,-40.354l7.908,0l8.504,34.396l-2.058,0l8.883,-34.396l7.638,0l8.829,34.396l-2.058,0l8.504,-34.396l7.908,0l-10.833,40.354l-8.45,0l-8.938,-33.475l2.383,0l-8.938,33.475l-8.45,0Zm46.292,0l0,-7.583l7.15,0l0,7.583l-7.15,0Zm21.875,0l0,-40.354l7.367,0l0,33.854l17.279,0l0,6.5l-24.646,0Zm82.171,0l0,-7.583l7.15,0l0,7.583l-7.15,0Zm-32.292,0l0,-40.354l7.367,0l0,33.854l17.279,0l0,6.5l-24.646,0Z" style="fill:#fff;fill-rule:nonzero;"/></g><g><rect x="996.875" y="250" width="6.25" height="250" style="fill:#031d45;fill-opacity:0.22;"/></g><g><path d="M1032.333,391.667l0,-26.875l-5.958,0l0,-4.167l10.833,0l0,31.042l-4.875,0Zm23.942,0.5c-2.471,0 -4.638,-0.667 -6.5,-2c-1.863,-1.363 -3.321,-3.237 -4.375,-5.625c-1.029,-2.417 -1.542,-5.221 -1.542,-8.417c0,-3.221 0.512,-6.029 1.542,-8.417c1.054,-2.387 2.5,-4.25 4.333,-5.583c1.862,-1.333 4.029,-2 6.5,-2c2.471,0 4.625,0.667 6.458,2c1.862,1.333 3.304,3.208 4.333,5.625c1.054,2.388 1.583,5.179 1.583,8.375c0,3.196 -0.513,6 -1.542,8.417c-1.029,2.388 -2.471,4.262 -4.333,5.625c-1.833,1.333 -3.987,2 -6.458,2Zm0,-4.5c1.529,0 2.846,-0.471 3.958,-1.417c1.112,-0.946 1.971,-2.279 2.583,-4c0.612,-1.721 0.917,-3.763 0.917,-6.125c0,-2.363 -0.304,-4.404 -0.917,-6.125c-0.613,-1.721 -1.471,-3.054 -2.583,-4c-1.112,-0.946 -2.446,-1.417 -4,-1.417c-1.529,0 -2.846,0.471 -3.958,1.417c-1.112,0.946 -1.971,2.279 -2.583,4c-0.613,1.721 -0.917,3.762 -0.917,6.125c0,2.333 0.304,4.375 0.917,6.125c0.612,1.721 1.471,3.054 2.583,4c1.138,0.946 2.471,1.417 4,1.417Zm29.825,4.5c-2.471,0 -4.638,-0.667 -6.5,-2c-1.858,-1.363 -3.317,-3.237 -4.375,-5.625c-1.025,-2.417 -1.542,-5.221 -1.542,-8.417c0,-3.221 0.517,-6.029 1.542,-8.417c1.058,-2.387 2.5,-4.25 4.333,-5.583c1.862,-1.333 4.029,-2 6.5,-2c2.475,0 4.625,0.667 6.458,2c1.862,1.333 3.308,3.208 4.333,5.625c1.058,2.388 1.583,5.179 1.583,8.375c0,3.196 -0.513,6 -1.542,8.417c-1.025,2.388 -2.471,4.262 -4.333,5.625c-1.833,1.333 -3.983,2 -6.458,2Zm0,-4.5c1.529,0 2.85,-0.471 3.958,-1.417c1.112,-0.946 1.975,-2.279 2.583,-4c0.612,-1.721 0.917,-3.763 0.917,-6.125c0,-2.363 -0.304,-4.404 -0.917,-6.125c-0.608,-1.721 -1.471,-3.054 -2.583,-4c-1.108,-0.946 -2.442,-1.417 -4,-1.417c-1.525,0 -2.846,0.471 -3.958,1.417c-1.108,0.946 -1.971,2.279 -2.583,4c-0.608,1.721 -0.917,3.762 -0.917,6.125c0,2.333 0.308,4.375 0.917,6.125c0.612,1.721 1.475,3.054 2.583,4c1.142,0.946 2.475,1.417 4,1.417Zm21.033,4l25.25,-31.042l5.25,0l-25.25,31.042l-5.25,0Zm4.75,-15.292c-1.525,0 -2.9,-0.363 -4.125,-1.083c-1.221,-0.75 -2.208,-1.738 -2.958,-2.958c-0.721,-1.221 -1.083,-2.583 -1.083,-4.083c0,-1.5 0.362,-2.863 1.083,-4.083c0.75,-1.25 1.738,-2.237 2.958,-2.958c1.225,-0.721 2.6,-1.083 4.125,-1.083c1.529,0 2.904,0.362 4.125,1.083c1.225,0.721 2.196,1.708 2.917,2.958c0.725,1.221 1.083,2.583 1.083,4.083c0,1.5 -0.358,2.862 -1.083,4.083c-0.721,1.221 -1.692,2.208 -2.917,2.958c-1.221,0.721 -2.596,1.083 -4.125,1.083Zm0,-3.792c0.863,0 1.6,-0.208 2.208,-0.625c0.642,-0.417 1.125,-0.958 1.458,-1.625c0.333,-0.667 0.5,-1.362 0.5,-2.083c0,-0.75 -0.167,-1.446 -0.5,-2.083c-0.333,-0.667 -0.817,-1.208 -1.458,-1.625c-0.608,-0.417 -1.346,-0.625 -2.208,-0.625c-0.833,0 -1.567,0.208 -2.208,0.625c-0.638,0.417 -1.138,0.958 -1.5,1.625c-0.333,0.637 -0.5,1.333 -0.5,2.083c0,0.721 0.167,1.417 0.5,2.083c0.362,0.667 0.862,1.208 1.5,1.625c0.642,0.417 1.375,0.625 2.208,0.625Zm20.792,19.583c-1.525,0 -2.917,-0.363 -4.167,-1.083c-1.221,-0.75 -2.192,-1.738 -2.917,-2.958c-0.721,-1.221 -1.083,-2.583 -1.083,-4.083c0,-1.5 0.362,-2.862 1.083,-4.083c0.725,-1.25 1.696,-2.237 2.917,-2.958c1.25,-0.721 2.642,-1.083 4.167,-1.083c1.529,0 2.904,0.362 4.125,1.083c1.225,0.721 2.196,1.708 2.917,2.958c0.725,1.221 1.083,2.583 1.083,4.083c0,1.5 -0.358,2.862 -1.083,4.083c-0.721,1.221 -1.692,2.208 -2.917,2.958c-1.221,0.721 -2.596,1.083 -4.125,1.083Zm0,-3.792c0.863,0 1.6,-0.208 2.208,-0.625c0.612,-0.417 1.083,-0.958 1.417,-1.625c0.362,-0.667 0.542,-1.362 0.542,-2.083c0,-0.75 -0.179,-1.446 -0.542,-2.083c-0.333,-0.667 -0.804,-1.208 -1.417,-1.625c-0.608,-0.417 -1.346,-0.625 -2.208,-0.625c-0.833,0 -1.567,0.208 -2.208,0.625c-0.638,0.417 -1.138,0.958 -1.5,1.625c-0.333,0.638 -0.5,1.333 -0.5,2.083c0,0.721 0.167,1.417 0.5,2.083c0.362,0.667 0.862,1.208 1.5,1.625c0.642,0.417 1.375,0.625 2.208,0.625Z" style="fill:#00c1e6;fill-rule:nonzero;"/></g><g><rect x="996.875" y="750" width="6.25" height="166.667" style="fill:#031d45;fill-opacity:0.22;"/></g><g><rect x="458.333" y="916.667" width="1083.333" height="6.25" style="fill:#031d45;fill-opacity:0.22;"/></g><g><rect x="455.208" y="916.667" width="6.25" height="250" style="fill:#031d45;fill-opacity:0.22;"/></g><g><rect x="1538.542" y="916.667" width="6.25" height="250" style="fill:#031d45;fill-opacity:0.22;"/></g><g><path d="M344.792,1058.333l13.25,-26.875l-14.917,0l0,-4.167l20.042,0l0,4.167l-13.042,26.875l-5.333,0Zm31.592,0.5c-1.642,0 -3.183,-0.292 -4.625,-0.875c-1.446,-0.613 -2.696,-1.458 -3.75,-2.542c-1.058,-1.083 -1.808,-2.388 -2.25,-3.917l4.125,-1.583c0.525,1.471 1.388,2.596 2.583,3.375c1.192,0.779 2.5,1.167 3.917,1.167c1.167,0 2.192,-0.262 3.083,-0.792c0.888,-0.529 1.583,-1.25 2.083,-2.167c0.525,-0.917 0.792,-1.958 0.792,-3.125c0,-1.196 -0.267,-2.238 -0.792,-3.125c-0.5,-0.917 -1.196,-1.625 -2.083,-2.125c-0.892,-0.529 -1.917,-0.792 -3.083,-0.792c-1.167,0 -2.237,0.262 -3.208,0.792c-0.975,0.529 -1.683,1.237 -2.125,2.125l-3.958,-0.875l2.417,-17.083l16.542,0l0,4.167l-14.625,0l1.875,-2.042l-1.792,13.083l-1.542,-1.042c0.833,-1.167 1.846,-2.013 3.042,-2.542c1.192,-0.529 2.554,-0.792 4.083,-0.792c2.025,0 3.792,0.458 5.292,1.375c1.525,0.888 2.708,2.113 3.542,3.667c0.858,1.529 1.292,3.262 1.292,5.208c0,1.971 -0.475,3.75 -1.417,5.333c-0.946,1.583 -2.237,2.833 -3.875,3.75c-1.612,0.917 -3.458,1.375 -5.542,1.375Zm19.342,-0.5l25.25,-31.042l5.25,0l-25.25,31.042l-5.25,0Zm4.75,-15.292c-1.529,0 -2.904,-0.362 -4.125,-1.083c-1.221,-0.75 -2.208,-1.737 -2.958,-2.958c-0.721,-1.221 -1.083,-2.583 -1.083,-4.083c0,-1.5 0.363,-2.863 1.083,-4.083c0.75,-1.25 1.738,-2.237 2.958,-2.958c1.221,-0.721 2.596,-1.083 4.125,-1.083c1.529,0 2.904,0.362 4.125,1.083c1.221,0.721 2.196,1.708 2.917,2.958c0.721,1.221 1.083,2.583 1.083,4.083c0,1.5 -0.362,2.862 -1.083,4.083c-0.721,1.221 -1.696,2.208 -2.917,2.958c-1.221,0.721 -2.596,1.083 -4.125,1.083Zm0,-3.792c0.862,0 1.596,-0.208 2.208,-0.625c0.638,-0.417 1.125,-0.958 1.458,-1.625c0.333,-0.667 0.5,-1.362 0.5,-2.083c0,-0.75 -0.167,-1.446 -0.5,-2.083c-0.333,-0.667 -0.821,-1.208 -1.458,-1.625c-0.612,-0.417 -1.346,-0.625 -2.208,-0.625c-0.833,0 -1.571,0.208 -2.208,0.625c-0.637,0.417 -1.138,0.958 -1.5,1.625c-0.333,0.638 -0.5,1.333 -0.5,2.083c0,0.721 0.167,1.417 0.5,2.083c0.363,0.667 0.863,1.208 1.5,1.625c0.637,0.417 1.375,0.625 2.208,0.625Zm20.792,19.583c-1.529,0 -2.917,-0.362 -4.167,-1.083c-1.221,-0.75 -2.196,-1.737 -2.917,-2.958c-0.721,-1.221 -1.083,-2.583 -1.083,-4.083c0,-1.5 0.362,-2.863 1.083,-4.083c0.721,-1.25 1.696,-2.237 2.917,-2.958c1.25,-0.721 2.637,-1.083 4.167,-1.083c1.529,0 2.904,0.362 4.125,1.083c1.221,0.721 2.196,1.708 2.917,2.958c0.721,1.221 1.083,2.583 1.083,4.083c0,1.5 -0.362,2.862 -1.083,4.083c-0.721,1.221 -1.696,2.208 -2.917,2.958c-1.221,0.721 -2.596,1.083 -4.125,1.083Zm0,-3.792c0.862,0 1.596,-0.208 2.208,-0.625c0.613,-0.417 1.083,-0.958 1.417,-1.625c0.363,-0.667 0.542,-1.362 0.542,-2.083c0,-0.75 -0.179,-1.446 -0.542,-2.083c-0.333,-0.667 -0.804,-1.208 -1.417,-1.625c-0.612,-0.417 -1.346,-0.625 -2.208,-0.625c-0.833,0 -1.571,0.208 -2.208,0.625c-0.638,0.417 -1.138,0.958 -1.5,1.625c-0.333,0.637 -0.5,1.333 -0.5,2.083c0,0.721 0.167,1.417 0.5,2.083c0.362,0.667 0.862,1.208 1.5,1.625c0.638,0.417 1.375,0.625 2.208,0.625Z" style="fill:#00c1e6;fill-rule:nonzero;"/></g><g><path d="M1574,1058.333l0,-26.875l-5.958,0l0,-4.167l10.833,0l0,31.042l-4.875,0Zm23.942,0.5c-2.471,0 -4.637,-0.667 -6.5,-2c-1.863,-1.362 -3.321,-3.237 -4.375,-5.625c-1.029,-2.417 -1.542,-5.221 -1.542,-8.417c0,-3.221 0.513,-6.029 1.542,-8.417c1.054,-2.387 2.5,-4.25 4.333,-5.583c1.863,-1.333 4.029,-2 6.5,-2c2.471,0 4.625,0.667 6.458,2c1.862,1.333 3.304,3.208 4.333,5.625c1.054,2.388 1.583,5.179 1.583,8.375c0,3.196 -0.512,6 -1.542,8.417c-1.029,2.387 -2.471,4.262 -4.333,5.625c-1.833,1.333 -3.988,2 -6.458,2Zm0,-4.5c1.529,0 2.846,-0.471 3.958,-1.417c1.113,-0.946 1.971,-2.279 2.583,-4c0.613,-1.721 0.917,-3.763 0.917,-6.125c0,-2.362 -0.304,-4.404 -0.917,-6.125c-0.613,-1.721 -1.471,-3.054 -2.583,-4c-1.112,-0.946 -2.446,-1.417 -4,-1.417c-1.529,0 -2.846,0.471 -3.958,1.417c-1.112,0.946 -1.971,2.279 -2.583,4c-0.613,1.721 -0.917,3.762 -0.917,6.125c0,2.333 0.304,4.375 0.917,6.125c0.612,1.721 1.471,3.054 2.583,4c1.138,0.946 2.471,1.417 4,1.417Zm29.825,4.5c-2.471,0 -4.638,-0.667 -6.5,-2c-1.858,-1.362 -3.317,-3.237 -4.375,-5.625c-1.025,-2.417 -1.542,-5.221 -1.542,-8.417c0,-3.221 0.517,-6.029 1.542,-8.417c1.058,-2.387 2.5,-4.25 4.333,-5.583c1.863,-1.333 4.029,-2 6.5,-2c2.475,0 4.625,0.667 6.458,2c1.862,1.333 3.308,3.208 4.333,5.625c1.058,2.388 1.583,5.179 1.583,8.375c0,3.196 -0.513,6 -1.542,8.417c-1.025,2.387 -2.471,4.262 -4.333,5.625c-1.833,1.333 -3.983,2 -6.458,2Zm0,-4.5c1.529,0 2.85,-0.471 3.958,-1.417c1.113,-0.946 1.975,-2.279 2.583,-4c0.612,-1.721 0.917,-3.763 0.917,-6.125c0,-2.362 -0.304,-4.404 -0.917,-6.125c-0.608,-1.721 -1.471,-3.054 -2.583,-4c-1.108,-0.946 -2.442,-1.417 -4,-1.417c-1.525,0 -2.846,0.471 -3.958,1.417c-1.108,0.946 -1.971,2.279 -2.583,4c-0.608,1.721 -0.917,3.762 -0.917,6.125c0,2.333 0.308,4.375 0.917,6.125c0.613,1.721 1.475,3.054 2.583,4c1.142,0.946 2.475,1.417 4,1.417Zm21.033,4l25.25,-31.042l5.25,0l-25.25,31.042l-5.25,0Zm4.75,-15.292c-1.525,0 -2.9,-0.362 -4.125,-1.083c-1.221,-0.75 -2.208,-1.737 -2.958,-2.958c-0.721,-1.221 -1.083,-2.583 -1.083,-4.083c0,-1.5 0.363,-2.863 1.083,-4.083c0.75,-1.25 1.737,-2.237 2.958,-2.958c1.225,-0.721 2.6,-1.083 4.125,-1.083c1.529,0 2.904,0.362 4.125,1.083c1.225,0.721 2.196,1.708 2.917,2.958c0.725,1.221 1.083,2.583 1.083,4.083c0,1.5 -0.358,2.862 -1.083,4.083c-0.721,1.221 -1.692,2.208 -2.917,2.958c-1.221,0.721 -2.596,1.083 -4.125,1.083Zm0,-3.792c0.862,0 1.6,-0.208 2.208,-0.625c0.642,-0.417 1.125,-0.958 1.458,-1.625c0.333,-0.667 0.5,-1.362 0.5,-2.083c0,-0.75 -0.167,-1.446 -0.5,-2.083c-0.333,-0.667 -0.817,-1.208 -1.458,-1.625c-0.608,-0.417 -1.346,-0.625 -2.208,-0.625c-0.833,0 -1.567,0.208 -2.208,0.625c-0.637,0.417 -1.137,0.958 -1.5,1.625c-0.333,0.638 -0.5,1.333 -0.5,2.083c0,0.721 0.167,1.417 0.5,2.083c0.363,0.667 0.863,1.208 1.5,1.625c0.642,0.417 1.375,0.625 2.208,0.625Zm20.792,19.583c-1.525,0 -2.917,-0.362 -4.167,-1.083c-1.221,-0.75 -2.192,-1.737 -2.917,-2.958c-0.721,-1.221 -1.083,-2.583 -1.083,-4.083c0,-1.5 0.363,-2.863 1.083,-4.083c0.725,-1.25 1.696,-2.237 2.917,-2.958c1.25,-0.721 2.642,-1.083 4.167,-1.083c1.529,0 2.904,0.362 4.125,1.083c1.225,0.721 2.196,1.708 2.917,2.958c0.725,1.221 1.083,2.583 1.083,4.083c0,1.5 -0.358,2.862 -1.083,4.083c-0.721,1.221 -1.692,2.208 -2.917,2.958c-1.221,0.721 -2.596,1.083 -4.125,1.083Zm0,-3.792c0.863,0 1.6,-0.208 2.208,-0.625c0.613,-0.417 1.083,-0.958 1.417,-1.625c0.363,-0.667 0.542,-1.362 0.542,-2.083c0,-0.75 -0.179,-1.446 -0.542,-2.083c-0.333,-0.667 -0.804,-1.208 -1.417,-1.625c-0.608,-0.417 -1.346,-0.625 -2.208,-0.625c-0.833,0 -1.567,0.208 -2.208,0.625c-0.638,0.417 -1.138,0.958 -1.5,1.625c-0.333,0.637 -0.5,1.333 -0.5,2.083c0,0.721 0.167,1.417 0.5,2.083c0.362,0.667 0.862,1.208 1.5,1.625c0.642,0.417 1.375,0.625 2.208,0.625Z" style="fill:#00c1e6;fill-rule:nonzero;"/></g></svg>