<svg version="1.1" id="Layer_1" xmlns="http://www.w3.org/2000/svg" xmlns:xlink="http://www.w3.org/1999/xlink" x="0px" y="0px"
	 width="100%" viewBox="0 0 721 500" enable-background="new 0 0 721 500" xml:space="preserve">
<path fill="#FEFEFE" opacity="1.000000" stroke="none" 
	d="
M722.000000,162.000000 
	C722.000000,274.980103 722.000000,387.960175 722.000000,500.970154 
	C481.728912,500.970154 241.457794,500.970154 1.093350,500.970154 
	C1.093350,334.424957 1.093350,167.849869 1.093350,1.137383 
	C241.333282,1.137383 481.666626,1.137383 722.000000,1.137383 
	C722.000000,45.423683 722.000000,89.749207 721.674194,134.393707 
	C717.835327,125.170677 707.874207,123.090408 699.668030,128.840012 
	C695.324646,127.868721 692.176575,127.164726 688.495728,126.341583 
	C688.495728,138.643753 688.495728,149.814392 688.495728,161.131393 
	C692.063049,161.131393 695.300476,161.131393 698.872070,161.131393 
	C698.872070,154.335587 698.835205,147.875763 698.883301,141.416565 
	C698.924072,135.943604 700.048218,134.982330 705.192444,134.834717 
	C709.839111,134.701355 711.299683,136.953690 711.184204,141.267868 
	C711.008240,147.839966 711.138184,154.420258 711.138184,161.078918 
	C715.163269,161.420242 718.581665,161.710129 722.000000,162.000000 
M178.167267,112.869217 
	C170.196075,115.235565 162.222672,117.594429 154.254196,119.969894 
	C140.477081,124.076958 133.968796,132.766922 133.964355,147.103348 
	C133.954971,177.414688 133.962067,207.726013 133.962311,238.037354 
	C133.962433,252.163849 133.962326,266.290344 133.962326,280.519623 
	C128.319183,282.049408 123.125641,283.457336 117.512772,284.978912 
	C117.512772,282.564392 117.512733,280.750763 117.512772,278.937134 
	C117.513695,240.964691 117.519165,202.992233 117.502777,165.019791 
	C117.501915,163.032974 117.315338,161.046204 117.253754,158.197693 
	C116.797974,158.016571 116.342194,157.835434 115.058380,157.675232 
	C110.677444,158.672699 106.288086,159.634781 101.917244,160.674683 
	C91.552048,163.140778 88.698006,166.743958 88.685707,177.376633 
	C88.642342,214.872162 88.543686,252.367935 88.676666,289.862854 
	C88.690269,293.697479 87.473274,295.303467 83.976326,296.629211 
	C56.643364,306.991486 30.724382,320.191376 6.183429,336.082672 
	C4.728201,337.024963 3.310294,338.024872 1.103062,339.521362 
	C8.175850,341.063690 14.199882,342.166779 20.108414,343.711639 
	C30.858391,346.522430 40.229057,344.313232 49.290356,337.821899 
	C73.995735,320.123535 100.093452,304.810242 128.511444,293.727386 
	C130.145401,293.090149 131.799927,292.505646 133.762222,291.779114 
	C133.762222,297.289856 133.539688,302.130096 133.833221,306.938843 
	C134.064667,310.730347 132.774811,312.855133 129.355392,314.760925 
	C100.799866,330.676056 75.183167,350.510010 52.026798,373.552246 
	C51.025536,374.548584 50.122044,375.643158 48.772709,377.134369 
	C58.408226,379.915314 67.513863,382.460541 76.568565,385.175629 
	C90.912880,389.476898 103.036537,386.102783 113.394371,375.293274 
	C137.113220,350.539978 162.747086,328.086212 192.362854,310.506012 
	C193.990021,309.540100 195.671143,308.665070 197.891525,307.435120 
	C197.891525,316.503357 198.039673,324.650238 197.768127,332.783081 
	C197.712952,334.435364 196.443069,336.468750 195.113297,337.593719 
	C174.668793,354.889282 156.363297,374.232025 140.177750,395.519226 
	C130.630981,408.075104 121.744484,421.132996 112.232582,434.424042 
	C114.342957,435.424896 115.465416,436.074371 116.665787,436.508301 
	C128.245972,440.694672 139.791000,444.985748 151.439911,448.972748 
	C169.611679,455.192230 188.272675,448.055908 197.855484,431.451050 
	C201.184021,425.683502 204.420059,419.859497 207.873337,414.167419 
	C229.484161,378.546295 255.310303,346.588013 288.647156,321.125458 
	C322.347137,295.385559 360.745361,280.796448 402.044739,272.987335 
	C404.013123,272.615143 405.914795,271.890137 407.847565,271.329437 
	C407.753021,270.732819 407.658478,270.136230 407.563934,269.539642 
	C382.655090,269.004944 357.783356,268.793243 333.030304,273.322327 
	C308.294800,277.848175 284.390717,285.034576 260.946075,295.555603 
	C260.946075,291.971252 261.280487,289.260742 260.871002,286.667664 
	C260.184143,282.317902 262.228333,280.856873 266.112823,280.138550 
	C278.059875,277.929230 289.967926,275.505920 301.874268,273.083008 
	C303.341888,272.784332 304.707550,271.984619 306.120453,271.417114 
	C305.978455,270.620026 305.836426,269.822937 305.694427,269.025848 
	C290.913300,269.644745 276.132141,270.263672 260.796326,270.905823 
	C260.796326,197.798874 260.796326,124.633469 260.796326,50.976543 
	C246.194427,56.178585 232.022064,60.579227 218.387833,66.269333 
	C205.057877,71.832451 197.923203,82.634270 197.886703,97.238815 
	C197.749725,152.066193 197.837036,206.894135 197.840256,261.721863 
	C197.840408,264.338837 197.840286,266.955780 197.840286,270.080841 
	C191.786713,270.357483 186.212021,270.612213 180.708160,270.341827 
	C180.655991,270.173096 180.603836,270.004333 180.766098,268.941284 
	C180.778458,218.337860 180.792328,167.734451 180.792191,117.131027 
	C180.792191,116.142052 180.627808,115.153084 180.545807,113.240189 
	C180.016296,113.110878 179.486801,112.981567 178.167267,112.869217 
M305.860413,96.330551 
	C306.681519,97.238266 307.491669,98.923088 308.325378,98.934807 
	C317.799316,99.067963 327.295227,99.287315 336.747406,98.779366 
	C343.855927,98.397354 347.398712,94.027298 347.733002,87.000992 
	C347.990967,81.579323 346.797119,76.923866 341.206665,74.517097 
	C345.879028,70.091476 346.840546,66.417259 345.319672,60.751835 
	C344.135712,56.341244 341.057312,53.524075 336.892059,53.346161 
	C326.677551,52.909843 316.431854,53.203568 305.856323,53.203568 
	C305.856323,67.473015 305.856323,81.414658 305.860413,96.330551 
M531.925842,84.220360 
	C531.184692,97.041054 545.338684,100.359482 556.356689,94.364395 
	C557.372681,101.023712 555.831604,103.038322 549.543274,103.174706 
	C546.879456,103.232483 544.213501,103.191803 541.548523,103.194008 
	C534.615601,103.199745 533.914856,104.044113 534.724609,111.719849 
	C541.659241,111.719849 548.645081,112.044151 555.586121,111.626091 
	C562.160339,111.230133 566.605896,107.761482 566.802673,102.254784 
	C567.246216,89.843224 566.941956,77.404938 566.941956,63.776295 
	C563.225708,64.795143 560.123657,65.645607 557.021545,66.496063 
	C555.174133,66.306175 552.938293,64.571815 550.498474,64.208778 
	C537.047058,62.207245 531.921387,66.770592 531.917358,80.297852 
	C531.917053,81.297226 531.918945,82.296593 531.925842,84.220360 
M693.956177,63.121979 
	C693.893188,64.343964 693.830200,65.565948 693.828186,65.605072 
	C689.099121,65.054779 684.833252,64.168289 680.564026,64.152184 
	C674.013489,64.127457 669.818115,67.919067 669.251526,74.394058 
	C668.818542,79.342056 668.889038,84.377174 669.240173,89.337830 
	C669.551025,93.729172 671.621155,97.602989 676.133057,98.820358 
	C682.471680,100.530579 688.935242,101.311150 693.064880,97.326447 
	C697.426575,98.171661 700.699036,98.805809 704.096680,99.464218 
	C704.096680,83.002319 704.096680,67.661789 704.096680,52.362072 
	C693.955872,51.645725 693.955811,51.645725 693.956177,61.222172 
	C693.956177,61.554764 693.956299,61.887352 693.956177,63.121979 
M433.815613,96.703217 
	C440.645294,101.385612 448.697144,101.201591 454.402130,97.224991 
	C458.781464,98.160225 461.956635,98.838295 465.518921,99.599037 
	C465.518921,83.192436 465.518921,67.828049 465.518921,52.080173 
	C463.548126,52.080173 461.886383,52.269878 460.283386,52.043438 
	C456.032593,51.442944 454.656555,53.258465 455.061127,57.352562 
	C455.362732,60.404629 455.120544,63.510426 455.120544,67.408066 
	C453.761658,66.422821 453.173492,65.904724 452.506012,65.526558 
	C445.511383,61.563622 433.900848,63.727642 431.876770,70.151482 
	C429.164185,78.760361 428.369263,87.734474 433.815613,96.703217 
M324.712555,181.131607 
	C318.372345,195.327240 312.032135,209.522858 305.625488,223.867203 
	C314.465179,225.520447 316.902405,225.013306 318.474823,220.352432 
	C319.725677,216.644791 321.745575,215.686249 325.428406,215.870575 
	C330.797119,216.139313 337.293976,217.847198 337.836761,208.317352 
	C339.741882,211.998962 340.922394,215.019348 342.114624,218.035110 
	C344.903687,225.089981 347.971649,226.356308 355.795929,223.476151 
	C349.793396,209.941498 343.821899,196.411957 337.791077,182.908920 
	C335.201935,177.111862 330.136627,176.165497 324.712555,181.131607 
M585.668152,189.584732 
	C585.979126,190.974762 586.113770,192.434311 586.629944,193.743439 
	C589.740967,201.633438 592.846008,209.528702 596.165649,217.331741 
	C597.155945,219.659393 598.829163,221.696472 600.919922,225.032150 
	C598.780579,225.983215 596.560181,227.682663 594.214172,227.878525 
	C587.413208,228.446335 586.565491,229.264893 587.673584,236.360657 
	C603.134338,238.036942 606.281128,236.246033 612.283447,222.476440 
	C616.536438,212.720062 620.846436,202.988541 625.102905,193.233643 
	C625.596863,192.101608 625.910583,190.890961 626.443665,189.315582 
	C624.754028,189.315582 623.574768,189.483475 622.459656,189.287109 
	C617.054932,188.335327 614.292725,190.713898 612.628479,195.828308 
	C610.664246,201.864822 607.907959,207.643661 605.375427,213.826172 
	C602.725891,206.821915 600.098450,200.201141 597.735535,193.487274 
	C596.618896,190.314453 594.758179,188.907150 591.409973,189.273651 
	C589.763184,189.453918 588.084106,189.339127 585.668152,189.584732 
M375.855194,160.675293 
	C380.848450,158.814636 383.111450,155.001266 383.271332,149.890472 
	C383.406586,145.566345 383.534088,141.212631 383.191711,136.909698 
	C382.662292,130.256134 378.892548,126.471489 372.350952,126.040329 
	C367.708282,125.734329 363.009064,125.727409 358.369843,126.064789 
	C352.160614,126.516365 348.474945,129.900558 347.843933,136.104614 
	C347.342194,141.037460 347.339569,146.099380 347.823517,151.034561 
	C348.442749,157.349609 351.737671,160.679947 358.182373,161.184555 
	C363.775085,161.622452 369.448425,161.030289 375.855194,160.675293 
M429.715973,216.439651 
	C429.715973,219.027267 429.715973,221.614868 429.715973,224.261383 
	C433.546204,224.261383 436.639221,224.261383 440.106140,224.261383 
	C440.106140,217.318283 439.885681,210.663284 440.241211,204.039200 
	C440.347168,202.065430 441.583435,199.195526 443.136688,198.429886 
	C448.478241,195.796829 452.659637,198.751999 452.742401,204.789322 
	C452.830627,211.227631 452.762238,217.668076 452.762238,224.300079 
	C456.471405,224.300079 459.564911,224.300079 462.896484,224.300079 
	C462.896484,215.419662 463.204315,206.785278 462.779449,198.187103 
	C462.529907,193.138031 459.230652,189.712143 453.993042,189.688477 
	C449.420319,189.667801 444.843109,190.644531 439.954163,191.217361 
	C439.954163,187.453049 439.954163,182.689255 439.954163,177.859161 
	C436.458496,177.859161 433.368103,177.859161 429.715790,177.859161 
	C429.715790,190.556488 429.715790,203.004929 429.715973,216.439651 
M681.777466,135.266617 
	C679.484497,128.444199 676.495911,126.120407 669.418823,125.915016 
	C665.593201,125.803993 661.751099,125.751381 657.933777,125.971886 
	C650.841125,126.381592 646.804504,130.156158 646.267517,137.187195 
	C645.926514,141.653000 645.927490,146.196213 646.328125,150.655014 
	C646.885071,156.853424 650.275208,160.487854 656.463806,161.123581 
	C661.554443,161.646545 666.784485,161.676987 671.871765,161.147308 
	C678.187927,160.489655 681.641602,156.476761 681.955872,150.104630 
	C682.185059,145.457352 681.942383,140.786819 681.777466,135.266617 
M609.985779,73.231857 
	C610.899658,74.543396 611.813599,75.854942 613.473938,78.237732 
	C607.186279,78.237732 602.693298,77.969765 598.245667,78.304253 
	C592.433899,78.741333 590.081909,81.726311 589.924683,88.002556 
	C589.730896,95.737228 591.692871,99.006836 597.738831,99.626122 
	C603.116272,100.176926 608.796997,100.979034 611.685974,97.281929 
	C615.992798,98.143921 619.231812,98.792206 622.917480,99.529884 
	C622.917480,90.452843 623.098267,82.641586 622.855469,74.843521 
	C622.686584,69.419083 619.731140,65.674957 614.455017,65.264854 
	C607.087219,64.692162 599.641663,65.120506 592.231384,65.120506 
	C592.006714,73.010376 592.105713,73.115898 599.574341,73.118500 
	C602.736206,73.119598 605.898132,73.129654 609.985779,73.231857 
M491.953888,224.566910 
	C501.863617,223.284119 504.929504,219.859634 504.983765,209.944534 
	C505.001984,206.616928 505.132294,203.273514 504.870361,199.964310 
	C504.356049,193.467758 500.515106,189.493942 494.033325,189.044464 
	C489.398621,188.723083 484.704590,188.739304 480.069427,189.065430 
	C473.406006,189.534271 469.497101,193.681839 469.146484,200.430237 
	C468.930908,204.579193 468.921234,208.759247 469.154358,212.906479 
	C469.524933,219.499252 473.055542,223.368118 479.615021,224.179810 
	C483.391205,224.647110 487.247559,224.466278 491.953888,224.566910 
M334.462860,115.271637 
	C329.318817,115.490501 324.127899,115.348717 319.041443,116.010361 
	C310.832794,117.078148 306.391144,122.131165 306.012268,130.475876 
	C305.771149,135.787476 305.758514,141.130707 306.032867,146.439621 
	C306.471771,154.932129 311.216431,160.024872 319.630157,160.945465 
	C324.243378,161.450211 328.926788,161.395966 333.579895,161.436005 
	C341.480194,161.504028 341.480652,161.451630 343.796387,152.510864 
	C337.011841,152.510864 330.382843,152.771835 323.785095,152.429779 
	C318.328339,152.146896 316.360657,149.854385 316.166809,144.531464 
	C316.021606,140.543655 316.020264,136.542007 316.166138,132.554260 
	C316.366699,127.070717 318.610138,124.640518 324.081787,124.244560 
	C328.222656,123.944916 332.395782,124.081696 336.554718,124.042885 
	C343.721588,123.976021 344.129578,123.519463 343.755096,115.271851 
	C341.012299,115.271851 338.226135,115.271851 334.462860,115.271637 
M392.476624,126.926048 
	C391.358734,127.929474 389.293640,128.910706 389.269501,129.939758 
	C389.028259,140.229828 389.122955,150.527771 389.122955,161.061859 
	C392.856018,161.061859 396.219330,161.061859 399.829834,161.061859 
	C399.829834,154.167603 399.956787,147.681091 399.785645,141.202484 
	C399.669556,136.808441 401.309143,134.847382 405.903534,134.847198 
	C410.418243,134.847031 412.246490,136.631348 412.135437,141.098755 
	C411.971039,147.712372 412.092926,154.333130 412.092926,161.011108 
	C415.904938,161.011108 419.251923,161.011108 422.774963,161.011108 
	C422.774963,153.231796 422.965027,145.909180 422.708984,138.602173 
	C422.534698,133.629028 421.368378,128.653214 415.742371,127.097832 
	C410.006897,125.512169 404.187531,125.155579 400.107025,129.293442 
	C397.529114,128.390137 395.437958,127.657379 392.476624,126.926048 
M356.711823,96.813446 
	C359.779602,97.828728 362.857971,99.685272 365.912476,99.646774 
	C369.748291,99.598434 373.564484,97.997795 376.068542,97.388420 
	C380.073090,98.208542 383.198181,98.848549 386.637695,99.552956 
	C386.637695,87.293114 386.637695,76.096550 386.637695,64.707184 
	C385.001556,64.631012 383.677063,64.678581 382.387115,64.489769 
	C377.627319,63.793087 375.773590,65.623451 376.199890,70.540604 
	C376.600800,75.164841 376.128754,79.857979 376.331879,84.508080 
	C376.530334,89.050873 374.996094,91.225060 370.069366,91.203522 
	C364.994568,91.181313 363.862671,88.612152 363.959381,84.272141 
	C364.102661,77.842728 363.996460,71.407753 363.996460,64.754280 
	C361.989044,64.654961 360.504181,64.697205 359.055420,64.488480 
	C354.383698,63.815430 352.880981,65.820900 353.244415,70.387215 
	C353.612915,75.016853 352.955505,79.737427 353.437744,84.345932 
	C353.858521,88.367073 355.240082,92.287682 356.711823,96.813446 
M519.978394,65.149033 
	C513.602722,63.429489 507.347412,62.594055 503.420258,66.504837 
	C499.106720,65.497086 496.000580,64.771416 492.441315,63.939892 
	C492.441315,76.384491 492.441315,87.578781 492.441315,98.858543 
	C495.905304,98.858543 499.016663,98.858543 502.735382,98.858543 
	C502.735382,92.224113 502.848053,85.780487 502.696533,79.343079 
	C502.591919,74.898903 503.978699,72.576935 508.950531,72.585533 
	C513.974792,72.594231 515.229431,75.019012 515.119385,79.423866 
	C514.958740,85.850372 515.078064,92.283875 515.078064,98.682892 
	C518.945312,98.682892 522.153809,98.682892 525.594299,98.682892 
	C525.594299,90.504761 526.067749,82.667542 525.369019,74.936256 
	C525.075867,71.692841 522.300415,68.673759 519.978394,65.149033 
M524.475525,157.847290 
	C530.039917,163.741776 539.178345,163.950317 545.983337,158.158051 
	C547.880188,163.402466 551.894348,161.399902 555.544067,161.264786 
	C555.544067,149.734436 555.544067,138.514847 555.544067,126.990150 
	C553.875854,126.990150 552.536072,127.155014 551.250488,126.960724 
	C546.465454,126.237572 544.681274,128.085907 545.107727,132.977036 
	C545.511169,137.604721 545.236023,142.295654 545.183472,146.957916 
	C545.121826,152.433395 543.966614,153.472504 538.852295,153.538879 
	C534.267212,153.598373 532.735535,151.369781 532.867554,147.017868 
	C533.067444,140.428040 532.919800,133.827652 532.919800,126.996902 
	C529.864563,126.996902 527.518372,126.794403 525.235840,127.087311 
	C524.186279,127.221985 522.384521,128.365936 522.411499,128.987595 
	C522.819885,138.391724 523.475647,147.785095 524.475525,157.847290 
M381.498230,191.129486 
	C381.382294,197.439056 381.268555,203.748657 381.149750,210.058167 
	C381.048767,215.418610 379.837616,216.515579 374.736969,216.579575 
	C370.095795,216.637848 368.699890,214.306473 368.829315,210.007767 
	C369.027618,203.420624 368.881378,196.823090 368.881378,190.001480 
	C365.825714,190.001480 363.460938,189.740433 361.200806,190.113419 
	C360.098206,190.295380 358.329437,191.658127 358.328217,192.488556 
	C358.316223,200.623291 358.357086,208.776581 358.929626,216.886002 
	C359.221619,221.021561 362.017212,224.165115 366.209473,224.735138 
	C371.691833,225.480591 377.504272,226.496765 381.743530,221.025238 
	C384.128571,226.208160 387.980804,224.519043 391.603088,224.110992 
	C391.603088,212.734131 391.603088,201.640808 391.603088,189.915451 
	C388.253693,190.098984 385.174255,190.267731 381.498230,191.129486 
M428.853546,136.541946 
	C429.255676,143.166031 430.974182,145.277481 437.380493,146.981598 
	C440.114685,147.708893 442.899048,148.281860 445.573242,149.183990 
	C446.680084,149.557373 447.557800,150.610062 448.687805,151.466003 
	C447.779968,152.259689 447.548431,152.640549 447.303436,152.649399 
	C443.818298,152.775421 440.331665,152.909744 436.844788,152.927155 
	C428.654358,152.968063 428.654236,152.943085 428.704468,161.534866 
	C435.497711,161.534866 442.304565,161.674866 449.102875,161.493332 
	C455.232666,161.329666 458.356842,158.904663 458.978149,154.370926 
	C459.988922,146.995010 457.891327,143.472122 451.197144,141.502823 
	C448.005615,140.563919 444.740387,139.868103 441.571838,138.862671 
	C440.600891,138.554581 439.840088,137.584274 438.983032,136.917206 
	C439.155731,136.468948 439.328400,136.020691 439.501099,135.572433 
	C442.788361,135.572433 446.075623,135.573074 449.362885,135.572296 
	C457.128326,135.570480 457.128326,135.570206 457.589691,127.177963 
	C450.297485,127.177963 442.988312,126.779770 435.750122,127.324623 
	C431.280151,127.661102 428.829193,130.978683 428.853546,136.541946 
M643.126282,65.242500 
	C641.995422,66.130402 640.864624,67.018303 639.733765,67.906204 
	C639.776489,67.362747 639.819275,66.819283 639.862000,66.275826 
	C636.778015,65.602386 633.693970,64.928947 630.188782,64.163544 
	C630.188782,76.471848 630.188782,87.543106 630.188782,98.802109 
	C633.552185,98.802109 636.629517,98.802109 640.238647,98.802109 
	C640.238647,92.115143 640.298889,85.665527 640.217896,79.217682 
	C640.161926,74.757263 641.783020,72.537544 646.684998,72.556824 
	C651.710938,72.576599 653.000244,75.039040 652.921021,79.411522 
	C652.804443,85.844955 652.890930,92.282074 652.890930,98.763145 
	C656.624023,98.763145 659.704041,98.763145 663.018860,98.763145 
	C663.018860,90.190941 663.267517,81.889267 662.925537,73.611984 
	C662.720581,68.651794 659.868164,64.935043 654.714661,64.346573 
	C651.167175,63.941483 647.488464,64.686226 643.126282,65.242500 
M561.376465,210.212769 
	C561.794067,222.650192 568.975403,227.289673 582.809875,223.956558 
	C582.842590,219.450760 582.987732,215.168671 576.207886,215.738358 
	C574.961914,215.843033 572.487976,213.323837 572.303955,211.806732 
	C571.770874,207.413086 572.115234,202.913010 572.115234,198.541168 
	C581.981750,196.948181 581.981750,196.948181 581.502625,189.570389 
	C578.476318,189.376419 575.418823,189.180435 571.980225,188.960022 
	C571.980225,185.886993 571.980225,183.287613 571.980225,180.205124 
	C567.406738,182.323746 560.716125,180.509827 561.152039,188.379272 
	C561.164062,188.596146 560.742981,189.015091 560.491699,189.042343 
	C554.879211,189.650848 556.346558,193.946136 555.923218,197.488602 
	C557.809387,197.834137 559.518066,198.147141 561.376953,198.487671 
	C561.376953,202.299835 561.376953,205.791901 561.376465,210.212769 
M591.309998,153.965927 
	C586.431885,153.617462 581.558411,153.139130 576.674072,152.962921 
	C572.977905,152.829590 571.309570,151.189468 571.091370,147.486618 
	C570.426880,136.208298 570.955811,135.572235 582.188416,135.572235 
	C583.020020,135.572235 583.851685,135.572769 584.683289,135.572342 
	C592.197327,135.568466 592.590454,135.126678 591.987854,127.100830 
	C585.547852,127.100830 579.071228,126.820053 572.630371,127.179253 
	C566.097656,127.543571 562.207275,130.729477 561.522766,136.612473 
	C560.932861,141.681976 560.712341,147.017548 561.696716,151.963150 
	C562.283203,154.909500 564.972534,158.643250 567.651428,159.740402 
	C575.604248,162.997604 584.108826,161.478668 592.683044,161.252258 
	C592.300720,158.612686 592.017334,156.655853 591.309998,153.965927 
M613.835022,125.491478 
	C613.622192,122.928200 613.409424,120.364914 613.195862,117.792015 
	C603.627441,119.136604 603.214294,119.452621 602.518555,125.913330 
	C596.563538,126.031502 597.549744,130.547485 597.152588,134.615555 
	C599.100098,134.851776 600.832703,135.061935 602.931335,135.316498 
	C602.931335,140.584564 602.778442,145.565552 602.972046,150.533020 
	C603.189148,156.102783 605.833923,159.896454 610.728333,160.829147 
	C615.012756,161.645599 619.471558,161.547073 623.952576,161.859680 
	C624.241272,156.327560 624.269775,152.188324 617.509705,152.729248 
	C616.311890,152.825104 613.935913,150.257935 613.756042,148.726425 
	C613.240845,144.340576 613.574646,139.854980 613.574646,135.510574 
	C623.470398,134.024033 623.752563,133.727203 622.455627,126.464149 
	C619.854919,126.345955 617.212341,126.225853 613.835022,125.491478 
M487.912903,130.244827 
	C487.912903,129.025009 487.912903,127.805183 487.912903,126.497330 
	C484.439606,126.331696 481.552338,126.194008 478.679657,126.057014 
	C478.445801,122.850639 478.259674,120.298332 478.031982,117.176155 
	C473.347473,119.403610 466.531036,117.615356 467.750336,125.922737 
	C461.510895,126.157852 462.395538,130.544693 462.145569,134.600983 
	C464.125122,134.849197 465.846680,135.065063 467.829620,135.313705 
	C467.829620,138.147125 467.820862,140.618668 467.832031,143.090103 
	C467.843292,145.581665 467.766571,148.079697 467.918457,150.563263 
	C468.261078,156.164429 470.805969,159.915527 475.668335,160.819000 
	C479.957642,161.615982 484.406982,161.551575 488.807495,161.869080 
	C489.027985,153.882095 488.983551,154.101196 482.573639,152.801483 
	C480.998901,152.482193 478.825256,150.342743 478.642914,148.832825 
	C478.113495,144.449554 478.455261,139.961090 478.455261,135.804962 
	C481.630157,133.563370 487.267365,137.481995 487.912903,130.244827 
M405.436493,220.997437 
	C410.861267,226.078140 417.399811,224.337479 423.917114,224.697769 
	C423.775177,219.515472 424.006317,215.134033 417.220459,215.775436 
	C415.991577,215.891602 413.499054,213.664078 413.363892,212.337723 
	C412.885834,207.647186 413.177673,202.878189 413.177673,198.225418 
	C422.916443,197.521774 422.916443,197.521774 422.625977,189.553528 
	C419.588470,189.390717 416.522736,189.226379 413.089111,189.042343 
	C413.089111,187.306885 413.128967,186.004791 413.077728,184.706284 
	C413.027802,183.440063 412.884674,182.177521 412.781921,180.906769 
	C403.924286,181.870895 403.213623,182.400467 401.762817,189.013077 
	C396.037415,189.522766 397.253998,193.799469 397.013428,197.650497 
	C398.853851,197.870911 400.434540,198.060211 402.414673,198.297348 
	C402.414673,201.356277 402.117981,204.190292 402.481781,206.936859 
	C403.080414,211.456619 404.106750,215.919739 405.436493,220.997437 
M413.047913,62.536255 
	C413.047913,74.612587 413.047913,86.688919 413.047913,98.705276 
	C416.954346,98.705276 420.177887,98.705276 423.334137,98.705276 
	C423.334137,82.993301 423.334137,67.652100 423.334137,52.352360 
	C413.047791,51.575695 413.047760,51.575695 413.047913,61.054207 
	C413.047913,61.220516 413.047913,61.386822 413.047913,62.536255 
M521.878174,222.994141 
	C521.890808,216.834412 521.926270,210.674606 521.906921,204.514984 
	C521.896484,201.206055 523.112793,199.195862 526.743286,198.882202 
	C534.406494,198.220123 534.896729,197.513443 533.989014,188.502411 
	C529.606140,189.584396 525.388123,190.625687 521.576294,191.566696 
	C518.469421,190.921082 515.180908,190.237717 511.567871,189.486908 
	C511.567871,201.800232 511.567871,213.002365 511.567871,224.882263 
	C515.203979,224.511398 518.424438,224.182922 521.878174,222.994141 
M494.991516,160.013062 
	C498.257690,160.718887 501.523865,161.424713 505.572693,162.299667 
	C505.572693,154.550674 505.590790,148.108475 505.565491,141.666443 
	C505.551819,138.176620 506.724731,136.027069 510.695984,135.840195 
	C517.920044,135.500214 518.613525,134.438065 517.402832,125.533257 
	C513.096069,126.583115 508.909302,127.603722 505.027222,128.550049 
	C502.047150,127.935760 498.787628,127.263870 494.967865,126.476494 
	C494.967865,138.176025 494.967865,148.639664 494.991516,160.013062 
M539.977173,193.779755 
	C539.977173,203.887375 539.977173,213.994980 539.977173,224.182404 
	C543.763184,224.182404 546.981201,224.182404 550.275024,224.182404 
	C550.275024,212.691299 550.275024,201.589264 550.275024,190.014938 
	C548.039246,190.014938 545.987122,189.652496 544.151550,190.127350 
	C542.629333,190.521149 541.362305,191.901398 539.977173,193.779755 
M477.571533,64.674606 
	C476.314758,65.552849 473.987366,66.404701 473.964966,67.313377 
	C473.707977,77.740532 473.801239,88.176323 473.801239,98.644371 
	C477.563049,98.644371 480.760437,98.644371 483.806335,98.644371 
	C483.806335,87.156883 483.806335,76.072212 483.806335,64.674004 
	C481.824982,64.674004 480.180664,64.674004 477.571533,64.674606 
M395.681000,98.906586 
	C398.763611,98.906586 401.846252,98.906586 404.836182,98.906586 
	C404.836182,87.205811 404.836182,76.126556 404.836182,64.676231 
	C402.716217,64.676231 400.900177,64.817024 399.114227,64.645256 
	C395.951752,64.341080 394.655273,65.410606 394.739166,68.805779 
	C394.981567,78.616371 394.923279,88.434380 395.681000,98.906586 
M640.226196,136.528442 
	C640.226196,133.434265 640.226196,130.340073 640.226196,126.954651 
	C637.240234,126.954651 634.891541,126.683876 632.658875,127.075241 
	C631.628601,127.255844 630.052856,128.716873 630.036865,129.620682 
	C629.851868,140.040955 629.918823,150.465698 629.918823,161.060211 
	C633.544067,161.060211 636.614502,161.060211 640.226318,161.060211 
	C640.226318,153.050339 640.226318,145.284668 640.226196,136.528442 
M541.901001,184.489990 
	C544.663757,184.489990 547.426514,184.489990 550.287842,184.489990 
	C550.287842,181.402405 550.287842,178.986435 550.287842,176.543625 
	C546.784302,176.543625 543.579651,176.543625 539.523071,176.543625 
	C540.093018,179.490952 540.565552,181.934174 541.901001,184.489990 
M640.198059,114.709663 
	C637.033203,113.971954 633.868408,113.234245 630.183350,112.375275 
	C630.183350,116.080917 630.183350,118.439987 630.183350,120.895874 
	C633.644409,120.895874 636.810852,120.895874 640.231201,120.895874 
	C640.231201,118.903664 640.231201,117.277107 640.198059,114.709663 
M473.778168,53.588802 
	C473.778168,55.307434 473.778168,57.026066 473.778168,58.714684 
	C477.635071,58.714684 480.688507,58.714684 483.868011,58.714684 
	C483.868011,56.045265 483.868011,53.670105 483.868011,50.035950 
	C480.167053,50.999805 476.995270,51.825840 473.778168,53.588802 
M402.399292,50.848820 
	C400.004791,50.848820 397.610291,50.848820 395.159302,50.848820 
	C395.159302,53.978851 395.159302,56.331970 395.159302,58.744232 
	C398.577301,58.744232 401.628021,58.744232 406.016266,58.744232 
	C404.991791,55.725105 404.168182,53.297852 402.399292,50.848820 
z"/>
<path fill="#686C6F" opacity="1.000000" stroke="none" 
	d="
M722.000000,161.531357 
	C718.581665,161.710129 715.163269,161.420242 711.138184,161.078918 
	C711.138184,154.420258 711.008240,147.839966 711.184204,141.267868 
	C711.299683,136.953690 709.839111,134.701355 705.192444,134.834717 
	C700.048218,134.982330 698.924072,135.943604 698.883301,141.416565 
	C698.835205,147.875763 698.872070,154.335587 698.872070,161.131393 
	C695.300476,161.131393 692.063049,161.131393 688.495728,161.131393 
	C688.495728,149.814392 688.495728,138.643753 688.495728,126.341583 
	C692.176575,127.164726 695.324646,127.868721 699.668030,128.840012 
	C707.874207,123.090408 717.835327,125.170677 721.674194,134.856354 
	C722.000000,143.687561 722.000000,152.375137 722.000000,161.531357 
z"/>
<path fill="#EC1E28" opacity="1.000000" stroke="none" 
	d="
M180.637344,270.866943 
	C186.212021,270.612213 191.786713,270.357483 197.840286,270.080841 
	C197.840286,266.955780 197.840408,264.338837 197.840256,261.721863 
	C197.837036,206.894135 197.749725,152.066193 197.886703,97.238815 
	C197.923203,82.634270 205.057877,71.832451 218.387833,66.269333 
	C232.022064,60.579227 246.194427,56.178585 260.796326,50.976543 
	C260.796326,124.633469 260.796326,197.798874 260.796326,270.905823 
	C276.132141,270.263672 290.913300,269.644745 305.694427,269.025848 
	C305.836426,269.822937 305.978455,270.620026 306.120453,271.417114 
	C304.707550,271.984619 303.341888,272.784332 301.874268,273.083008 
	C289.967926,275.505920 278.059875,277.929230 266.112823,280.138550 
	C262.228333,280.856873 260.184143,282.317902 260.871002,286.667664 
	C261.280487,289.260742 260.946075,291.971252 260.946075,295.555603 
	C284.390717,285.034576 308.294800,277.848175 333.030304,273.322327 
	C357.783356,268.793243 382.655090,269.004944 407.563934,269.539642 
	C407.658478,270.136230 407.753021,270.732819 407.847565,271.329437 
	C405.914795,271.890137 404.013123,272.615143 402.044739,272.987335 
	C360.745361,280.796448 322.347137,295.385559 288.647156,321.125458 
	C255.310303,346.588013 229.484161,378.546295 207.873337,414.167419 
	C204.420059,419.859497 201.184021,425.683502 197.855484,431.451050 
	C188.272675,448.055908 169.611679,455.192230 151.439911,448.972748 
	C139.791000,444.985748 128.245972,440.694672 116.665787,436.508301 
	C115.465416,436.074371 114.342957,435.424896 112.232582,434.424042 
	C121.744484,421.132996 130.630981,408.075104 140.177750,395.519226 
	C156.363297,374.232025 174.668793,354.889282 195.113297,337.593719 
	C196.443069,336.468750 197.712952,334.435364 197.768127,332.783081 
	C198.039673,324.650238 197.891525,316.503357 197.891525,307.435120 
	C195.671143,308.665070 193.990021,309.540100 192.362854,310.506012 
	C162.747086,328.086212 137.113220,350.539978 113.394371,375.293274 
	C103.036537,386.102783 90.912880,389.476898 76.568565,385.175629 
	C67.513863,382.460541 58.408226,379.915314 48.772709,377.134369 
	C50.122044,375.643158 51.025536,374.548584 52.026798,373.552246 
	C75.183167,350.510010 100.799866,330.676056 129.355392,314.760925 
	C132.774811,312.855133 134.064667,310.730347 133.833221,306.938843 
	C133.539688,302.130096 133.762222,297.289856 133.762222,291.779114 
	C131.799927,292.505646 130.145401,293.090149 128.511444,293.727386 
	C100.093452,304.810242 73.995735,320.123535 49.290356,337.821899 
	C40.229057,344.313232 30.858391,346.522430 20.108414,343.711639 
	C14.199882,342.166779 8.175850,341.063690 1.103062,339.521362 
	C3.310294,338.024872 4.728201,337.024963 6.183429,336.082672 
	C30.724382,320.191376 56.643364,306.991486 83.976326,296.629211 
	C87.473274,295.303467 88.690269,293.697479 88.676666,289.862854 
	C88.543686,252.367935 88.642342,214.872162 88.685707,177.376633 
	C88.698006,166.743958 91.552048,163.140778 101.917244,160.674683 
	C106.288086,159.634781 110.677444,158.672699 115.614914,157.967529 
	C116.519371,158.526352 116.867294,158.792877 117.215225,159.059418 
	C117.315338,161.046204 117.501915,163.032974 117.502777,165.019791 
	C117.519165,202.992233 117.513695,240.964691 117.512772,278.937134 
	C117.512733,280.750763 117.512772,282.564392 117.512772,284.978912 
	C123.125641,283.457336 128.319183,282.049408 133.962326,280.519623 
	C133.962326,266.290344 133.962433,252.163849 133.962311,238.037354 
	C133.962067,207.726013 133.954971,177.414688 133.964355,147.103348 
	C133.968796,132.766922 140.477081,124.076958 154.254196,119.969894 
	C162.222672,117.594429 170.196075,115.235565 178.742905,113.164795 
	C179.725739,113.694954 180.132935,113.929535 180.540131,114.164108 
	C180.627808,115.153084 180.792191,116.142052 180.792191,117.131027 
	C180.792328,167.734451 180.778458,218.337860 180.416763,269.494568 
	C180.257401,270.320862 180.447372,270.593903 180.637344,270.866943 
M197.913177,282.983521 
	C197.913177,280.395782 197.913177,277.808075 197.913177,274.739349 
	C191.763992,275.979980 186.336502,277.074982 181.021240,278.147369 
	C181.021240,282.555328 181.021240,286.330109 181.021240,291.299347 
	C187.037689,288.639191 192.462952,286.240417 197.913177,282.983521 
z"/>
<path fill="#676B6E" opacity="1.000000" stroke="none" 
	d="
M305.858368,95.843430 
	C305.856323,81.414658 305.856323,67.473015 305.856323,53.203568 
	C316.431854,53.203568 326.677551,52.909843 336.892059,53.346161 
	C341.057312,53.524075 344.135712,56.341244 345.319672,60.751835 
	C346.840546,66.417259 345.879028,70.091476 341.206665,74.517097 
	C346.797119,76.923866 347.990967,81.579323 347.733002,87.000992 
	C347.398712,94.027298 343.855927,98.397354 336.747406,98.779366 
	C327.295227,99.287315 317.799316,99.067963 308.325378,98.934807 
	C307.491669,98.923088 306.681519,97.238266 305.858368,95.843430 
M329.364929,90.156944 
	C330.856995,90.132126 332.819305,90.690048 333.735138,89.951088 
	C335.252106,88.727028 336.965332,86.674080 336.977448,84.958931 
	C336.989532,83.247658 335.141174,80.155769 333.885712,80.037704 
	C328.189087,79.502007 322.413788,79.803185 316.585480,79.803185 
	C316.585480,83.518784 316.585480,86.702644 316.585480,90.157021 
	C320.787994,90.157021 324.593750,90.157021 329.364929,90.156944 
M326.433197,61.730366 
	C323.161163,61.730366 319.889099,61.730366 316.444153,61.730366 
	C316.444153,65.135971 316.444153,67.879868 316.444153,71.138290 
	C321.809570,71.138290 326.952911,71.442055 332.017029,70.942551 
	C333.430725,70.803116 335.441650,68.443665 335.735229,66.838608 
	C336.491364,62.704796 334.674194,61.743046 326.433197,61.730366 
z"/>
<path fill="#676B6E" opacity="1.000000" stroke="none" 
	d="
M531.922852,83.758163 
	C531.918945,82.296593 531.917053,81.297226 531.917358,80.297852 
	C531.921387,66.770592 537.047058,62.207245 550.498474,64.208778 
	C552.938293,64.571815 555.174133,66.306175 557.021545,66.496063 
	C560.123657,65.645607 563.225708,64.795143 566.941956,63.776295 
	C566.941956,77.404938 567.246216,89.843224 566.802673,102.254784 
	C566.605896,107.761482 562.160339,111.230133 555.586121,111.626091 
	C548.645081,112.044151 541.659241,111.719849 534.724609,111.719849 
	C533.914856,104.044113 534.615601,103.199745 541.548523,103.194008 
	C544.213501,103.191803 546.879456,103.232483 549.543274,103.174706 
	C555.831604,103.038322 557.372681,101.023712 556.356689,94.364395 
	C545.338684,100.359482 531.184692,97.041054 531.922852,83.758163 
M547.753113,72.747482 
	C542.664551,73.747894 540.984680,76.715553 542.566223,83.759377 
	C542.974731,85.578552 545.591797,88.108124 547.272034,88.169075 
	C550.218262,88.275955 554.639282,87.666183 555.945129,85.698875 
	C560.167908,79.337135 556.153931,72.842644 547.753113,72.747482 
z"/>
<path fill="#676B6E" opacity="1.000000" stroke="none" 
	d="
M693.956238,62.670959 
	C693.956299,61.887352 693.956177,61.554764 693.956177,61.222172 
	C693.955811,51.645725 693.955872,51.645725 704.096680,52.362072 
	C704.096680,67.661789 704.096680,83.002319 704.096680,99.464218 
	C700.699036,98.805809 697.426575,98.171661 693.064880,97.326447 
	C688.935242,101.311150 682.471680,100.530579 676.133057,98.820358 
	C671.621155,97.602989 669.551025,93.729172 669.240173,89.337830 
	C668.889038,84.377174 668.818542,79.342056 669.251526,74.394058 
	C669.818115,67.919067 674.013489,64.127457 680.564026,64.152184 
	C684.833252,64.168289 689.099121,65.054779 693.828186,65.605072 
	C693.830200,65.565948 693.893188,64.343964 693.956238,62.670959 
M687.377686,91.063698 
	C693.920776,90.491585 694.480957,89.432205 693.957214,78.620964 
	C693.713196,73.585312 692.531250,72.671730 686.363098,72.751556 
	C680.648865,72.825500 679.763733,73.709572 679.646484,79.460480 
	C679.427246,90.209808 679.698303,90.668686 687.377686,91.063698 
z"/>
<path fill="#696D70" opacity="1.000000" stroke="none" 
	d="
M433.552551,96.427513 
	C428.369263,87.734474 429.164185,78.760361 431.876770,70.151482 
	C433.900848,63.727642 445.511383,61.563622 452.506012,65.526558 
	C453.173492,65.904724 453.761658,66.422821 455.120544,67.408066 
	C455.120544,63.510426 455.362732,60.404629 455.061127,57.352562 
	C454.656555,53.258465 456.032593,51.442944 460.283386,52.043438 
	C461.886383,52.269878 463.548126,52.080173 465.518921,52.080173 
	C465.518921,67.828049 465.518921,83.192436 465.518921,99.599037 
	C461.956635,98.838295 458.781464,98.160225 454.402130,97.224991 
	C448.697144,101.201591 440.645294,101.385612 433.552551,96.427513 
M448.481689,91.055420 
	C455.186218,90.571625 455.327606,90.018631 455.196991,78.786209 
	C455.138458,73.751968 452.585205,72.627449 448.255951,72.727417 
	C442.158447,72.868248 441.069000,73.635345 440.890289,78.810783 
	C440.507324,89.903526 440.841644,90.512909 448.481689,91.055420 
z"/>
<path fill="#676B6E" opacity="1.000000" stroke="none" 
	d="
M324.870483,180.779236 
	C330.136627,176.165497 335.201935,177.111862 337.791077,182.908920 
	C343.821899,196.411957 349.793396,209.941498 355.795929,223.476151 
	C347.971649,226.356308 344.903687,225.089981 342.114624,218.035110 
	C340.922394,215.019348 339.741882,211.998962 337.836761,208.317352 
	C337.293976,217.847198 330.797119,216.139313 325.428406,215.870575 
	C321.745575,215.686249 319.725677,216.644791 318.474823,220.352432 
	C316.902405,225.013306 314.465179,225.520447 305.625488,223.867203 
	C312.032135,209.522858 318.372345,195.327240 324.870483,180.779236 
M336.029694,202.486023 
	C334.387848,198.412888 332.746002,194.339737 330.748901,189.385284 
	C328.143860,196.096146 325.954865,201.735260 323.656372,207.656464 
	C328.767426,207.656464 333.157440,207.656464 337.929016,207.656464 
	C337.297089,205.959885 336.787689,204.592285 336.029694,202.486023 
z"/>
<path fill="#696C6F" opacity="1.000000" stroke="none" 
	d="
M586.043945,189.471283 
	C588.084106,189.339127 589.763184,189.453918 591.409973,189.273651 
	C594.758179,188.907150 596.618896,190.314453 597.735535,193.487274 
	C600.098450,200.201141 602.725891,206.821915 605.375427,213.826172 
	C607.907959,207.643661 610.664246,201.864822 612.628479,195.828308 
	C614.292725,190.713898 617.054932,188.335327 622.459656,189.287109 
	C623.574768,189.483475 624.754028,189.315582 626.443665,189.315582 
	C625.910583,190.890961 625.596863,192.101608 625.102905,193.233643 
	C620.846436,202.988541 616.536438,212.720062 612.283447,222.476440 
	C606.281128,236.246033 603.134338,238.036942 587.673584,236.360657 
	C586.565491,229.264893 587.413208,228.446335 594.214172,227.878525 
	C596.560181,227.682663 598.780579,225.983215 600.919922,225.032150 
	C598.829163,221.696472 597.155945,219.659393 596.165649,217.331741 
	C592.846008,209.528702 589.740967,201.633438 586.629944,193.743439 
	C586.113770,192.434311 585.979126,190.974762 586.043945,189.471283 
z"/>
<path fill="#686C6E" opacity="1.000000" stroke="none" 
	d="
M375.470673,160.784332 
	C369.448425,161.030289 363.775085,161.622452 358.182373,161.184555 
	C351.737671,160.679947 348.442749,157.349609 347.823517,151.034561 
	C347.339569,146.099380 347.342194,141.037460 347.843933,136.104614 
	C348.474945,129.900558 352.160614,126.516365 358.369843,126.064789 
	C363.009064,125.727409 367.708282,125.734329 372.350952,126.040329 
	C378.892548,126.471489 382.662292,130.256134 383.191711,136.909698 
	C383.534088,141.212631 383.406586,145.566345 383.271332,149.890472 
	C383.111450,155.001266 380.848450,158.814636 375.470673,160.784332 
M357.773590,145.347778 
	C357.928253,152.005478 358.760284,152.848450 365.209625,152.881470 
	C372.437042,152.918472 373.180176,152.132248 373.188843,144.398819 
	C373.190887,142.576675 373.419739,140.702209 373.063812,138.949387 
	C372.794373,137.622650 371.863190,135.464508 371.049316,135.379868 
	C367.354797,134.995621 363.422577,134.585739 359.954620,135.548843 
	C358.688080,135.900604 358.435852,140.022385 357.799652,142.444931 
	C357.636810,143.065018 357.774139,143.763931 357.773590,145.347778 
z"/>
<path fill="#64686B" opacity="1.000000" stroke="none" 
	d="
M429.715881,215.946503 
	C429.715790,203.004929 429.715790,190.556488 429.715790,177.859161 
	C433.368103,177.859161 436.458496,177.859161 439.954163,177.859161 
	C439.954163,182.689255 439.954163,187.453049 439.954163,191.217361 
	C444.843109,190.644531 449.420319,189.667801 453.993042,189.688477 
	C459.230652,189.712143 462.529907,193.138031 462.779449,198.187103 
	C463.204315,206.785278 462.896484,215.419662 462.896484,224.300079 
	C459.564911,224.300079 456.471405,224.300079 452.762238,224.300079 
	C452.762238,217.668076 452.830627,211.227631 452.742401,204.789322 
	C452.659637,198.751999 448.478241,195.796829 443.136688,198.429886 
	C441.583435,199.195526 440.347168,202.065430 440.241211,204.039200 
	C439.885681,210.663284 440.106140,217.318283 440.106140,224.261383 
	C436.639221,224.261383 433.546204,224.261383 429.715973,224.261383 
	C429.715973,221.614868 429.715973,219.027267 429.715881,215.946503 
z"/>
<path fill="#676B6E" opacity="1.000000" stroke="none" 
	d="
M681.843750,135.696625 
	C681.942383,140.786819 682.185059,145.457352 681.955872,150.104630 
	C681.641602,156.476761 678.187927,160.489655 671.871765,161.147308 
	C666.784485,161.676987 661.554443,161.646545 656.463806,161.123581 
	C650.275208,160.487854 646.885071,156.853424 646.328125,150.655014 
	C645.927490,146.196213 645.926514,141.653000 646.267517,137.187195 
	C646.804504,130.156158 650.841125,126.381592 657.933777,125.971886 
	C661.751099,125.751381 665.593201,125.803993 669.418823,125.915016 
	C676.495911,126.120407 679.484497,128.444199 681.843750,135.696625 
M667.727356,134.557617 
	C664.487366,134.905869 658.979004,134.368958 658.432861,135.768448 
	C656.799072,139.955231 656.564514,144.951218 656.996704,149.516434 
	C657.122070,150.840973 661.275391,152.585968 663.673950,152.743820 
	C670.981750,153.224747 672.143677,151.981598 671.935913,144.611267 
	C671.836792,141.091888 673.696960,136.632843 667.727356,134.557617 
z"/>
<path fill="#676A6D" opacity="1.000000" stroke="none" 
	d="
M609.522888,73.183746 
	C605.898132,73.129654 602.736206,73.119598 599.574341,73.118500 
	C592.105713,73.115898 592.006714,73.010376 592.231384,65.120506 
	C599.641663,65.120506 607.087219,64.692162 614.455017,65.264854 
	C619.731140,65.674957 622.686584,69.419083 622.855469,74.843521 
	C623.098267,82.641586 622.917480,90.452843 622.917480,99.529884 
	C619.231812,98.792206 615.992798,98.143921 611.685974,97.281929 
	C608.796997,100.979034 603.116272,100.176926 597.738831,99.626122 
	C591.692871,99.006836 589.730896,95.737228 589.924683,88.002556 
	C590.081909,81.726311 592.433899,78.741333 598.245667,78.304253 
	C602.693298,77.969765 607.186279,78.237732 613.473938,78.237732 
	C611.813599,75.854942 610.899658,74.543396 609.522888,73.183746 
M600.338257,89.158279 
	C602.490662,93.628624 606.342102,91.926567 609.336487,91.029472 
	C610.943665,90.547974 611.897461,87.885773 613.146057,86.207596 
	C609.210632,85.074684 606.370667,84.732887 603.682373,85.222931 
	C602.392578,85.458038 601.389526,87.266243 600.338257,89.158279 
z"/>
<path fill="#666A6D" opacity="1.000000" stroke="none" 
	d="
M491.510864,224.572052 
	C487.247559,224.466278 483.391205,224.647110 479.615021,224.179810 
	C473.055542,223.368118 469.524933,219.499252 469.154358,212.906479 
	C468.921234,208.759247 468.930908,204.579193 469.146484,200.430237 
	C469.497101,193.681839 473.406006,189.534271 480.069427,189.065430 
	C484.704590,188.739304 489.398621,188.723083 494.033325,189.044464 
	C500.515106,189.493942 504.356049,193.467758 504.870361,199.964310 
	C505.132294,203.273514 505.001984,206.616928 504.983765,209.944534 
	C504.929504,219.859634 501.863617,223.284119 491.510864,224.572052 
M493.176636,214.757248 
	C493.603729,209.942352 494.602295,205.064468 494.082947,200.353943 
	C493.941284,199.069000 489.228394,197.489777 486.624756,197.510025 
	C484.251282,197.528473 480.127258,199.222000 479.864288,200.719727 
	C479.118103,204.969116 478.671722,210.239136 480.642517,213.636673 
	C481.835846,215.693893 487.736511,215.030685 491.527618,215.550598 
	C491.810822,215.589432 492.137268,215.312988 493.176636,214.757248 
z"/>
<path fill="#676A6D" opacity="1.000000" stroke="none" 
	d="
M334.951416,115.271744 
	C338.226135,115.271851 341.012299,115.271851 343.755096,115.271851 
	C344.129578,123.519463 343.721588,123.976021 336.554718,124.042885 
	C332.395782,124.081696 328.222656,123.944916 324.081787,124.244560 
	C318.610138,124.640518 316.366699,127.070717 316.166138,132.554260 
	C316.020264,136.542007 316.021606,140.543655 316.166809,144.531464 
	C316.360657,149.854385 318.328339,152.146896 323.785095,152.429779 
	C330.382843,152.771835 337.011841,152.510864 343.796387,152.510864 
	C341.480652,161.451630 341.480194,161.504028 333.579895,161.436005 
	C328.926788,161.395966 324.243378,161.450211 319.630157,160.945465 
	C311.216431,160.024872 306.471771,154.932129 306.032867,146.439621 
	C305.758514,141.130707 305.771149,135.787476 306.012268,130.475876 
	C306.391144,122.131165 310.832794,117.078148 319.041443,116.010361 
	C324.127899,115.348717 329.318817,115.490501 334.951416,115.271744 
z"/>
<path fill="#696D70" opacity="1.000000" stroke="none" 
	d="
M392.911713,126.925339 
	C395.437958,127.657379 397.529114,128.390137 400.107025,129.293442 
	C404.187531,125.155579 410.006897,125.512169 415.742371,127.097832 
	C421.368378,128.653214 422.534698,133.629028 422.708984,138.602173 
	C422.965027,145.909180 422.774963,153.231796 422.774963,161.011108 
	C419.251923,161.011108 415.904938,161.011108 412.092926,161.011108 
	C412.092926,154.333130 411.971039,147.712372 412.135437,141.098755 
	C412.246490,136.631348 410.418243,134.847031 405.903534,134.847198 
	C401.309143,134.847382 399.669556,136.808441 399.785645,141.202484 
	C399.956787,147.681091 399.829834,154.167603 399.829834,161.061859 
	C396.219330,161.061859 392.856018,161.061859 389.122955,161.061859 
	C389.122955,150.527771 389.028259,140.229828 389.269501,129.939758 
	C389.293640,128.910706 391.358734,127.929474 392.911713,126.925339 
z"/>
<path fill="#696D70" opacity="1.000000" stroke="none" 
	d="
M356.454468,96.533073 
	C355.240082,92.287682 353.858521,88.367073 353.437744,84.345932 
	C352.955505,79.737427 353.612915,75.016853 353.244415,70.387215 
	C352.880981,65.820900 354.383698,63.815430 359.055420,64.488480 
	C360.504181,64.697205 361.989044,64.654961 363.996460,64.754280 
	C363.996460,71.407753 364.102661,77.842728 363.959381,84.272141 
	C363.862671,88.612152 364.994568,91.181313 370.069366,91.203522 
	C374.996094,91.225060 376.530334,89.050873 376.331879,84.508080 
	C376.128754,79.857979 376.600800,75.164841 376.199890,70.540604 
	C375.773590,65.623451 377.627319,63.793087 382.387115,64.489769 
	C383.677063,64.678581 385.001556,64.631012 386.637695,64.707184 
	C386.637695,76.096550 386.637695,87.293114 386.637695,99.552956 
	C383.198181,98.848549 380.073090,98.208542 376.068542,97.388420 
	C373.564484,97.997795 369.748291,99.598434 365.912476,99.646774 
	C362.857971,99.685272 359.779602,97.828728 356.454468,96.533073 
z"/>
<path fill="#6A6E71" opacity="1.000000" stroke="none" 
	d="
M520.315918,65.350861 
	C522.300415,68.673759 525.075867,71.692841 525.369019,74.936256 
	C526.067749,82.667542 525.594299,90.504761 525.594299,98.682892 
	C522.153809,98.682892 518.945312,98.682892 515.078064,98.682892 
	C515.078064,92.283875 514.958740,85.850372 515.119385,79.423866 
	C515.229431,75.019012 513.974792,72.594231 508.950531,72.585533 
	C503.978699,72.576935 502.591919,74.898903 502.696533,79.343079 
	C502.848053,85.780487 502.735382,92.224113 502.735382,98.858543 
	C499.016663,98.858543 495.905304,98.858543 492.441315,98.858543 
	C492.441315,87.578781 492.441315,76.384491 492.441315,63.939892 
	C496.000580,64.771416 499.106720,65.497086 503.420258,66.504837 
	C507.347412,62.594055 513.602722,63.429489 520.315918,65.350861 
z"/>
<path fill="#696D70" opacity="1.000000" stroke="none" 
	d="
M524.274475,157.514145 
	C523.475647,147.785095 522.819885,138.391724 522.411499,128.987595 
	C522.384521,128.365936 524.186279,127.221985 525.235840,127.087311 
	C527.518372,126.794403 529.864563,126.996902 532.919800,126.996902 
	C532.919800,133.827652 533.067444,140.428040 532.867554,147.017868 
	C532.735535,151.369781 534.267212,153.598373 538.852295,153.538879 
	C543.966614,153.472504 545.121826,152.433395 545.183472,146.957916 
	C545.236023,142.295654 545.511169,137.604721 545.107727,132.977036 
	C544.681274,128.085907 546.465454,126.237572 551.250488,126.960724 
	C552.536072,127.155014 553.875854,126.990150 555.544067,126.990150 
	C555.544067,138.514847 555.544067,149.734436 555.544067,161.264786 
	C551.894348,161.399902 547.880188,163.402466 545.983337,158.158051 
	C539.178345,163.950317 530.039917,163.741776 524.274475,157.514145 
z"/>
<path fill="#696C6F" opacity="1.000000" stroke="none" 
	d="
M381.796509,190.782990 
	C385.174255,190.267731 388.253693,190.098984 391.603088,189.915451 
	C391.603088,201.640808 391.603088,212.734131 391.603088,224.110992 
	C387.980804,224.519043 384.128571,226.208160 381.743530,221.025238 
	C377.504272,226.496765 371.691833,225.480591 366.209473,224.735138 
	C362.017212,224.165115 359.221619,221.021561 358.929626,216.886002 
	C358.357086,208.776581 358.316223,200.623291 358.328217,192.488556 
	C358.329437,191.658127 360.098206,190.295380 361.200806,190.113419 
	C363.460938,189.740433 365.825714,190.001480 368.881378,190.001480 
	C368.881378,196.823090 369.027618,203.420624 368.829315,210.007767 
	C368.699890,214.306473 370.095795,216.637848 374.736969,216.579575 
	C379.837616,216.515579 381.048767,215.418610 381.149750,210.058167 
	C381.268555,203.748657 381.382294,197.439056 381.796509,190.782990 
z"/>
<path fill="#666A6D" opacity="1.000000" stroke="none" 
	d="
M428.854340,136.117523 
	C428.829193,130.978683 431.280151,127.661102 435.750122,127.324623 
	C442.988312,126.779770 450.297485,127.177963 457.589691,127.177963 
	C457.128326,135.570206 457.128326,135.570480 449.362885,135.572296 
	C446.075623,135.573074 442.788361,135.572433 439.501099,135.572433 
	C439.328400,136.020691 439.155731,136.468948 438.983032,136.917206 
	C439.840088,137.584274 440.600891,138.554581 441.571838,138.862671 
	C444.740387,139.868103 448.005615,140.563919 451.197144,141.502823 
	C457.891327,143.472122 459.988922,146.995010 458.978149,154.370926 
	C458.356842,158.904663 455.232666,161.329666 449.102875,161.493332 
	C442.304565,161.674866 435.497711,161.534866 428.704468,161.534866 
	C428.654236,152.943085 428.654358,152.968063 436.844788,152.927155 
	C440.331665,152.909744 443.818298,152.775421 447.303436,152.649399 
	C447.548431,152.640549 447.779968,152.259689 448.687805,151.466003 
	C447.557800,150.610062 446.680084,149.557373 445.573242,149.183990 
	C442.899048,148.281860 440.114685,147.708893 437.380493,146.981598 
	C430.974182,145.277481 429.255676,143.166031 428.854340,136.117523 
z"/>
<path fill="#65696C" opacity="1.000000" stroke="none" 
	d="
M643.497314,65.079781 
	C647.488464,64.686226 651.167175,63.941483 654.714661,64.346573 
	C659.868164,64.935043 662.720581,68.651794 662.925537,73.611984 
	C663.267517,81.889267 663.018860,90.190941 663.018860,98.763145 
	C659.704041,98.763145 656.624023,98.763145 652.890930,98.763145 
	C652.890930,92.282074 652.804443,85.844955 652.921021,79.411522 
	C653.000244,75.039040 651.710938,72.576599 646.684998,72.556824 
	C641.783020,72.537544 640.161926,74.757263 640.217896,79.217682 
	C640.298889,85.665527 640.238647,92.115143 640.238647,98.802109 
	C636.629517,98.802109 633.552185,98.802109 630.188782,98.802109 
	C630.188782,87.543106 630.188782,76.471848 630.188782,64.163544 
	C633.693970,64.928947 636.778015,65.602386 639.862000,66.275826 
	C639.819275,66.819283 639.776489,67.362747 639.733765,67.906204 
	C640.864624,67.018303 641.995422,66.130402 643.497314,65.079781 
z"/>
<path fill="#6A6E71" opacity="1.000000" stroke="none" 
	d="
M561.376709,209.748367 
	C561.376953,205.791901 561.376953,202.299835 561.376953,198.487671 
	C559.518066,198.147141 557.809387,197.834137 555.923218,197.488602 
	C556.346558,193.946136 554.879211,189.650848 560.491699,189.042343 
	C560.742981,189.015091 561.164062,188.596146 561.152039,188.379272 
	C560.716125,180.509827 567.406738,182.323746 571.980225,180.205124 
	C571.980225,183.287613 571.980225,185.886993 571.980225,188.960022 
	C575.418823,189.180435 578.476318,189.376419 581.502625,189.570389 
	C581.981750,196.948181 581.981750,196.948181 572.115234,198.541168 
	C572.115234,202.913010 571.770874,207.413086 572.303955,211.806732 
	C572.487976,213.323837 574.961914,215.843033 576.207886,215.738358 
	C582.987732,215.168671 582.842590,219.450760 582.809875,223.956558 
	C568.975403,227.289673 561.794067,222.650192 561.376709,209.748367 
z"/>
<path fill="#666A6D" opacity="1.000000" stroke="none" 
	d="
M591.521973,154.332489 
	C592.017334,156.655853 592.300720,158.612686 592.683044,161.252258 
	C584.108826,161.478668 575.604248,162.997604 567.651428,159.740402 
	C564.972534,158.643250 562.283203,154.909500 561.696716,151.963150 
	C560.712341,147.017548 560.932861,141.681976 561.522766,136.612473 
	C562.207275,130.729477 566.097656,127.543571 572.630371,127.179253 
	C579.071228,126.820053 585.547852,127.100830 591.987854,127.100830 
	C592.590454,135.126678 592.197327,135.568466 584.683289,135.572342 
	C583.851685,135.572769 583.020020,135.572235 582.188416,135.572235 
	C570.955811,135.572235 570.426880,136.208298 571.091370,147.486618 
	C571.309570,151.189468 572.977905,152.829590 576.674072,152.962921 
	C581.558411,153.139130 586.431885,153.617462 591.521973,154.332489 
z"/>
<path fill="#686C6F" opacity="1.000000" stroke="none" 
	d="
M614.202393,125.798615 
	C617.212341,126.225853 619.854919,126.345955 622.455627,126.464149 
	C623.752563,133.727203 623.470398,134.024033 613.574646,135.510574 
	C613.574646,139.854980 613.240845,144.340576 613.756042,148.726425 
	C613.935913,150.257935 616.311890,152.825104 617.509705,152.729248 
	C624.269775,152.188324 624.241272,156.327560 623.952576,161.859680 
	C619.471558,161.547073 615.012756,161.645599 610.728333,160.829147 
	C605.833923,159.896454 603.189148,156.102783 602.972046,150.533020 
	C602.778442,145.565552 602.931335,140.584564 602.931335,135.316498 
	C600.832703,135.061935 599.100098,134.851776 597.152588,134.615555 
	C597.549744,130.547485 596.563538,126.031502 602.518555,125.913330 
	C603.214294,119.452621 603.627441,119.136604 613.195862,117.792015 
	C613.409424,120.364914 613.622192,122.928200 614.202393,125.798615 
z"/>
<path fill="#686C6E" opacity="1.000000" stroke="none" 
	d="
M487.868835,130.678238 
	C487.267365,137.481995 481.630157,133.563370 478.455261,135.804962 
	C478.455261,139.961090 478.113495,144.449554 478.642914,148.832825 
	C478.825256,150.342743 480.998901,152.482193 482.573639,152.801483 
	C488.983551,154.101196 489.027985,153.882095 488.807495,161.869080 
	C484.406982,161.551575 479.957642,161.615982 475.668335,160.819000 
	C470.805969,159.915527 468.261078,156.164429 467.918457,150.563263 
	C467.766571,148.079697 467.843292,145.581665 467.832031,143.090103 
	C467.820862,140.618668 467.829620,138.147125 467.829620,135.313705 
	C465.846680,135.065063 464.125122,134.849197 462.145569,134.600983 
	C462.395538,130.544693 461.510895,126.157852 467.750336,125.922737 
	C466.531036,117.615356 473.347473,119.403610 478.031982,117.176155 
	C478.259674,120.298332 478.445801,122.850639 478.679657,126.057014 
	C481.552338,126.194008 484.439606,126.331696 487.912903,126.497330 
	C487.912903,127.805183 487.912903,129.025009 487.868835,130.678238 
z"/>
<path fill="#686C6E" opacity="1.000000" stroke="none" 
	d="
M405.194641,220.702087 
	C404.106750,215.919739 403.080414,211.456619 402.481781,206.936859 
	C402.117981,204.190292 402.414673,201.356277 402.414673,198.297348 
	C400.434540,198.060211 398.853851,197.870911 397.013428,197.650497 
	C397.253998,193.799469 396.037415,189.522766 401.762817,189.013077 
	C403.213623,182.400467 403.924286,181.870895 412.781921,180.906769 
	C412.884674,182.177521 413.027802,183.440063 413.077728,184.706284 
	C413.128967,186.004791 413.089111,187.306885 413.089111,189.042343 
	C416.522736,189.226379 419.588470,189.390717 422.625977,189.553528 
	C422.916443,197.521774 422.916443,197.521774 413.177673,198.225418 
	C413.177673,202.878189 412.885834,207.647186 413.363892,212.337723 
	C413.499054,213.664078 415.991577,215.891602 417.220459,215.775436 
	C424.006317,215.134033 423.775177,219.515472 423.917114,224.697769 
	C417.399811,224.337479 410.861267,226.078140 405.194641,220.702087 
z"/>
<path fill="#6B6F71" opacity="1.000000" stroke="none" 
	d="
M413.047913,62.044693 
	C413.047913,61.386822 413.047913,61.220516 413.047913,61.054207 
	C413.047760,51.575695 413.047791,51.575695 423.334137,52.352360 
	C423.334137,67.652100 423.334137,82.993301 423.334137,98.705276 
	C420.177887,98.705276 416.954346,98.705276 413.047913,98.705276 
	C413.047913,86.688919 413.047913,74.612587 413.047913,62.044693 
z"/>
<path fill="#6A6E71" opacity="1.000000" stroke="none" 
	d="
M521.761597,223.424286 
	C518.424438,224.182922 515.203979,224.511398 511.567871,224.882263 
	C511.567871,213.002365 511.567871,201.800232 511.567871,189.486908 
	C515.180908,190.237717 518.469421,190.921082 521.576294,191.566696 
	C525.388123,190.625687 529.606140,189.584396 533.989014,188.502411 
	C534.896729,197.513443 534.406494,198.220123 526.743286,198.882202 
	C523.112793,199.195862 521.896484,201.206055 521.906921,204.514984 
	C521.926270,210.674606 521.890808,216.834412 521.761597,223.424286 
z"/>
<path fill="#676A6D" opacity="1.000000" stroke="none" 
	d="
M494.979675,159.558182 
	C494.967865,148.639664 494.967865,138.176025 494.967865,126.476494 
	C498.787628,127.263870 502.047150,127.935760 505.027222,128.550049 
	C508.909302,127.603722 513.096069,126.583115 517.402832,125.533257 
	C518.613525,134.438065 517.920044,135.500214 510.695984,135.840195 
	C506.724731,136.027069 505.551819,138.176620 505.565491,141.666443 
	C505.590790,148.108475 505.572693,154.550674 505.572693,162.299667 
	C501.523865,161.424713 498.257690,160.718887 494.979675,159.558182 
z"/>
<path fill="#64686B" opacity="1.000000" stroke="none" 
	d="
M539.979675,193.312195 
	C541.362305,191.901398 542.629333,190.521149 544.151550,190.127350 
	C545.987122,189.652496 548.039246,190.014938 550.275024,190.014938 
	C550.275024,201.589264 550.275024,212.691299 550.275024,224.182404 
	C546.981201,224.182404 543.763184,224.182404 539.977173,224.182404 
	C539.977173,213.994980 539.977173,203.887375 539.979675,193.312195 
z"/>
<path fill="#63676A" opacity="1.000000" stroke="none" 
	d="
M478.053925,64.674301 
	C480.180664,64.674004 481.824982,64.674004 483.806335,64.674004 
	C483.806335,76.072212 483.806335,87.156883 483.806335,98.644371 
	C480.760437,98.644371 477.563049,98.644371 473.801239,98.644371 
	C473.801239,88.176323 473.707977,77.740532 473.964966,67.313377 
	C473.987366,66.404701 476.314758,65.552849 478.053925,64.674301 
z"/>
<path fill="#63676A" opacity="1.000000" stroke="none" 
	d="
M395.332031,98.578033 
	C394.923279,88.434380 394.981567,78.616371 394.739166,68.805779 
	C394.655273,65.410606 395.951752,64.341080 399.114227,64.645256 
	C400.900177,64.817024 402.716217,64.676231 404.836182,64.676231 
	C404.836182,76.126556 404.836182,87.205811 404.836182,98.906586 
	C401.846252,98.906586 398.763611,98.906586 395.332031,98.578033 
z"/>
<path fill="#63676A" opacity="1.000000" stroke="none" 
	d="
M640.226257,137.023727 
	C640.226318,145.284668 640.226318,153.050339 640.226318,161.060211 
	C636.614502,161.060211 633.544067,161.060211 629.918823,161.060211 
	C629.918823,150.465698 629.851868,140.040955 630.036865,129.620682 
	C630.052856,128.716873 631.628601,127.255844 632.658875,127.075241 
	C634.891541,126.683876 637.240234,126.954651 640.226196,126.954651 
	C640.226196,130.340073 640.226196,133.434265 640.226257,137.023727 
z"/>
<path fill="#676B6E" opacity="1.000000" stroke="none" 
	d="
M541.469543,184.433685 
	C540.565552,181.934174 540.093018,179.490952 539.523071,176.543625 
	C543.579651,176.543625 546.784302,176.543625 550.287842,176.543625 
	C550.287842,178.986435 550.287842,181.402405 550.287842,184.489990 
	C547.426514,184.489990 544.663757,184.489990 541.469543,184.433685 
z"/>
<path fill="#666A6D" opacity="1.000000" stroke="none" 
	d="
M640.214600,115.180107 
	C640.231201,117.277107 640.231201,118.903664 640.231201,120.895874 
	C636.810852,120.895874 633.644409,120.895874 630.183350,120.895874 
	C630.183350,118.439987 630.183350,116.080917 630.183350,112.375275 
	C633.868408,113.234245 637.033203,113.971954 640.214600,115.180107 
z"/>
<path fill="#64686B" opacity="1.000000" stroke="none" 
	d="
M473.800842,53.120338 
	C476.995270,51.825840 480.167053,50.999805 483.868011,50.035950 
	C483.868011,53.670105 483.868011,56.045265 483.868011,58.714684 
	C480.688507,58.714684 477.635071,58.714684 473.778168,58.714684 
	C473.778168,57.026066 473.778168,55.307434 473.800842,53.120338 
z"/>
<path fill="#64686B" opacity="1.000000" stroke="none" 
	d="
M402.871918,50.859711 
	C404.168182,53.297852 404.991791,55.725105 406.016266,58.744232 
	C401.628021,58.744232 398.577301,58.744232 395.159302,58.744232 
	C395.159302,56.331970 395.159302,53.978851 395.159302,50.848820 
	C397.610291,50.848820 400.004791,50.848820 402.871918,50.859711 
z"/>
<path fill="#EC101B" opacity="1.000000" stroke="none" 
	d="
M117.234489,158.628555 
	C116.867294,158.792877 116.519371,158.526352 116.028931,157.957062 
	C116.342194,157.835434 116.797974,158.016571 117.234489,158.628555 
z"/>
<path fill="#EC101B" opacity="1.000000" stroke="none" 
	d="
M180.542969,113.702148 
	C180.132935,113.929535 179.725739,113.694954 179.137909,113.156319 
	C179.486801,112.981567 180.016296,113.110878 180.542969,113.702148 
z"/>
<path fill="#EC101B" opacity="1.000000" stroke="none" 
	d="
M180.672760,270.604370 
	C180.447372,270.593903 180.257401,270.320862 180.309540,269.941711 
	C180.603836,270.004333 180.655991,270.173096 180.672760,270.604370 
z"/>
<path fill="#FCF6F6" opacity="1.000000" stroke="none" 
	d="
M197.900696,283.412598 
	C192.462952,286.240417 187.037689,288.639191 181.021240,291.299347 
	C181.021240,286.330109 181.021240,282.555328 181.021240,278.147369 
	C186.336502,277.074982 191.763992,275.979980 197.913177,274.739349 
	C197.913177,277.808075 197.913177,280.395782 197.900696,283.412598 
z"/>
<path fill="#FBFBFB" opacity="1.000000" stroke="none" 
	d="
M328.882202,90.156982 
	C324.593750,90.157021 320.787994,90.157021 316.585480,90.157021 
	C316.585480,86.702644 316.585480,83.518784 316.585480,79.803185 
	C322.413788,79.803185 328.189087,79.502007 333.885712,80.037704 
	C335.141174,80.155769 336.989532,83.247658 336.977448,84.958931 
	C336.965332,86.674080 335.252106,88.727028 333.735138,89.951088 
	C332.819305,90.690048 330.856995,90.132126 328.882202,90.156982 
z"/>
<path fill="#FBFBFB" opacity="1.000000" stroke="none" 
	d="
M326.912079,61.730148 
	C334.674194,61.743046 336.491364,62.704796 335.735229,66.838608 
	C335.441650,68.443665 333.430725,70.803116 332.017029,70.942551 
	C326.952911,71.442055 321.809570,71.138290 316.444153,71.138290 
	C316.444153,67.879868 316.444153,65.135971 316.444153,61.730366 
	C319.889099,61.730366 323.161163,61.730366 326.912079,61.730148 
z"/>
<path fill="#F8F8F8" opacity="1.000000" stroke="none" 
	d="
M548.193726,72.742737 
	C556.153931,72.842644 560.167908,79.337135 555.945129,85.698875 
	C554.639282,87.666183 550.218262,88.275955 547.272034,88.169075 
	C545.591797,88.108124 542.974731,85.578552 542.566223,83.759377 
	C540.984680,76.715553 542.664551,73.747894 548.193726,72.742737 
z"/>
<path fill="#FBFBFB" opacity="1.000000" stroke="none" 
	d="
M686.938965,91.063637 
	C679.698303,90.668686 679.427246,90.209808 679.646484,79.460480 
	C679.763733,73.709572 680.648865,72.825500 686.363098,72.751556 
	C692.531250,72.671730 693.713196,73.585312 693.957214,78.620964 
	C694.480957,89.432205 693.920776,90.491585 686.938965,91.063637 
z"/>
<path fill="#FCFCFC" opacity="1.000000" stroke="none" 
	d="
M448.044922,91.055740 
	C440.841644,90.512909 440.507324,89.903526 440.890289,78.810783 
	C441.069000,73.635345 442.158447,72.868248 448.255951,72.727417 
	C452.585205,72.627449 455.138458,73.751968 455.196991,78.786209 
	C455.327606,90.018631 455.186218,90.571625 448.044922,91.055740 
z"/>
<path fill="#F5F5F5" opacity="1.000000" stroke="none" 
	d="
M336.153992,202.855347 
	C336.787689,204.592285 337.297089,205.959885 337.929016,207.656464 
	C333.157440,207.656464 328.767426,207.656464 323.656372,207.656464 
	C325.954865,201.735260 328.143860,196.096146 330.748901,189.385284 
	C332.746002,194.339737 334.387848,198.412888 336.153992,202.855347 
z"/>
<path fill="#F9FAFA" opacity="1.000000" stroke="none" 
	d="
M357.773560,144.887207 
	C357.774139,143.763931 357.636810,143.065018 357.799652,142.444931 
	C358.435852,140.022385 358.688080,135.900604 359.954620,135.548843 
	C363.422577,134.585739 367.354797,134.995621 371.049316,135.379868 
	C371.863190,135.464508 372.794373,137.622650 373.063812,138.949387 
	C373.419739,140.702209 373.190887,142.576675 373.188843,144.398819 
	C373.180176,152.132248 372.437042,152.918472 365.209625,152.881470 
	C358.760284,152.848450 357.928253,152.005478 357.773560,144.887207 
z"/>
<path fill="#F8F8F8" opacity="1.000000" stroke="none" 
	d="
M668.127808,134.664459 
	C673.696960,136.632843 671.836792,141.091888 671.935913,144.611267 
	C672.143677,151.981598 670.981750,153.224747 663.673950,152.743820 
	C661.275391,152.585968 657.122070,150.840973 656.996704,149.516434 
	C656.564514,144.951218 656.799072,139.955231 658.432861,135.768448 
	C658.979004,134.368958 664.487366,134.905869 668.127808,134.664459 
z"/>
<path fill="#EEEFEF" opacity="1.000000" stroke="none" 
	d="
M600.297485,88.760147 
	C601.389526,87.266243 602.392578,85.458038 603.682373,85.222931 
	C606.370667,84.732887 609.210632,85.074684 613.146057,86.207596 
	C611.897461,87.885773 610.943665,90.547974 609.336487,91.029472 
	C606.342102,91.926567 602.490662,93.628624 600.297485,88.760147 
z"/>
<path fill="#F8F8F8" opacity="1.000000" stroke="none" 
	d="
M492.810120,214.970184 
	C492.137268,215.312988 491.810822,215.589432 491.527618,215.550598 
	C487.736511,215.030685 481.835846,215.693893 480.642517,213.636673 
	C478.671722,210.239136 479.118103,204.969116 479.864288,200.719727 
	C480.127258,199.222000 484.251282,197.528473 486.624756,197.510025 
	C489.228394,197.489777 493.941284,199.069000 494.082947,200.353943 
	C494.602295,205.064468 493.603729,209.942352 492.810120,214.970184 
z"/>
</svg>