<svg version="1.1" id="Layer_1" xmlns="http://www.w3.org/2000/svg" xmlns:xlink="http://www.w3.org/1999/xlink" x="0px" y="0px"
	 width="100%" viewBox="0 0 1400 992" enable-background="new 0 0 1400 992" xml:space="preserve">
<path fill="#FFFEFE" opacity="1.000000" stroke="none" 
	d="
M963.000000,993.000000 
	C642.000000,993.000000 321.500000,993.000000 1.000000,993.000000 
	C1.000000,662.333313 1.000000,331.666656 1.000000,1.000000 
	C467.666656,1.000000 934.333313,1.000000 1401.000000,1.000000 
	C1401.000000,331.666656 1401.000000,662.333313 1401.000000,993.000000 
	C1255.166626,993.000000 1109.333374,993.000000 963.000000,993.000000 
M146.988892,427.990753 
	C146.988892,427.990753 147.025421,428.019501 146.777481,427.180420 
	C146.940826,425.523315 146.938492,423.829895 147.292511,422.214600 
	C152.065506,400.436951 155.867477,378.383026 161.895966,356.956299 
	C177.898407,300.079437 194.868042,243.474731 211.451233,186.761276 
	C213.977692,178.120895 216.664719,169.500778 215.002304,160.297485 
	C213.382782,151.331528 205.525574,143.823288 196.745239,142.852768 
	C188.020477,141.888382 182.907761,144.915833 179.228607,155.714172 
	C172.522812,175.395691 166.343201,195.271622 160.500137,215.229263 
	C137.248779,294.646729 116.862068,374.795990 101.076012,456.043182 
	C93.649414,494.266113 87.011581,532.659973 80.932426,571.121155 
	C76.440872,599.538025 73.409203,628.186279 69.773697,656.737366 
	C68.512337,666.643433 73.193657,673.549316 81.591896,677.879211 
	C89.886551,682.155518 100.184685,679.920593 101.298119,669.042969 
	C101.618553,665.912354 102.442116,662.827637 103.121368,659.740845 
	C103.998840,655.753357 104.963028,651.785034 105.962410,647.497192 
	C110.203346,649.465759 113.681107,651.485657 117.415207,652.746338 
	C138.662369,659.919495 157.043335,653.518066 173.665070,640.158386 
	C191.899246,625.502625 203.174362,605.627686 213.780334,585.354187 
	C231.083374,552.278992 242.457260,517.302185 246.613403,480.135529 
	C248.881317,459.854370 249.400482,439.572662 244.230042,419.557922 
	C236.809265,390.832031 208.564926,378.619995 183.371353,394.042267 
	C174.424942,399.518799 166.831924,407.314819 159.008957,414.475708 
	C154.582962,418.527069 150.944519,423.438843 146.988892,427.990753 
M483.981323,344.976227 
	C483.981323,344.976227 483.945465,344.918427 484.407043,345.562317 
	C483.602417,346.999481 482.882538,348.492340 481.980255,349.865295 
	C470.746613,366.958710 459.056244,383.769348 448.323120,401.170715 
	C426.265106,436.932892 407.622040,474.493744 392.408661,513.642822 
	C386.956299,527.673584 382.839813,542.346191 379.507690,557.041992 
	C376.448181,570.535461 384.484741,579.778992 398.210907,580.634705 
	C407.093384,581.188477 413.592133,576.069946 420.124146,571.138550 
	C427.422211,565.628784 434.287109,559.430176 442.026123,554.638733 
	C485.867615,527.495239 529.892334,500.647156 573.926575,473.816437 
	C578.229919,471.194305 583.022400,469.374878 587.778320,467.901093 
	C592.728394,477.501862 597.842163,487.022369 602.594971,496.719788 
	C613.051331,518.054077 623.978699,539.193237 633.458252,560.958801 
	C640.505005,577.138489 644.708374,594.324585 643.176208,612.376587 
	C641.588562,631.081970 624.436035,648.654907 605.793091,651.037537 
	C590.610291,652.978027 577.105530,648.823364 564.667603,640.548401 
	C558.416565,636.389465 552.482361,631.754395 546.014832,627.051025 
	C546.014832,647.041748 545.968933,666.661560 546.125427,686.279724 
	C546.135071,687.494873 547.469727,689.258240 548.640503,689.815491 
	C556.714050,693.657898 564.671936,697.948975 573.107605,700.785950 
	C598.079102,709.184021 623.245911,708.636108 647.086853,697.539185 
	C675.062622,684.517700 690.820251,660.930420 697.996033,631.516602 
	C706.062195,598.453430 700.481750,566.340271 689.372986,534.989990 
	C679.523254,507.192871 666.239563,480.903320 652.239014,454.990356 
	C648.924805,448.856262 645.443420,442.812439 642.108154,436.043243 
	C643.031311,435.179718 643.815796,434.042786 644.898438,433.493652 
	C660.886047,425.384674 676.581421,416.588684 693.001587,409.466858 
	C725.110901,395.540375 757.630127,382.558960 789.994324,369.986725 
	C769.490173,479.836395 748.986023,589.686096 728.395813,699.996765 
	C747.403564,699.996765 765.548828,700.066956 783.690002,699.827881 
	C784.816345,699.813049 786.643372,697.503113 786.912170,696.035339 
	C792.690430,664.483765 798.396301,632.917786 803.795959,601.299866 
	C804.459656,597.413452 806.017883,596.931458 809.299866,596.944824 
	C833.961670,597.044983 858.624023,596.999573 883.286255,596.999695 
	C885.760803,596.999695 888.235352,596.999695 891.088013,596.999695 
	C896.677063,631.553833 902.205688,665.734802 907.690674,699.645630 
	C927.301819,699.645630 946.199646,699.645630 965.468140,699.645630 
	C962.404236,682.705933 959.485229,666.176636 956.415833,649.675232 
	C948.970764,609.649536 941.437805,569.640198 933.974243,529.617981 
	C927.055603,492.518097 920.160095,455.413818 913.294067,418.304169 
	C908.093262,390.194672 902.954834,362.073608 898.310608,333.398499 
	C911.392151,330.246429 924.464905,327.057373 937.557861,323.953461 
	C949.034363,321.232758 960.649475,319.016541 971.983521,315.802368 
	C980.075439,313.507629 984.170593,304.902496 982.186523,296.765076 
	C979.330688,285.052094 971.107483,279.543152 958.167725,281.237000 
	C949.267151,282.402100 940.367859,283.824280 931.608521,285.765350 
	C917.820740,288.820770 904.151184,292.409607 890.372681,294.943420 
	C886.424805,273.446381 882.476868,251.949356 878.492371,230.252991 
	C857.636536,230.252991 837.079651,230.252991 816.126038,230.252991 
	C810.120972,262.830475 804.115540,295.409698 797.670776,328.582916 
	C785.035889,333.698517 772.351440,338.695343 759.775269,343.951538 
	C718.955750,361.012177 678.636108,379.133789 639.957886,400.724945 
	C635.810791,403.039978 631.403870,404.889526 626.937805,406.250336 
	C618.624573,389.600708 610.584839,372.855133 605.667603,354.782715 
	C601.414734,339.152008 599.502319,323.467224 603.952087,307.599518 
	C606.112732,299.894470 610.036377,292.961548 617.375793,289.212402 
	C634.510254,280.459686 652.071533,280.229950 669.807251,287.680267 
	C675.683716,290.148804 681.692505,292.302460 687.982788,294.732208 
	C687.982788,276.831848 688.048218,259.062225 687.841431,241.295761 
	C687.827026,240.059235 686.022949,238.276535 684.655640,237.720703 
	C678.667419,235.286346 672.662354,232.718796 666.430908,231.087082 
	C633.928406,222.576248 603.746155,225.977539 577.875122,249.477554 
	C561.783081,264.094849 551.474548,282.137817 546.069824,303.079681 
	C538.908081,292.337402 530.084473,289.166138 517.734558,293.199860 
	C513.479431,294.589661 509.235565,296.223938 505.289612,298.317627 
	C472.813965,315.548767 438.984131,328.310822 401.893311,331.054901 
	C393.315125,331.689575 387.737122,338.939758 388.221466,347.273285 
	C388.800964,357.243683 395.801483,365.056519 405.745575,365.939575 
	C410.988495,366.405121 416.549011,366.570221 421.592194,365.339111 
	C432.705597,362.626190 443.651001,359.152924 454.534363,355.590820 
	C464.453064,352.344421 474.199524,348.571594 483.981323,344.976227 
M1047.925903,559.500000 
	C1047.925903,469.460480 1047.925903,379.420959 1047.925903,288.873657 
	C1076.794678,288.873657 1104.851929,288.873657 1132.788574,288.873657 
	C1132.788574,270.119171 1132.788574,251.876892 1132.788574,233.540726 
	C1084.384033,233.540726 1036.324951,233.540726 988.117981,233.540726 
	C988.117981,389.176025 988.117981,544.527405 988.117981,700.192993 
	C1008.124939,700.192993 1027.833618,700.192993 1047.925903,700.192993 
	C1047.925903,653.399597 1047.925903,606.949829 1047.925903,559.500000 
M1184.997070,733.564331 
	C1180.308960,734.696411 1175.566162,735.641174 1170.941650,736.991089 
	C1140.138184,745.982727 1108.887451,753.735474 1078.711426,764.497009 
	C1050.548340,774.540710 1023.511353,787.754028 996.028870,799.687683 
	C984.492493,804.697144 984.552246,804.831482 975.962341,796.007385 
	C974.451538,794.455444 972.938965,792.905029 971.408813,791.372253 
	C963.206055,783.155029 954.278809,776.055786 942.878479,772.710876 
	C938.238647,771.349609 935.897278,772.490784 934.662048,777.096130 
	C934.236084,778.684448 934.196716,780.379028 934.009583,782.028381 
	C932.208923,797.900696 930.563782,813.793640 928.454102,829.624695 
	C928.144165,831.950134 926.108826,834.739380 924.062195,836.016663 
	C916.165039,840.945190 907.808960,845.134460 899.869080,849.999451 
	C889.796143,856.171265 879.879944,862.611572 870.097900,869.234192 
	C868.278381,870.466003 865.915405,873.743225 866.432251,874.955933 
	C867.366394,877.147766 870.108154,879.554321 872.415039,879.935730 
	C875.551697,880.454224 879.576843,880.102600 882.197632,878.475647 
	C895.085327,870.475220 909.404114,871.078735 923.890137,869.935120 
	C923.570801,876.123840 923.058411,881.591125 923.050659,887.059143 
	C923.029419,902.051941 923.043274,917.049377 923.410217,932.036011 
	C923.567566,938.462708 924.852661,938.991150 931.201233,938.063416 
	C940.756775,936.667114 946.303467,929.602600 952.631958,923.496277 
	C968.542480,908.144226 984.513489,892.852844 1000.662903,877.753967 
	C1002.135986,876.376709 1005.371338,875.580322 1007.272400,876.171936 
	C1021.864075,880.713196 1036.527100,885.147644 1050.775879,890.633484 
	C1065.218384,896.193909 1079.108521,903.343323 1095.047363,903.493103 
	C1097.118286,903.512573 1099.201050,902.274536 1101.278442,901.619019 
	C1099.960571,899.903992 1098.972778,897.701172 1097.272705,896.550842 
	C1083.356323,887.134888 1069.210327,878.056885 1055.336060,868.580261 
	C1047.551147,863.262817 1040.149292,857.384583 1032.433228,851.653809 
	C1033.157227,850.737244 1033.475220,850.121643 1033.971802,849.736877 
	C1055.022583,833.428345 1075.777344,816.712891 1097.279663,801.022156 
	C1108.796265,792.618286 1121.632080,786.029724 1133.801392,778.506714 
	C1136.002197,777.146240 1137.856689,775.225952 1139.871094,773.564087 
	C1132.765869,770.694275 1126.695557,771.779846 1121.136841,775.009827 
	C1087.832275,794.362488 1056.442871,816.518982 1026.297729,840.449585 
	C1023.112366,842.978271 1020.961609,843.446838 1017.935913,840.329102 
	C1011.098511,833.283752 1003.934814,826.556213 996.994690,819.608643 
	C995.304016,817.916138 993.964111,815.873169 992.130737,813.574951 
	C1064.763794,781.674988 1135.798462,747.619751 1214.882324,736.306213 
	C1214.941162,735.476318 1215.000000,734.646423 1215.058960,733.816467 
	C1211.868286,732.632690 1208.634277,730.364563 1205.495972,730.490173 
	C1198.897949,730.754211 1192.350220,732.274780 1184.997070,733.564331 
M1237.500000,644.717285 
	C1229.559692,644.717285 1221.619385,644.717285 1213.116699,644.717285 
	C1213.116699,627.803284 1213.116699,611.576172 1213.116699,595.252808 
	C1192.812500,595.252808 1173.092041,595.252808 1153.297119,595.252808 
	C1153.297119,630.348328 1153.297119,665.105530 1153.297119,700.089844 
	C1210.568481,700.089844 1267.598755,700.089844 1324.764893,700.089844 
	C1324.764893,681.521179 1324.764893,663.300781 1324.764893,644.717041 
	C1295.766479,644.717041 1267.133301,644.717041 1237.500000,644.717285 
M1153.069824,255.500046 
	C1153.069824,276.943115 1153.069824,298.386200 1153.069824,319.967712 
	C1173.345581,319.967712 1193.056396,319.967712 1213.343628,319.967712 
	C1213.343628,309.577515 1213.343628,299.505585 1213.343628,288.899780 
	C1248.972290,288.899780 1284.025635,288.899780 1318.886963,288.899780 
	C1318.886963,270.098541 1318.886963,251.858109 1318.886963,233.643646 
	C1263.438232,233.643646 1208.385254,233.643646 1153.069824,233.643646 
	C1153.069824,240.856308 1153.069824,247.678238 1153.069824,255.500046 
M349.208588,414.766296 
	C351.301849,407.920288 353.471619,401.096497 355.470245,394.222961 
	C358.393341,384.169952 361.758118,374.197784 363.869385,363.971222 
	C365.587433,355.649078 361.994293,350.230286 355.020660,347.585785 
	C349.198517,345.377991 341.434357,347.770630 337.343658,353.592041 
	C334.778992,357.241852 332.369446,361.195740 330.868896,365.365387 
	C323.096130,386.964447 315.164673,408.525208 308.166443,430.380432 
	C291.827789,481.405823 286.504883,534.170288 284.672852,587.399475 
	C284.468384,593.341064 284.778320,599.436462 285.915802,605.251953 
	C287.196198,611.798157 294.748505,617.205383 301.322327,617.487122 
	C308.660339,617.801636 315.102234,613.731812 317.627289,606.688416 
	C318.850677,603.275879 319.734558,599.630920 320.063416,596.026489 
	C322.165833,572.986694 323.826294,549.904724 326.096588,526.882446 
	C329.833618,488.986145 338.153961,451.996979 349.208588,414.766296 
M1087.500122,428.607941 
	C1077.415039,428.607941 1067.329834,428.607941 1057.265381,428.607941 
	C1057.265381,447.623718 1057.265381,465.874939 1057.265381,484.114716 
	C1058.056030,484.325287 1058.526978,484.560089 1058.998169,484.560547 
	C1079.497437,484.580170 1100.006348,484.911682 1120.488037,484.312073 
	C1124.813721,484.185455 1129.791626,481.487152 1133.157959,478.497528 
	C1140.696045,471.803070 1144.064209,462.356232 1147.240723,453.014099 
	C1148.587769,449.052246 1149.799683,445.044464 1151.072998,441.057526 
	C1151.624878,441.124176 1152.176758,441.190826 1152.728638,441.257477 
	C1152.728638,488.173309 1152.728638,535.089111 1152.728638,582.180054 
	C1173.406006,582.180054 1193.005127,582.180054 1213.177246,582.180054 
	C1213.177246,579.915710 1213.177490,577.954773 1213.177246,575.993835 
	C1213.173828,547.828125 1213.292603,519.661316 1213.054810,491.497589 
	C1213.011597,486.375763 1214.540161,485.017151 1219.574219,485.093842 
	C1237.735352,485.370728 1255.909546,484.890717 1274.067017,485.269867 
	C1282.512207,485.446198 1288.418823,481.971893 1293.073975,475.478088 
	C1302.549194,462.260468 1306.423462,446.999084 1309.077271,431.307831 
	C1309.172119,430.746918 1308.796753,430.106506 1308.550903,429.156891 
	C1306.593506,429.156891 1304.790039,429.157166 1302.986450,429.156860 
	C1274.987305,429.152039 1246.987671,429.074005 1218.989258,429.218842 
	C1214.648682,429.241302 1213.013672,428.325073 1213.057373,423.472260 
	C1213.313477,394.975464 1213.175659,366.475159 1213.170654,337.976013 
	C1213.170288,336.071442 1213.170532,334.166901 1213.170532,332.255157 
	C1192.664062,332.255157 1173.076294,332.255157 1153.036865,332.255157 
	C1153.036865,348.544617 1153.036743,364.506195 1153.036743,380.467773 
	C1153.036743,396.424622 1153.036865,412.381439 1153.036865,428.608429 
	C1131.122681,428.608429 1109.811401,428.608429 1087.500122,428.607941 
M1238.395996,858.499939 
	C1238.395996,868.588318 1238.395996,878.676758 1238.395996,888.632019 
	C1246.729980,888.632019 1254.298218,888.632019 1262.242432,888.632019 
	C1262.242432,872.489075 1262.242432,856.720337 1262.242432,840.996521 
	C1279.170044,839.446838 1283.034912,843.206177 1287.422241,855.483276 
	C1291.057617,865.656311 1295.204224,875.649597 1299.284302,885.657288 
	C1299.819702,886.970642 1301.273315,888.817017 1302.356201,888.854675 
	C1310.223755,889.128662 1318.105225,889.001953 1326.421387,889.001953 
	C1325.807861,887.121765 1325.521484,886.010803 1325.090698,884.958923 
	C1319.546631,871.422791 1314.022705,857.878174 1308.403076,844.373413 
	C1306.104492,838.849792 1302.941284,833.960388 1296.530396,831.195557 
	C1298.694092,830.558716 1300.155396,830.239258 1301.533081,829.704651 
	C1308.607788,826.959229 1314.655029,822.807373 1317.268799,815.401733 
	C1323.442017,797.910889 1318.938843,776.057190 1291.064819,773.150085 
	C1277.202271,771.704163 1263.166138,771.908203 1249.206543,771.422424 
	C1245.773682,771.302917 1242.333130,771.404602 1238.396362,771.404602 
	C1238.396362,800.594116 1238.396362,829.046997 1238.395996,858.499939 
M622.350647,867.781189 
	C627.780212,848.960266 621.335754,834.051575 603.803101,825.699585 
	C596.335022,822.142029 588.465271,819.428833 580.989990,815.884888 
	C576.551086,813.780457 573.024658,810.512878 572.921143,804.881042 
	C572.722900,794.095093 581.127075,786.951233 593.072327,788.389160 
	C600.391785,789.270203 607.619446,790.913330 615.291138,792.286316 
	C615.912109,786.424072 616.567078,780.240601 617.237610,773.910217 
	C603.070801,769.581787 589.224609,768.360840 575.342163,771.457703 
	C562.013000,774.431091 552.478821,782.364258 549.443115,796.119446 
	C546.640320,808.819214 548.030029,820.856934 559.361755,829.434875 
	C563.293945,832.411621 567.834961,834.631287 572.237732,836.928894 
	C579.859619,840.906433 588.066711,843.969788 595.134705,848.740479 
	C601.527771,853.055420 601.094482,861.518738 595.626343,867.023254 
	C591.336060,871.342102 585.926392,872.610107 580.175415,872.972961 
	C570.243225,873.599609 561.188904,870.414001 552.228088,865.956055 
	C551.503479,873.078003 550.820801,879.787415 550.147644,886.403870 
	C564.875122,891.134216 579.576477,892.646973 593.318787,889.932434 
	C606.124390,887.403137 617.635010,882.572083 622.350647,867.781189 
M729.504822,790.018555 
	C735.739929,790.018555 741.974976,790.018555 748.566162,790.018555 
	C748.566162,823.392578 748.566162,855.981140 748.566162,888.741760 
	C756.514282,888.741760 764.074707,888.741760 772.119019,888.741760 
	C772.119019,855.778564 772.119019,823.079285 772.119019,789.844482 
	C783.647766,789.844482 794.700684,789.844482 805.798706,789.844482 
	C805.798706,783.531494 805.798706,777.762024 805.798706,771.686279 
	C775.516052,771.686279 745.474121,771.686279 715.294312,771.686279 
	C715.294312,777.849487 715.294312,783.739624 715.294312,790.018555 
	C719.909363,790.018555 724.208862,790.018555 729.504822,790.018555 
M377.616364,186.942520 
	C369.180542,190.916229 364.267609,198.304993 359.728241,205.883392 
	C352.461182,218.015533 346.934692,230.813705 347.452240,245.365021 
	C347.701874,252.383957 349.535858,258.926239 355.584930,263.366516 
	C363.133026,268.907196 372.621307,268.217987 380.895966,259.839081 
	C396.220673,244.321304 405.076263,225.614899 403.867096,203.332306 
	C403.018585,187.695496 393.247681,181.650513 377.616364,186.942520 
z"/>
<path fill="#5F5C5B" opacity="1.000000" stroke="none" 
	d="
M897.788635,333.957703 
	C902.954834,362.073608 908.093262,390.194672 913.294067,418.304169 
	C920.160095,455.413818 927.055603,492.518097 933.974243,529.617981 
	C941.437805,569.640198 948.970764,609.649536 956.415833,649.675232 
	C959.485229,666.176636 962.404236,682.705933 965.468140,699.645630 
	C946.199646,699.645630 927.301819,699.645630 907.690674,699.645630 
	C902.205688,665.734802 896.677063,631.553833 891.088013,596.999695 
	C888.235352,596.999695 885.760803,596.999695 883.286255,596.999695 
	C858.624023,596.999573 833.961670,597.044983 809.299866,596.944824 
	C806.017883,596.931458 804.459656,597.413452 803.795959,601.299866 
	C798.396301,632.917786 792.690430,664.483765 786.912170,696.035339 
	C786.643372,697.503113 784.816345,699.813049 783.690002,699.827881 
	C765.548828,700.066956 747.403564,699.996765 728.395813,699.996765 
	C748.986023,589.686096 769.490173,479.836395 790.358276,369.495667 
	C799.543457,365.772797 808.305908,362.367645 817.201965,359.357269 
	C826.360474,356.258057 835.649109,353.543549 844.924683,351.097229 
	C834.481445,414.346039 823.994263,477.158325 813.458496,540.262207 
	C836.029663,540.262207 857.902405,540.262207 880.239807,540.262207 
	C879.443359,535.496704 878.709167,531.110291 877.977295,526.723450 
	C871.440918,487.548462 864.873779,448.378571 858.382141,409.196167 
	C855.069580,389.202087 851.892822,369.185516 848.987305,348.981201 
	C865.476074,343.841400 881.632385,338.899536 897.788635,333.957703 
z"/>
<path fill="#E9313B" opacity="1.000000" stroke="none" 
	d="
M844.880798,350.660706 
	C835.649109,353.543549 826.360474,356.258057 817.201965,359.357269 
	C808.305908,362.367645 799.543457,365.772797 790.350952,369.095459 
	C757.630127,382.558960 725.110901,395.540375 693.001587,409.466858 
	C676.581421,416.588684 660.886047,425.384674 644.898438,433.493652 
	C643.815796,434.042786 643.031311,435.179718 641.683960,436.407654 
	C639.880493,437.258392 638.408203,437.572388 637.136963,438.258728 
	C627.700562,443.353333 618.199951,448.342529 608.928284,453.724548 
	C601.659912,457.943756 594.690247,462.677643 587.587830,467.182861 
	C583.022400,469.374878 578.229919,471.194305 573.926575,473.816437 
	C529.892334,500.647156 485.867615,527.495239 442.026123,554.638733 
	C434.287109,559.430176 427.422211,565.628784 420.124146,571.138550 
	C413.592133,576.069946 407.093384,581.188477 398.210907,580.634705 
	C384.484741,579.778992 376.448181,570.535461 379.507690,557.041992 
	C382.839813,542.346191 386.956299,527.673584 392.408661,513.642822 
	C407.622040,474.493744 426.265106,436.932892 448.323120,401.170715 
	C459.056244,383.769348 470.746613,366.958710 481.980255,349.865295 
	C482.882538,348.492340 483.602417,346.999481 484.376770,345.398132 
	C484.442657,344.982452 484.538757,344.730988 484.634918,344.479553 
	C484.430603,344.663300 484.226257,344.847046 484.021912,345.030762 
	C474.199524,348.571594 464.453064,352.344421 454.534363,355.590820 
	C443.651001,359.152924 432.705597,362.626190 421.592194,365.339111 
	C416.549011,366.570221 410.988495,366.405121 405.745575,365.939575 
	C395.801483,365.056519 388.800964,357.243683 388.221466,347.273285 
	C387.737122,338.939758 393.315125,331.689575 401.893311,331.054901 
	C438.984131,328.310822 472.813965,315.548767 505.289612,298.317627 
	C509.235565,296.223938 513.479431,294.589661 517.734558,293.199860 
	C530.084473,289.166138 538.908081,292.337402 546.416504,303.634766 
	C548.267578,311.660919 545.853333,318.592896 543.472290,325.665710 
	C536.703857,334.420013 530.284241,343.086060 523.642822,351.895691 
	C523.301270,352.360046 523.181580,352.680756 522.925354,353.087891 
	C522.788879,353.174286 522.701965,353.485413 522.430054,353.652893 
	C521.760742,354.537506 521.363281,355.254700 520.982910,355.985443 
	C521.000000,355.999023 520.972351,355.964569 520.732727,356.042175 
	C520.368347,356.414917 520.243530,356.709991 519.897095,357.178253 
	C519.416138,357.839569 519.156860,358.327698 518.656006,358.931335 
	C518.279663,359.363617 518.144836,359.680328 517.882202,360.083374 
	C517.754395,360.169739 517.688538,360.471100 517.390564,360.637939 
	C516.260193,362.132904 515.427795,363.460999 514.431152,364.905884 
	C514.072205,365.221985 513.952393,365.459076 513.650146,365.853119 
	C513.277954,366.319702 513.162903,366.667084 513.020386,367.014038 
	C512.992981,367.013611 513.025391,367.057983 512.830688,367.145630 
	C512.379150,367.437500 512.304993,367.694519 512.237122,368.173187 
	C512.060608,368.342133 511.903564,368.804871 511.644653,368.903839 
	C511.240845,369.326385 511.095947,369.649963 510.707214,370.140839 
	C509.930695,371.125610 509.398041,371.943054 508.562378,372.916992 
	C506.800507,375.349915 505.341644,377.626373 503.932281,379.951660 
	C503.981812,380.000427 503.903412,379.885773 503.668915,379.990662 
	C503.317749,380.404358 503.201080,380.713104 502.851990,381.177002 
	C502.375671,381.824188 502.131744,382.316254 501.592743,382.972168 
	C499.834808,385.408234 498.371918,387.680450 496.647766,390.157928 
	C470.007690,426.437103 428.788940,507.872131 429.822601,521.881897 
	C430.136078,521.802246 430.484985,521.779541 430.754242,521.621216 
	C476.799652,494.552765 522.843262,467.481201 568.859985,440.363983 
	C570.210938,439.567841 571.275879,438.286285 572.823120,437.202209 
	C574.097046,436.819214 575.078552,436.567810 575.938354,436.095032 
	C585.062561,431.078308 594.214172,426.108459 603.263733,420.959686 
	C611.277039,416.400513 619.170898,411.631439 627.117432,406.955017 
	C631.403870,404.889526 635.810791,403.039978 639.957886,400.724945 
	C678.636108,379.133789 718.955750,361.012177 759.775269,343.951538 
	C772.351440,338.695343 785.035889,333.698517 798.255920,328.281128 
	C818.108826,320.969208 837.336487,313.845978 856.659729,306.992432 
	C867.837341,303.027985 879.169189,299.498108 890.431580,295.772644 
	C904.151184,292.409607 917.820740,288.820770 931.608521,285.765350 
	C940.367859,283.824280 949.267151,282.402100 958.167725,281.237000 
	C971.107483,279.543152 979.330688,285.052094 982.186523,296.765076 
	C984.170593,304.902496 980.075439,313.507629 971.983521,315.802368 
	C960.649475,319.016541 949.034363,321.232758 937.557861,323.953461 
	C924.464905,327.057373 911.392151,330.246429 898.049622,333.678101 
	C881.632385,338.899536 865.476074,343.841400 848.668945,348.923767 
	C846.972290,349.596436 845.926514,350.128571 844.880798,350.660706 
z"/>
<path fill="#EA303B" opacity="1.000000" stroke="none" 
	d="
M146.951370,427.963074 
	C150.944519,423.438843 154.582962,418.527069 159.008957,414.475708 
	C166.831924,407.314819 174.424942,399.518799 183.371353,394.042267 
	C208.564926,378.619995 236.809265,390.832031 244.230042,419.557922 
	C249.400482,439.572662 248.881317,459.854370 246.613403,480.135529 
	C242.457260,517.302185 231.083374,552.278992 213.780334,585.354187 
	C203.174362,605.627686 191.899246,625.502625 173.665070,640.158386 
	C157.043335,653.518066 138.662369,659.919495 117.415207,652.746338 
	C113.681107,651.485657 110.203346,649.465759 105.962410,647.497192 
	C104.963028,651.785034 103.998840,655.753357 103.121368,659.740845 
	C102.442116,662.827637 101.618553,665.912354 101.298119,669.042969 
	C100.184685,679.920593 89.886551,682.155518 81.591896,677.879211 
	C73.193657,673.549316 68.512337,666.643433 69.773697,656.737366 
	C73.409203,628.186279 76.440872,599.538025 80.932426,571.121155 
	C87.011581,532.659973 93.649414,494.266113 101.076012,456.043182 
	C116.862068,374.795990 137.248779,294.646729 160.500137,215.229263 
	C166.343201,195.271622 172.522812,175.395691 179.228607,155.714172 
	C182.907761,144.915833 188.020477,141.888382 196.745239,142.852768 
	C205.525574,143.823288 213.382782,151.331528 215.002304,160.297485 
	C216.664719,169.500778 213.977692,178.120895 211.451233,186.761276 
	C194.868042,243.474731 177.898407,300.079437 161.895966,356.956299 
	C155.867477,378.383026 152.065506,400.436951 147.292511,422.214600 
	C146.938492,423.829895 146.940826,425.523315 146.649887,427.646637 
	C146.549072,428.481873 146.575851,428.850861 146.602631,429.219879 
	C146.703979,429.186462 146.889389,429.161255 146.893570,429.118347 
	C146.931000,428.735016 146.936478,428.348602 146.951370,427.963074 
M197.248703,529.691101 
	C203.228073,510.208710 207.459503,490.334320 208.560699,469.993042 
	C209.068085,460.620697 208.610992,450.962433 206.856659,441.764679 
	C204.962677,431.834686 197.801865,428.301788 188.433701,432.051697 
	C182.721695,434.338104 177.031082,437.728394 172.589218,441.947632 
	C157.076721,456.682617 147.351242,475.337646 139.329941,494.833130 
	C124.863449,529.993408 117.905304,567.122986 111.526596,604.364380 
	C111.325775,605.536865 111.982582,607.462036 112.899315,608.127625 
	C123.429382,615.773254 133.165771,619.484131 146.335220,612.999329 
	C156.836700,607.828247 164.536224,599.630249 170.955917,590.151489 
	C183.328308,571.883423 190.567474,551.330933 197.248703,529.691101 
z"/>
<path fill="#5F5C5B" opacity="1.000000" stroke="none" 
	d="
M1047.925903,560.000000 
	C1047.925903,606.949829 1047.925903,653.399597 1047.925903,700.192993 
	C1027.833618,700.192993 1008.124939,700.192993 988.117981,700.192993 
	C988.117981,544.527405 988.117981,389.176025 988.117981,233.540726 
	C1036.324951,233.540726 1084.384033,233.540726 1132.788574,233.540726 
	C1132.788574,251.876892 1132.788574,270.119171 1132.788574,288.873657 
	C1104.851929,288.873657 1076.794678,288.873657 1047.925903,288.873657 
	C1047.925903,379.420959 1047.925903,469.460480 1047.925903,560.000000 
z"/>
<path fill="#605C5B" opacity="1.000000" stroke="none" 
	d="
M587.683105,467.541992 
	C594.690247,462.677643 601.659912,457.943756 608.928284,453.724548 
	C618.199951,448.342529 627.700562,443.353333 637.136963,438.258728 
	C638.408203,437.572388 639.880493,437.258392 641.649292,436.749573 
	C645.443420,442.812439 648.924805,448.856262 652.239014,454.990356 
	C666.239563,480.903320 679.523254,507.192871 689.372986,534.989990 
	C700.481750,566.340271 706.062195,598.453430 697.996033,631.516602 
	C690.820251,660.930420 675.062622,684.517700 647.086853,697.539185 
	C623.245911,708.636108 598.079102,709.184021 573.107605,700.785950 
	C564.671936,697.948975 556.714050,693.657898 548.640503,689.815491 
	C547.469727,689.258240 546.135071,687.494873 546.125427,686.279724 
	C545.968933,666.661560 546.014832,647.041748 546.014832,627.051025 
	C552.482361,631.754395 558.416565,636.389465 564.667603,640.548401 
	C577.105530,648.823364 590.610291,652.978027 605.793091,651.037537 
	C624.436035,648.654907 641.588562,631.081970 643.176208,612.376587 
	C644.708374,594.324585 640.505005,577.138489 633.458252,560.958801 
	C623.978699,539.193237 613.051331,518.054077 602.594971,496.719788 
	C597.842163,487.022369 592.728394,477.501862 587.683105,467.541992 
z"/>
<path fill="#605C5B" opacity="1.000000" stroke="none" 
	d="
M627.027588,406.602661 
	C619.170898,411.631439 611.277039,416.400513 603.263733,420.959686 
	C594.214172,426.108459 585.062561,431.078308 575.938354,436.095032 
	C575.078552,436.567810 574.097046,436.819214 572.605652,436.868103 
	C565.307434,419.482666 557.955811,402.614868 552.009338,385.265503 
	C545.415649,366.027893 542.358887,346.047821 543.821045,325.577423 
	C545.853333,318.592896 548.267578,311.660919 546.735168,303.768555 
	C551.474548,282.137817 561.783081,264.094849 577.875122,249.477554 
	C603.746155,225.977539 633.928406,222.576248 666.430908,231.087082 
	C672.662354,232.718796 678.667419,235.286346 684.655640,237.720703 
	C686.022949,238.276535 687.827026,240.059235 687.841431,241.295761 
	C688.048218,259.062225 687.982788,276.831848 687.982788,294.732208 
	C681.692505,292.302460 675.683716,290.148804 669.807251,287.680267 
	C652.071533,280.229950 634.510254,280.459686 617.375793,289.212402 
	C610.036377,292.961548 606.112732,299.894470 603.952087,307.599518 
	C599.502319,323.467224 601.414734,339.152008 605.667603,354.782715 
	C610.584839,372.855133 618.624573,389.600708 627.027588,406.602661 
z"/>
<path fill="#E33742" opacity="1.000000" stroke="none" 
	d="
M1185.389404,733.421997 
	C1192.350220,732.274780 1198.897949,730.754211 1205.495972,730.490173 
	C1208.634277,730.364563 1211.868286,732.632690 1215.058960,733.816467 
	C1215.000000,734.646423 1214.941162,735.476318 1214.882324,736.306213 
	C1135.798462,747.619751 1064.763794,781.674988 992.130737,813.574951 
	C993.964111,815.873169 995.304016,817.916138 996.994690,819.608643 
	C1003.934814,826.556213 1011.098511,833.283752 1017.935913,840.329102 
	C1020.961609,843.446838 1023.112366,842.978271 1026.297729,840.449585 
	C1056.442871,816.518982 1087.832275,794.362488 1121.136841,775.009827 
	C1126.695557,771.779846 1132.765869,770.694275 1139.871094,773.564087 
	C1137.856689,775.225952 1136.002197,777.146240 1133.801392,778.506714 
	C1121.632080,786.029724 1108.796265,792.618286 1097.279663,801.022156 
	C1075.777344,816.712891 1055.022583,833.428345 1033.971802,849.736877 
	C1033.475220,850.121643 1033.157227,850.737244 1032.433228,851.653809 
	C1040.149292,857.384583 1047.551147,863.262817 1055.336060,868.580261 
	C1069.210327,878.056885 1083.356323,887.134888 1097.272705,896.550842 
	C1098.972778,897.701172 1099.960571,899.903992 1101.278442,901.618958 
	C1099.201050,902.274536 1097.118286,903.512573 1095.047363,903.493103 
	C1079.108521,903.343323 1065.218384,896.193909 1050.775879,890.633484 
	C1036.527100,885.147644 1021.864075,880.713196 1007.272400,876.171936 
	C1005.371338,875.580322 1002.135986,876.376709 1000.662903,877.753967 
	C984.513489,892.852844 968.542480,908.144226 952.631958,923.496277 
	C946.303467,929.602600 940.756775,936.667114 931.201233,938.063416 
	C924.852661,938.991150 923.567566,938.462708 923.410217,932.036011 
	C923.043274,917.049377 923.029419,902.051941 923.050659,887.059143 
	C923.058411,881.591125 923.570801,876.123840 923.890137,869.935120 
	C909.404114,871.078735 895.085327,870.475220 882.197632,878.475647 
	C879.576843,880.102600 875.551697,880.454224 872.415039,879.935730 
	C870.108154,879.554321 867.366394,877.147766 866.432251,874.955933 
	C865.915405,873.743225 868.278381,870.466003 870.097900,869.234192 
	C879.879944,862.611572 889.796143,856.171265 899.869080,849.999451 
	C907.808960,845.134460 916.165039,840.945190 924.062195,836.016663 
	C926.108826,834.739380 928.144165,831.950134 928.454102,829.624695 
	C930.563782,813.793640 932.208923,797.900696 934.009583,782.028381 
	C934.196716,780.379028 934.236084,778.684448 934.662048,777.096130 
	C935.897278,772.490784 938.238647,771.349609 942.878479,772.710876 
	C954.278809,776.055786 963.206055,783.155029 971.408813,791.372253 
	C972.938965,792.905029 974.451538,794.455444 975.962341,796.007385 
	C984.552246,804.831482 984.492493,804.697144 996.028870,799.687683 
	C1023.511353,787.754028 1050.548340,774.540710 1078.711426,764.497009 
	C1108.887451,753.735474 1140.138184,745.982727 1170.941650,736.991089 
	C1175.566162,735.641174 1180.308960,734.696411 1185.389404,733.421997 
M976.873535,820.327881 
	C966.575317,825.028076 956.263977,829.699890 945.997314,834.467957 
	C944.848145,835.001648 943.240234,835.946228 943.054016,836.929199 
	C941.779846,843.654419 940.828735,850.440735 939.658630,857.944031 
	C958.401062,856.779053 975.141113,861.468811 992.078125,864.841675 
	C993.171204,865.059326 994.708435,865.242065 995.452637,864.673523 
	C1002.129578,859.572632 1008.675110,854.299622 1015.533997,848.859192 
	C1004.404053,839.068909 993.985840,829.756836 983.327271,820.728577 
	C982.085327,819.676575 979.514160,820.193909 976.873535,820.327881 
M937.972046,875.620667 
	C938.257446,885.898254 937.085327,896.386780 941.992432,907.161255 
	C957.088684,895.262573 971.364807,884.010376 986.641235,871.969788 
	C969.784790,868.371399 954.195679,868.400513 938.350098,869.190735 
	C938.206299,871.380493 938.098633,873.020569 937.972046,875.620667 
M966.388123,803.131165 
	C961.547058,798.521179 956.705933,793.911255 951.864868,789.301270 
	C951.336609,789.458862 950.808350,789.616455 950.280090,789.774048 
	C948.290649,801.020020 946.301147,812.265991 944.311646,823.511902 
	C944.793823,823.770569 945.275940,824.029236 945.758118,824.287903 
	C954.513672,819.767029 963.269287,815.246155 972.457397,810.501953 
	C970.379211,807.970703 968.613708,805.820312 966.388123,803.131165 
M1038.162842,868.572693 
	C1033.883667,864.720520 1029.604370,860.868347 1025.078491,856.794128 
	C1020.294006,860.834839 1015.901855,864.544189 1010.581543,869.037415 
	C1020.002563,871.233765 1027.860718,873.157410 1035.774902,874.812683 
	C1036.972900,875.063232 1039.357300,874.326843 1039.566406,873.587036 
	C1039.934692,872.284485 1039.047974,870.627075 1038.162842,868.572693 
M925.582458,856.046997 
	C925.803406,853.208984 926.024292,850.370972 926.315796,846.626099 
	C919.140503,850.702393 912.942444,854.223511 906.744385,857.744690 
	C906.879089,858.199524 907.013794,858.654358 907.148499,859.109192 
	C913.196594,858.360718 919.244629,857.612244 925.582458,856.046997 
z"/>
<path fill="#5F5B5A" opacity="1.000000" stroke="none" 
	d="
M1238.000000,644.717163 
	C1267.133301,644.717041 1295.766479,644.717041 1324.764893,644.717041 
	C1324.764893,663.300781 1324.764893,681.521179 1324.764893,700.089844 
	C1267.598755,700.089844 1210.568481,700.089844 1153.297119,700.089844 
	C1153.297119,665.105530 1153.297119,630.348328 1153.297119,595.252808 
	C1173.092041,595.252808 1192.812500,595.252808 1213.116699,595.252808 
	C1213.116699,611.576172 1213.116699,627.803284 1213.116699,644.717285 
	C1221.619385,644.717285 1229.559692,644.717285 1238.000000,644.717163 
z"/>
<path fill="#605C5B" opacity="1.000000" stroke="none" 
	d="
M1153.069824,255.000092 
	C1153.069824,247.678238 1153.069824,240.856308 1153.069824,233.643646 
	C1208.385254,233.643646 1263.438232,233.643646 1318.886963,233.643646 
	C1318.886963,251.858109 1318.886963,270.098541 1318.886963,288.899780 
	C1284.025635,288.899780 1248.972290,288.899780 1213.343628,288.899780 
	C1213.343628,299.505585 1213.343628,309.577515 1213.343628,319.967712 
	C1193.056396,319.967712 1173.345581,319.967712 1153.069824,319.967712 
	C1153.069824,298.386200 1153.069824,276.943115 1153.069824,255.000092 
z"/>
<path fill="#E9313B" opacity="1.000000" stroke="none" 
	d="
M349.103668,415.155334 
	C338.153961,451.996979 329.833618,488.986145 326.096588,526.882446 
	C323.826294,549.904724 322.165833,572.986694 320.063416,596.026489 
	C319.734558,599.630920 318.850677,603.275879 317.627289,606.688416 
	C315.102234,613.731812 308.660339,617.801636 301.322327,617.487122 
	C294.748505,617.205383 287.196198,611.798157 285.915802,605.251953 
	C284.778320,599.436462 284.468384,593.341064 284.672852,587.399475 
	C286.504883,534.170288 291.827789,481.405823 308.166443,430.380432 
	C315.164673,408.525208 323.096130,386.964447 330.868896,365.365387 
	C332.369446,361.195740 334.778992,357.241852 337.343658,353.592041 
	C341.434357,347.770630 349.198517,345.377991 355.020660,347.585785 
	C361.994293,350.230286 365.587433,355.649078 363.869385,363.971222 
	C361.758118,374.197784 358.393341,384.169952 355.470245,394.222961 
	C353.471619,401.096497 351.301849,407.920288 349.103668,415.155334 
z"/>
<path fill="#53A707" opacity="1.000000" stroke="none" 
	d="
M1088.000244,428.608185 
	C1109.811401,428.608429 1131.122681,428.608429 1153.036865,428.608429 
	C1153.036865,412.381439 1153.036743,396.424622 1153.036743,380.467773 
	C1153.036743,364.506195 1153.036865,348.544617 1153.036865,332.255157 
	C1173.076294,332.255157 1192.664062,332.255157 1213.170532,332.255157 
	C1213.170532,334.166901 1213.170288,336.071442 1213.170654,337.976013 
	C1213.175659,366.475159 1213.313477,394.975464 1213.057373,423.472260 
	C1213.013672,428.325073 1214.648682,429.241302 1218.989258,429.218842 
	C1246.987671,429.074005 1274.987305,429.152039 1302.986450,429.156860 
	C1304.790039,429.157166 1306.593506,429.156891 1308.550903,429.156891 
	C1308.796753,430.106506 1309.172119,430.746918 1309.077271,431.307831 
	C1306.423462,446.999084 1302.549194,462.260468 1293.073975,475.478088 
	C1288.418823,481.971893 1282.512207,485.446198 1274.067017,485.269867 
	C1255.909546,484.890717 1237.735352,485.370728 1219.574219,485.093842 
	C1214.540161,485.017151 1213.011597,486.375763 1213.054810,491.497589 
	C1213.292603,519.661316 1213.173828,547.828125 1213.177246,575.993835 
	C1213.177490,577.954773 1213.177246,579.915710 1213.177246,582.180054 
	C1193.005127,582.180054 1173.406006,582.180054 1152.728638,582.180054 
	C1152.728638,535.089111 1152.728638,488.173309 1152.728638,441.257477 
	C1152.176758,441.190826 1151.624878,441.124176 1151.072998,441.057526 
	C1149.799683,445.044464 1148.587769,449.052246 1147.240723,453.014099 
	C1144.064209,462.356232 1140.696045,471.803070 1133.157959,478.497528 
	C1129.791626,481.487152 1124.813721,484.185455 1120.488037,484.312073 
	C1100.006348,484.911682 1079.497437,484.580170 1058.998169,484.560547 
	C1058.526978,484.560089 1058.056030,484.325287 1057.265381,484.114716 
	C1057.265381,465.874939 1057.265381,447.623718 1057.265381,428.607941 
	C1067.329834,428.607941 1077.415039,428.607941 1088.000244,428.608185 
M1160.269409,425.086456 
	C1159.414185,427.605408 1157.953857,430.107056 1157.881226,432.648407 
	C1157.814087,434.996399 1159.894531,437.384766 1159.901978,439.758911 
	C1160.036865,482.243195 1159.999756,524.728027 1160.000122,567.212708 
	C1160.000122,574.125671 1164.773682,578.930725 1171.926758,578.979736 
	C1183.088867,579.056213 1194.255005,578.849976 1205.412964,579.076355 
	C1209.642334,579.162109 1211.210327,577.415222 1210.993896,573.495544 
	C1210.692749,568.039062 1210.120972,562.585632 1210.089600,557.128418 
	C1209.983276,538.636963 1210.046753,520.144348 1210.088745,501.652283 
	C1210.096191,498.389374 1210.904053,495.015656 1210.315063,491.886414 
	C1208.890503,484.317902 1210.462158,482.007751 1218.100830,482.003235 
	C1237.593750,481.991760 1257.086792,481.981293 1276.579712,482.015381 
	C1280.444458,482.022156 1283.932739,481.596130 1285.725098,476.925049 
	C1287.946289,474.966858 1290.167480,473.008698 1292.360840,471.075043 
	C1290.943726,469.174469 1290.023071,467.939728 1289.074097,466.667114 
	C1291.549561,463.536346 1297.750732,467.134399 1297.941895,460.889038 
	C1298.054932,457.190491 1298.963867,453.516296 1299.610596,449.191284 
	C1299.896973,449.120117 1301.282471,448.775940 1303.054199,448.335785 
	C1302.893799,446.009979 1303.262573,443.686890 1302.486816,441.845947 
	C1301.203125,438.799011 1299.182129,436.062653 1297.471680,433.195465 
	C1298.071777,432.475952 1297.785400,432.194061 1297.498535,432.193451 
	C1270.526245,432.136993 1243.554077,432.101166 1216.581787,432.066345 
	C1212.275024,432.060791 1207.968262,432.065582 1203.022339,432.065582 
	C1203.022339,427.800720 1202.805298,423.084259 1203.184448,418.416321 
	C1203.272339,417.335358 1205.395752,416.419739 1206.582397,415.428040 
	C1206.754883,416.876007 1207.273804,418.387817 1207.021606,419.757538 
	C1206.602783,422.031616 1205.688232,424.214355 1204.589600,427.671936 
	C1210.410400,425.550232 1211.346924,422.263153 1210.846558,418.145172 
	C1210.588013,416.017822 1210.045898,413.896942 1210.037598,411.771576 
	C1209.970459,394.619110 1209.908203,377.465485 1210.045532,360.313843 
	C1210.099854,353.526489 1210.910889,346.739868 1210.818481,339.960571 
	C1210.795776,338.298065 1208.615845,335.268616 1207.363647,335.234802 
	C1194.550659,334.889252 1181.709106,334.655945 1168.907349,335.174805 
	C1160.760986,335.505035 1159.923096,336.992920 1160.014282,345.197449 
	C1160.309692,371.798676 1160.666626,398.399200 1160.269409,425.086456 
z"/>
<path fill="#615E5D" opacity="1.000000" stroke="none" 
	d="
M1238.396240,857.999878 
	C1238.396362,829.046997 1238.396362,800.594116 1238.396362,771.404602 
	C1242.333130,771.404602 1245.773682,771.302917 1249.206543,771.422424 
	C1263.166138,771.908203 1277.202271,771.704163 1291.064819,773.150085 
	C1318.938843,776.057190 1323.442017,797.910889 1317.268799,815.401733 
	C1314.655029,822.807373 1308.607788,826.959229 1301.533081,829.704651 
	C1300.155396,830.239258 1298.694092,830.558716 1296.530396,831.195557 
	C1302.941284,833.960388 1306.104492,838.849792 1308.403076,844.373413 
	C1314.022705,857.878174 1319.546631,871.422791 1325.090698,884.958923 
	C1325.521484,886.010803 1325.807861,887.121765 1326.421387,889.001953 
	C1318.105225,889.001953 1310.223755,889.128662 1302.356201,888.854675 
	C1301.273315,888.817017 1299.819702,886.970642 1299.284302,885.657288 
	C1295.204224,875.649597 1291.057617,865.656311 1287.422241,855.483276 
	C1283.034912,843.206177 1279.170044,839.446838 1262.242432,840.996521 
	C1262.242432,856.720337 1262.242432,872.489075 1262.242432,888.632019 
	C1254.298218,888.632019 1246.729980,888.632019 1238.395996,888.632019 
	C1238.395996,878.676758 1238.395996,868.588318 1238.396240,857.999878 
M1262.827148,821.831726 
	C1269.764404,821.545898 1276.734009,821.579346 1283.629028,820.877747 
	C1289.617188,820.268433 1294.017944,815.281067 1294.915771,809.235840 
	C1296.063354,801.509460 1293.552002,795.570129 1287.433472,792.918030 
	C1279.326538,789.404053 1270.721313,790.317322 1262.170410,790.066589 
	C1262.170410,800.912109 1262.170410,811.030518 1262.827148,821.831726 
z"/>
<path fill="#605B5A" opacity="1.000000" stroke="none" 
	d="
M890.402100,295.358032 
	C879.169189,299.498108 867.837341,303.027985 856.659729,306.992432 
	C837.336487,313.845978 818.108826,320.969208 798.475586,327.984131 
	C804.115540,295.409698 810.120972,262.830475 816.126038,230.252991 
	C837.079651,230.252991 857.636536,230.252991 878.492371,230.252991 
	C882.476868,251.949356 886.424805,273.446381 890.402100,295.358032 
z"/>
<path fill="#605D5D" opacity="1.000000" stroke="none" 
	d="
M622.203735,868.152710 
	C617.635010,882.572083 606.124390,887.403137 593.318787,889.932434 
	C579.576477,892.646973 564.875122,891.134216 550.147644,886.403870 
	C550.820801,879.787415 551.503479,873.078003 552.228088,865.956055 
	C561.188904,870.414001 570.243225,873.599609 580.175415,872.972961 
	C585.926392,872.610107 591.336060,871.342102 595.626343,867.023254 
	C601.094482,861.518738 601.527771,853.055420 595.134705,848.740479 
	C588.066711,843.969788 579.859619,840.906433 572.237732,836.928894 
	C567.834961,834.631287 563.293945,832.411621 559.361755,829.434875 
	C548.030029,820.856934 546.640320,808.819214 549.443115,796.119446 
	C552.478821,782.364258 562.013000,774.431091 575.342163,771.457703 
	C589.224609,768.360840 603.070801,769.581787 617.237610,773.910217 
	C616.567078,780.240601 615.912109,786.424072 615.291138,792.286316 
	C607.619446,790.913330 600.391785,789.270203 593.072327,788.389160 
	C581.127075,786.951233 572.722900,794.095093 572.921143,804.881042 
	C573.024658,810.512878 576.551086,813.780457 580.989990,815.884888 
	C588.465271,819.428833 596.335022,822.142029 603.803101,825.699585 
	C621.335754,834.051575 627.780212,848.960266 622.203735,868.152710 
z"/>
<path fill="#625E5E" opacity="1.000000" stroke="none" 
	d="
M729.006592,790.018555 
	C724.208862,790.018555 719.909363,790.018555 715.294312,790.018555 
	C715.294312,783.739624 715.294312,777.849487 715.294312,771.686279 
	C745.474121,771.686279 775.516052,771.686279 805.798706,771.686279 
	C805.798706,777.762024 805.798706,783.531494 805.798706,789.844482 
	C794.700684,789.844482 783.647766,789.844482 772.119019,789.844482 
	C772.119019,823.079285 772.119019,855.778564 772.119019,888.741760 
	C764.074707,888.741760 756.514282,888.741760 748.566162,888.741760 
	C748.566162,855.981140 748.566162,823.392578 748.566162,790.018555 
	C741.974976,790.018555 735.739929,790.018555 729.006592,790.018555 
z"/>
<path fill="#E9313C" opacity="1.000000" stroke="none" 
	d="
M377.986694,186.815674 
	C393.247681,181.650513 403.018585,187.695496 403.867096,203.332306 
	C405.076263,225.614899 396.220673,244.321304 380.895966,259.839081 
	C372.621307,268.217987 363.133026,268.907196 355.584930,263.366516 
	C349.535858,258.926239 347.701874,252.383957 347.452240,245.365021 
	C346.934692,230.813705 352.461182,218.015533 359.728241,205.883392 
	C364.267609,198.304993 369.180542,190.916229 377.986694,186.815674 
z"/>
<path fill="#FDFCFC" opacity="1.000000" stroke="none" 
	d="
M844.924683,351.097229 
	C845.926514,350.128571 846.972290,349.596436 848.336365,349.121704 
	C851.892822,369.185516 855.069580,389.202087 858.382141,409.196167 
	C864.873779,448.378571 871.440918,487.548462 877.977295,526.723450 
	C878.709167,531.110291 879.443359,535.496704 880.239807,540.262207 
	C857.902405,540.262207 836.029663,540.262207 813.458496,540.262207 
	C823.994263,477.158325 834.481445,414.346039 844.924683,351.097229 
z"/>
<path fill="#FDFCFB" opacity="1.000000" stroke="none" 
	d="
M543.472290,325.665710 
	C542.358887,346.047821 545.415649,366.027893 552.009338,385.265503 
	C557.955811,402.614868 565.307434,419.482666 572.256714,436.896942 
	C571.275879,438.286285 570.210938,439.567841 568.859985,440.363983 
	C522.843262,467.481201 476.799652,494.552765 430.754242,521.621216 
	C430.484985,521.779541 430.136078,521.802246 429.822601,521.881897 
	C428.788940,507.872131 470.007690,426.437103 497.008881,390.143677 
	C499.050171,387.552246 500.469025,385.180298 501.887848,382.808350 
	C502.131744,382.316254 502.375671,381.824188 503.081848,381.067474 
	C503.663879,380.497131 503.783630,380.191467 503.903412,379.885773 
	C503.903412,379.885773 503.981812,380.000427 504.302155,379.946167 
	C506.036804,377.514801 507.451080,375.137665 508.865387,372.760529 
	C509.398041,371.943054 509.930695,371.125610 510.960510,370.036957 
	C511.606293,369.445465 511.754913,369.125153 511.903564,368.804871 
	C511.903564,368.804871 512.060608,368.342133 512.409546,368.070404 
	C512.955383,367.590698 513.044373,367.343811 513.025391,367.057983 
	C513.025391,367.057983 512.992981,367.013611 513.262085,366.878296 
	C513.656555,366.406647 513.781982,366.070312 513.907349,365.733948 
	C513.952393,365.459076 514.072205,365.221985 514.842957,364.942993 
	C516.175537,363.399200 516.932007,361.935150 517.688538,360.471100 
	C517.688538,360.471100 517.754395,360.169739 518.128540,359.973816 
	C518.634338,359.457214 518.765991,359.136505 518.897583,358.815796 
	C519.156860,358.327698 519.416138,357.839569 520.120972,357.083923 
	C520.845459,356.600952 520.980774,356.317017 520.972351,355.964569 
	C520.972351,355.964569 521.000000,355.999023 521.348877,355.943695 
	C522.032410,355.087372 522.367188,354.286377 522.701965,353.485413 
	C522.701965,353.485413 522.788879,353.174286 523.168457,352.964783 
	C523.653564,352.420868 523.759033,352.086487 523.864563,351.752106 
	C530.284241,343.086060 536.703857,334.420013 543.472290,325.665710 
z"/>
<path fill="#FCDBDA" opacity="1.000000" stroke="none" 
	d="
M501.592773,382.972168 
	C500.469025,385.180298 499.050171,387.552246 497.270203,389.938416 
	C498.371918,387.680450 499.834808,385.408234 501.592773,382.972168 
z"/>
<path fill="#FCDBDA" opacity="1.000000" stroke="none" 
	d="
M508.562378,372.916992 
	C507.451080,375.137665 506.036804,377.514801 504.252625,379.897400 
	C505.341644,377.626373 506.800507,375.349915 508.562378,372.916992 
z"/>
<path fill="#FCDBDA" opacity="1.000000" stroke="none" 
	d="
M517.390564,360.637939 
	C516.932007,361.935150 516.175537,363.399200 515.007202,364.826172 
	C515.427795,363.460999 516.260193,362.132904 517.390564,360.637939 
z"/>
<path fill="#FCDBDA" opacity="1.000000" stroke="none" 
	d="
M522.430054,353.652893 
	C522.367188,354.286377 522.032410,355.087372 521.331787,355.930115 
	C521.363281,355.254700 521.760742,354.537506 522.430054,353.652893 
z"/>
<path fill="#FFFEFE" opacity="1.000000" stroke="none" 
	d="
M484.001617,345.003510 
	C484.226257,344.847046 484.430603,344.663300 484.634918,344.479553 
	C484.538757,344.730988 484.442657,344.982452 484.145996,345.076172 
	C483.945465,344.918427 483.981323,344.976227 484.001617,345.003510 
z"/>
<path fill="#FCDBDA" opacity="1.000000" stroke="none" 
	d="
M523.642822,351.895691 
	C523.759033,352.086487 523.653564,352.420868 523.304932,352.878357 
	C523.181580,352.680756 523.301270,352.360046 523.642822,351.895691 
z"/>
<path fill="#FCDBDA" opacity="1.000000" stroke="none" 
	d="
M520.732727,356.042175 
	C520.980774,356.317017 520.845459,356.600952 520.342590,356.910767 
	C520.243530,356.709991 520.368347,356.414917 520.732727,356.042175 
z"/>
<path fill="#FCDBDA" opacity="1.000000" stroke="none" 
	d="
M518.656006,358.931335 
	C518.765991,359.136505 518.634338,359.457214 518.256348,359.887482 
	C518.144836,359.680328 518.279663,359.363617 518.656006,358.931335 
z"/>
<path fill="#FCDBDA" opacity="1.000000" stroke="none" 
	d="
M513.650146,365.853149 
	C513.781982,366.070312 513.656555,366.406647 513.289490,366.878723 
	C513.162903,366.667084 513.277954,366.319702 513.650146,365.853149 
z"/>
<path fill="#FCDBDA" opacity="1.000000" stroke="none" 
	d="
M512.830688,367.145630 
	C513.044373,367.343811 512.955383,367.590698 512.586060,367.901459 
	C512.304993,367.694519 512.379150,367.437500 512.830688,367.145630 
z"/>
<path fill="#FCDBDA" opacity="1.000000" stroke="none" 
	d="
M511.644653,368.903839 
	C511.754913,369.125153 511.606293,369.445465 511.204346,369.869629 
	C511.095947,369.649963 511.240845,369.326385 511.644653,368.903839 
z"/>
<path fill="#FCDBDA" opacity="1.000000" stroke="none" 
	d="
M503.668915,379.990662 
	C503.783630,380.191467 503.663879,380.497131 503.314270,380.912354 
	C503.201080,380.713104 503.317749,380.404358 503.668915,379.990662 
z"/>
<path fill="#FEFCFC" opacity="1.000000" stroke="none" 
	d="
M197.149902,530.078857 
	C190.567474,551.330933 183.328308,571.883423 170.955917,590.151489 
	C164.536224,599.630249 156.836700,607.828247 146.335220,612.999329 
	C133.165771,619.484131 123.429382,615.773254 112.899315,608.127625 
	C111.982582,607.462036 111.325775,605.536865 111.526596,604.364380 
	C117.905304,567.122986 124.863449,529.993408 139.329941,494.833130 
	C147.351242,475.337646 157.076721,456.682617 172.589218,441.947632 
	C177.031082,437.728394 182.721695,434.338104 188.433701,432.051697 
	C197.801865,428.301788 204.962677,431.834686 206.856659,441.764679 
	C208.610992,450.962433 209.068085,460.620697 208.560699,469.993042 
	C207.459503,490.334320 203.228073,510.208710 197.149902,530.078857 
z"/>
<path fill="#FFFEFE" opacity="1.000000" stroke="none" 
	d="
M146.970123,427.976929 
	C146.936478,428.348602 146.931000,428.735016 146.893570,429.118347 
	C146.889389,429.161255 146.703979,429.186462 146.602631,429.219879 
	C146.575851,428.850861 146.549072,428.481873 146.773865,428.066162 
	C147.025421,428.019501 146.988892,427.990753 146.970123,427.976929 
z"/>
<path fill="#FDF8F8" opacity="1.000000" stroke="none" 
	d="
M977.216370,820.155762 
	C979.514160,820.193909 982.085327,819.676575 983.327271,820.728577 
	C993.985840,829.756836 1004.404053,839.068909 1015.533997,848.859192 
	C1008.675110,854.299622 1002.129578,859.572632 995.452637,864.673523 
	C994.708435,865.242065 993.171204,865.059326 992.078125,864.841675 
	C975.141113,861.468811 958.401062,856.779053 939.658630,857.944031 
	C940.828735,850.440735 941.779846,843.654419 943.054016,836.929199 
	C943.240234,835.946228 944.848145,835.001648 945.997314,834.467957 
	C956.263977,829.699890 966.575317,825.028076 977.216370,820.155762 
z"/>
<path fill="#FDF6F5" opacity="1.000000" stroke="none" 
	d="
M937.981445,875.140625 
	C938.098633,873.020569 938.206299,871.380493 938.350098,869.190735 
	C954.195679,868.400513 969.784790,868.371399 986.641235,871.969788 
	C971.364807,884.010376 957.088684,895.262573 941.992432,907.161255 
	C937.085327,896.386780 938.257446,885.898254 937.981445,875.140625 
z"/>
<path fill="#FCF1F0" opacity="1.000000" stroke="none" 
	d="
M966.618164,803.400513 
	C968.613708,805.820312 970.379211,807.970703 972.457397,810.501953 
	C963.269287,815.246155 954.513672,819.767029 945.758118,824.287903 
	C945.275940,824.029236 944.793823,823.770569 944.311646,823.511902 
	C946.301147,812.265991 948.290649,801.020020 950.280090,789.774048 
	C950.808350,789.616455 951.336609,789.458862 951.864868,789.301270 
	C956.705933,793.911255 961.547058,798.521179 966.618164,803.400513 
z"/>
<path fill="#FCEBEB" opacity="1.000000" stroke="none" 
	d="
M1038.424805,868.845459 
	C1039.047974,870.627075 1039.934692,872.284485 1039.566406,873.587036 
	C1039.357300,874.326843 1036.972900,875.063232 1035.774902,874.812683 
	C1027.860718,873.157410 1020.002563,871.233765 1010.581543,869.037415 
	C1015.901855,864.544189 1020.294006,860.834839 1025.078491,856.794128 
	C1029.604370,860.868347 1033.883667,864.720520 1038.424805,868.845459 
z"/>
<path fill="#FBE2E2" opacity="1.000000" stroke="none" 
	d="
M925.437622,856.455444 
	C919.244629,857.612244 913.196594,858.360718 907.148499,859.109192 
	C907.013794,858.654358 906.879089,858.199524 906.744385,857.744690 
	C912.942444,854.223511 919.140503,850.702393 926.315796,846.626099 
	C926.024292,850.370972 925.803406,853.208984 925.437622,856.455444 
z"/>
<path fill="#4FA800" opacity="1.000000" stroke="none" 
	d="
M1285.000000,477.000000 
	C1283.932739,481.596130 1280.444458,482.022156 1276.579712,482.015381 
	C1257.086792,481.981293 1237.593750,481.991760 1218.100830,482.003235 
	C1210.462158,482.007751 1208.890503,484.317902 1210.315063,491.886414 
	C1210.904053,495.015656 1210.096191,498.389374 1210.088745,501.652283 
	C1210.046753,520.144348 1209.983276,538.636963 1210.089600,557.128418 
	C1210.120972,562.585632 1210.692749,568.039062 1210.993896,573.495544 
	C1211.210327,577.415222 1209.642334,579.162109 1205.412964,579.076355 
	C1194.255005,578.849976 1183.088867,579.056213 1171.926758,578.979736 
	C1164.773682,578.930725 1160.000122,574.125671 1160.000122,567.212708 
	C1159.999756,524.728027 1160.036865,482.243195 1159.901978,439.758911 
	C1159.894531,437.384766 1157.814087,434.996399 1157.881226,432.648407 
	C1157.953857,430.107056 1159.414185,427.605408 1160.634766,425.466125 
	C1161.000000,427.728760 1161.000000,429.611786 1161.000000,432.335236 
	C1164.138062,429.223541 1163.929688,427.670410 1161.000000,425.000000 
	C1160.666626,398.399200 1160.309692,371.798676 1160.014282,345.197449 
	C1159.923096,336.992920 1160.760986,335.505035 1168.907349,335.174805 
	C1181.709106,334.655945 1194.550659,334.889252 1207.363647,335.234802 
	C1208.615845,335.268616 1210.795776,338.298065 1210.818481,339.960571 
	C1210.910889,346.739868 1210.099854,353.526489 1210.045532,360.313843 
	C1209.908203,377.465485 1209.970459,394.619110 1210.037598,411.771576 
	C1210.045898,413.896942 1210.588013,416.017822 1210.846558,418.145172 
	C1211.346924,422.263153 1210.410400,425.550232 1204.589600,427.671936 
	C1205.688232,424.214355 1206.602783,422.031616 1207.021606,419.757538 
	C1207.273804,418.387817 1206.754883,416.876007 1206.582520,415.428040 
	C1205.395752,416.419739 1203.272339,417.335358 1203.184448,418.416321 
	C1202.805298,423.084259 1203.022339,427.800720 1203.022339,432.065582 
	C1207.968262,432.065582 1212.275024,432.060791 1216.581787,432.066345 
	C1243.554077,432.101166 1270.526245,432.136993 1297.498535,432.193451 
	C1297.785400,432.194061 1298.071777,432.475952 1297.471680,433.195465 
	C1299.182129,436.062653 1301.203125,438.799011 1302.486816,441.845947 
	C1303.262573,443.686890 1302.893799,446.009979 1303.054199,448.335785 
	C1301.282471,448.775940 1299.896973,449.120117 1299.610596,449.191284 
	C1298.963867,453.516296 1298.054932,457.190491 1297.941895,460.889038 
	C1297.750732,467.134399 1291.549561,463.536346 1289.074097,466.667114 
	C1290.023071,467.939728 1290.943726,469.174469 1292.360840,471.075043 
	C1290.167480,473.008698 1287.946289,474.966858 1285.362549,476.573181 
	C1284.850342,474.901855 1284.700806,473.582428 1284.551147,472.263000 
	C1284.109985,472.182648 1283.668823,472.102295 1283.227661,472.021973 
	C1282.774170,472.955536 1281.702271,474.283203 1281.994385,474.741516 
	C1282.625000,475.730957 1283.955688,476.274231 1285.000000,477.000000 
M1205.826904,482.970154 
	C1205.183960,482.420776 1204.541138,481.871368 1202.859131,480.434082 
	C1203.670654,487.338348 1201.392578,493.282471 1205.720703,498.564636 
	C1206.683228,496.568085 1206.772461,494.594360 1206.662231,492.631866 
	C1206.495972,489.669250 1206.190674,486.714478 1205.826904,482.970154 
M1281.253418,467.315887 
	C1282.240356,467.839996 1283.227295,468.364105 1284.214233,468.888184 
	C1284.332764,468.142914 1284.451294,467.397614 1284.569824,466.652344 
	C1283.421143,466.652344 1282.272339,466.652344 1281.253418,467.315887 
z"/>
<path fill="#FDFDFC" opacity="1.000000" stroke="none" 
	d="
M1262.498779,821.490356 
	C1262.170410,811.030518 1262.170410,800.912109 1262.170410,790.066589 
	C1270.721313,790.317322 1279.326538,789.404053 1287.433472,792.918030 
	C1293.552002,795.570129 1296.063354,801.509460 1294.915771,809.235840 
	C1294.017944,815.281067 1289.617188,820.268433 1283.629028,820.877747 
	C1276.734009,821.579346 1269.764404,821.545898 1262.498779,821.490356 
z"/>
<path fill="#53A707" opacity="1.000000" stroke="none" 
	d="
M1205.885620,483.363281 
	C1206.190674,486.714478 1206.495972,489.669250 1206.662231,492.631866 
	C1206.772461,494.594360 1206.683228,496.568085 1205.720703,498.564636 
	C1201.392578,493.282471 1203.670654,487.338348 1202.859131,480.434082 
	C1204.541138,481.871368 1205.183960,482.420776 1205.885620,483.363281 
z"/>
<path fill="#53A707" opacity="1.000000" stroke="none" 
	d="
M1161.000000,425.422882 
	C1163.929688,427.670410 1164.138062,429.223541 1161.000000,432.335236 
	C1161.000000,429.611786 1161.000000,427.728760 1161.000000,425.422882 
z"/>
<path fill="#53A707" opacity="1.000000" stroke="none" 
	d="
M1285.000000,476.610657 
	C1283.955688,476.274231 1282.625000,475.730957 1281.994385,474.741516 
	C1281.702271,474.283203 1282.774170,472.955536 1283.227661,472.021973 
	C1283.668823,472.102295 1284.109985,472.182648 1284.551147,472.263000 
	C1284.700806,473.582428 1284.850342,474.901855 1285.000000,476.610657 
z"/>
<path fill="#53A707" opacity="1.000000" stroke="none" 
	d="
M1281.188477,466.984131 
	C1282.272339,466.652344 1283.421143,466.652344 1284.569824,466.652344 
	C1284.451294,467.397614 1284.332764,468.142914 1284.214233,468.888184 
	C1283.227295,468.364105 1282.240356,467.839996 1281.188477,466.984131 
z"/>
</svg>