<svg version="1.1" id="Layer_1" xmlns="http://www.w3.org/2000/svg" xmlns:xlink="http://www.w3.org/1999/xlink" x="0px" y="0px"
	 width="100%" viewBox="0 0 1024 1024" enable-background="new 0 0 1024 1024" xml:space="preserve">
<path fill="#000000" opacity="1.000000" stroke="none" 
	d="
M185.076645,594.000000 
	C185.054276,507.865784 185.031357,422.231567 185.009476,336.597351 
	C185.007477,328.828125 185.084427,328.783417 192.761490,328.787628 
	C234.579041,328.810455 276.397644,328.650940 318.213654,328.909271 
	C335.722870,329.017426 352.500519,332.609711 368.089539,341.231293 
	C387.906647,352.191254 401.033447,368.459686 407.730316,389.899963 
	C414.898315,412.848572 415.273102,436.076904 409.247864,459.329834 
	C399.578613,496.646240 369.013000,522.252441 330.474457,525.299500 
	C306.025208,527.232605 281.520050,525.887451 257.041656,526.157288 
	C248.434662,526.252136 250.048355,526.350037 249.862091,533.449280 
	C249.018600,565.597046 249.417709,597.746643 249.393860,629.894775 
	C249.390686,634.169128 247.655838,635.338013 243.721664,635.316040 
	C226.062363,635.217285 208.401001,635.198730 190.742844,635.384399 
	C186.323532,635.430786 184.934830,633.733521 185.003937,629.485718 
	C185.193604,617.826538 185.073730,606.162231 185.076645,594.000000 
M330.556244,388.922638 
	C322.052307,384.507660 312.775787,383.372833 303.448730,383.183716 
	C287.630707,382.862976 271.800903,383.157654 255.979980,382.927002 
	C251.431259,382.860718 249.979813,384.428070 249.876877,388.973969 
	C249.484741,406.290405 249.660309,423.598480 249.854462,440.912231 
	C249.944016,448.899353 249.543167,456.891083 249.554443,464.880463 
	C249.559097,468.180695 249.430222,471.920959 254.458084,471.859528 
	C274.927917,471.609314 295.475098,473.317657 315.845490,470.648956 
	C331.219086,468.634857 343.179230,461.154114 348.335480,445.589172 
	C351.597717,435.741760 351.624420,425.573853 349.835236,415.447205 
	C347.784210,403.838562 342.053864,394.689972 330.556244,388.922638 
z"/>
<path fill="#000000" opacity="1.000000" stroke="none" 
	d="
M419.843567,739.064575 
	C458.372467,753.513550 497.945038,759.352722 538.454224,756.608765 
	C604.705322,752.121094 663.380676,728.442749 713.343262,684.249878 
	C751.447815,650.545776 778.917053,609.584351 795.913025,561.662598 
	C809.115540,524.436890 813.967407,485.956085 811.522827,446.646088 
	C810.637329,432.407532 809.102966,418.116577 805.441040,404.209137 
	C804.776855,401.686768 804.887390,399.414673 806.136353,396.996521 
	C813.856384,382.049408 821.443665,367.033752 829.101624,352.054474 
	C829.839539,350.611115 830.341858,348.908844 833.421326,347.957703 
	C864.059143,433.026367 862.753113,517.294312 826.212036,599.925537 
	C767.946350,731.682861 637.062256,807.710938 499.096039,798.867615 
	C426.176208,794.193665 361.581146,767.495972 305.526581,720.643494 
	C283.413391,702.160461 264.015533,681.051270 247.807037,657.320068 
	C249.612717,655.173218 251.365952,655.514893 252.986496,655.517456 
	C266.985138,655.539978 280.984375,655.675537 294.981995,655.578064 
	C298.266113,655.555176 300.592804,656.567139 302.773956,659.035095 
	C331.237946,691.242249 365.318176,715.802490 404.527405,733.282898 
	C409.384674,735.448364 414.485504,737.067688 419.843567,739.064575 
z"/>
<path fill="#000000" opacity="1.000000" stroke="none" 
	d="
M706.004700,443.090118 
	C734.927979,387.166077 763.722046,331.591583 792.315918,275.914246 
	C794.606689,271.453644 797.189880,269.592102 802.286621,269.698761 
	C817.442566,270.015961 832.609680,269.768127 847.771912,269.839844 
	C852.973267,269.864441 853.545715,270.940094 851.271301,275.347534 
	C834.704590,307.450226 818.118958,339.543213 801.603271,371.672119 
	C775.877258,421.718414 750.215942,471.797974 724.500732,521.849792 
	C703.278198,563.157043 682.028076,604.450134 660.733765,645.720398 
	C659.874512,647.385742 659.565613,649.645691 656.960999,650.356506 
	C653.551697,647.774658 652.559692,643.513977 650.709900,639.967590 
	C624.995911,590.668396 599.463745,541.274353 573.855225,491.920074 
	C572.316956,488.955505 571.701111,486.270508 573.399292,482.993835 
	C581.593933,467.181732 589.574829,451.258972 597.672607,435.396423 
	C598.326721,434.114960 598.799133,432.545197 600.733032,432.146210 
	C603.879211,433.825653 604.533264,437.378906 606.012146,440.209930 
	C621.973633,470.763855 637.790466,501.393341 653.669128,531.990601 
	C654.405457,533.409424 654.762695,535.426941 656.816589,535.477661 
	C658.829895,535.527344 659.485474,533.631958 660.215515,532.213745 
	C675.445312,502.627411 690.630310,473.018066 706.004700,443.090118 
z"/>
<path fill="#000000" opacity="1.000000" stroke="none" 
	d="
M677.706177,219.336761 
	C647.754883,200.240295 615.770386,187.133682 581.376648,179.670609 
	C545.766052,171.943481 510.035614,171.064377 474.172729,177.058914 
	C412.506378,187.366562 359.442169,214.613541 314.989899,258.618683 
	C299.287384,274.163208 285.760681,291.439789 273.913269,310.041870 
	C272.002106,313.042633 269.884369,314.424347 266.252808,314.373596 
	C253.758698,314.199036 241.260254,314.365051 228.764160,314.288452 
	C224.001617,314.259277 223.423431,313.306580 225.506500,309.441071 
	C253.169083,258.108215 291.239105,216.291946 340.190521,184.538101 
	C369.750092,165.363388 401.564056,151.055008 435.692413,142.229935 
	C469.592834,133.463837 504.110504,129.575302 539.103455,131.846680 
	C620.635071,137.138809 691.345398,167.576035 750.828979,223.791763 
	C761.505432,233.881607 771.261597,244.784607 780.647644,256.062744 
	C782.957581,258.838379 782.961731,260.896667 781.292969,264.019440 
	C775.799988,274.298492 770.706116,284.790497 765.430847,295.186462 
	C764.614563,296.795105 764.082764,298.626465 761.214661,300.371674 
	C738.686707,268.269409 711.324646,240.766388 677.706177,219.336761 
z"/>
<path fill="#000000" opacity="1.000000" stroke="none" 
	d="
M528.840149,423.917206 
	C554.584290,373.815155 580.198792,324.062775 605.778870,274.292694 
	C607.069580,271.781403 608.448975,269.819183 611.704956,269.830688 
	C628.537476,269.890167 645.370361,269.841492 662.203125,269.847748 
	C663.194092,269.848114 664.215271,269.910553 665.770508,271.771851 
	C600.923523,397.703857 535.844360,524.086731 470.609253,650.772522 
	C467.144775,648.442322 466.305206,645.646729 465.043427,643.216980 
	C442.778595,600.343811 420.571930,557.440369 398.293274,514.574402 
	C397.008698,512.102783 396.552185,510.246185 398.803650,507.930847 
	C411.571167,494.801086 419.145447,478.859619 423.576599,461.273438 
	C423.900269,459.988861 424.227448,458.699402 424.670258,457.453918 
	C424.809143,457.063202 425.332367,456.809113 426.540100,455.708099 
	C440.656494,482.900421 454.594025,509.748199 468.531555,536.595947 
	C469.209747,536.605469 469.887909,536.614990 470.566101,536.624512 
	C489.945251,499.170776 509.324402,461.717041 528.840149,423.917206 
z"/>
<path fill="#000000" opacity="1.000000" stroke="none" 
	d="
M647.888184,799.278992 
	C646.088135,792.040466 652.057861,792.244629 655.671875,790.258240 
	C659.410950,788.203247 661.047241,790.768250 662.873413,793.300110 
	C668.621826,801.270142 674.443848,809.187073 680.256836,817.110352 
	C680.419006,817.331360 680.800232,817.391663 681.879272,817.914551 
	C681.011841,811.626648 680.252197,805.809204 679.394653,800.006287 
	C678.761780,795.723694 678.237732,791.403198 677.227905,787.204773 
	C676.306152,783.372620 677.490112,781.351013 681.125793,779.944824 
	C690.197510,776.436340 690.219177,776.556396 691.214661,786.456604 
	C692.812805,802.350464 694.666748,818.221985 696.705994,834.065186 
	C697.139343,837.432068 696.120239,839.113037 693.214905,840.164978 
	C692.119141,840.561768 690.971558,840.901184 689.982666,841.492493 
	C685.728760,844.036194 683.107788,842.424988 680.556824,838.613831 
	C675.927002,831.696655 670.879700,825.057434 665.947449,818.345764 
	C665.119019,817.218567 664.635010,815.605225 662.528320,815.371521 
	C663.158081,825.590759 664.966858,835.531494 666.582458,845.472229 
	C667.185974,849.186157 666.351929,851.226746 662.883545,852.346252 
	C661.776855,852.703430 660.654358,853.103577 659.654419,853.683044 
	C655.510742,856.084412 652.904602,854.800476 650.154541,850.981812 
	C640.420654,837.465881 630.315247,824.217590 620.348633,810.869324 
	C617.032776,806.428467 617.208252,805.739563 622.164734,803.834595 
	C630.459961,800.646423 630.437012,800.662537 635.481995,807.880188 
	C640.532837,815.106018 645.636108,822.295227 651.780457,829.257324 
	C650.505310,819.397156 649.230164,809.537048 647.888184,799.278992 
z"/>
<path fill="#000000" opacity="1.000000" stroke="none" 
	d="
M778.896851,806.088989 
	C773.167603,808.935791 767.700012,810.672180 761.883728,807.463379 
	C758.091736,805.371277 757.730286,803.296570 761.092590,800.703125 
	C764.085693,798.394470 766.564880,795.372742 771.601990,797.090393 
	C775.324707,798.359741 778.606628,795.092957 780.191040,791.617859 
	C781.916687,787.832764 780.166504,784.617126 777.344543,781.912720 
	C776.847839,782.241394 776.447205,782.355164 776.348450,782.593811 
	C772.976440,790.746094 766.950562,796.267212 758.135803,795.697937 
	C747.822632,795.031921 741.508240,787.784973 737.862854,778.584717 
	C733.328796,767.141541 739.219788,755.963623 750.991699,753.084290 
	C752.701050,752.666199 753.693054,752.319824 754.475403,750.362061 
	C755.744690,747.185547 759.120422,745.717163 761.866821,743.907959 
	C763.693420,742.704712 764.940186,744.347961 765.969849,745.676453 
	C773.216064,755.026062 780.685120,764.215942 787.607178,773.800476 
	C795.414734,784.611267 793.924316,794.147766 783.687622,802.711487 
	C782.287476,803.882751 780.720032,804.853943 778.896851,806.088989 
M749.994568,765.816101 
	C746.553284,772.363464 753.501709,780.455750 758.350342,782.381165 
	C761.987305,783.825562 766.542053,781.994019 768.212463,778.614197 
	C770.381836,774.224976 767.893555,767.411621 762.794617,763.778442 
	C758.197754,760.503174 755.017212,760.868225 749.994568,765.816101 
z"/>
<path fill="#000000" opacity="1.000000" stroke="none" 
	d="
M321.367523,841.964233 
	C313.238403,840.179993 306.600983,836.661133 301.806152,830.196228 
	C299.324097,826.849609 298.225616,823.029541 298.911713,818.899170 
	C299.369232,816.144592 300.840057,814.562439 303.794830,816.376587 
	C307.230103,818.485657 311.010681,819.782043 311.773804,825.003052 
	C312.357025,828.993286 316.321960,831.193604 320.449005,831.254944 
	C324.387665,831.313538 326.582184,828.621582 328.004974,824.675293 
	C324.059387,823.850952 320.186920,823.879211 316.821045,821.928467 
	C306.139038,815.737793 304.160522,802.831116 311.978851,791.584290 
	C319.772491,780.372925 335.035187,775.354614 345.236359,790.455261 
	C345.859680,791.377930 346.375824,791.754944 347.635712,791.509705 
	C351.591736,790.739868 353.905884,794.020874 356.850403,795.667969 
	C358.787018,796.751221 357.988129,798.529907 357.129547,800.045105 
	C350.813934,811.191284 344.652985,822.429871 338.100037,833.434937 
	C334.533630,839.424438 329.039917,842.603394 321.367523,841.964233 
M326.995850,814.735901 
	C334.223175,814.896606 339.847168,809.065674 339.791199,801.469788 
	C339.756348,796.739502 335.795898,793.029053 331.101776,793.328796 
	C326.547577,793.619568 322.302094,798.438782 320.882416,804.774109 
	C319.787659,809.659119 321.825348,812.741455 326.995850,814.735901 
z"/>
<path fill="#000000" opacity="1.000000" stroke="none" 
	d="
M251.895355,692.099731 
	C256.908813,697.882141 262.446075,702.806885 264.839539,710.080017 
	C267.366791,717.759827 264.638275,726.522217 257.936279,731.422302 
	C250.921707,736.551025 241.639130,736.745605 235.159653,731.476624 
	C231.821518,728.762085 228.739105,725.625122 226.016510,722.290833 
	C223.044540,718.651245 220.538803,718.763245 217.415161,721.930359 
	C215.082077,724.296021 212.383728,726.296753 209.954697,728.573669 
	C207.717850,730.670471 205.954758,730.821899 203.655334,728.382324 
	C196.591766,720.888306 196.473465,720.934265 204.292343,714.010559 
	C215.516083,704.071899 226.855209,694.262390 238.001450,684.238098 
	C240.911392,681.621033 243.005081,681.639648 245.396683,684.694580 
	C247.344315,687.182312 249.564224,689.456909 251.895355,692.099731 
M237.130829,704.656311 
	C235.431961,706.579102 232.705032,707.632629 232.034073,710.570740 
	C234.693497,714.017883 237.268173,717.478088 240.770950,720.070312 
	C243.730408,722.260437 246.726669,721.964783 249.401581,719.607727 
	C252.137451,717.196960 253.343735,714.168396 251.445206,710.728149 
	C250.335388,708.717163 248.842804,706.889221 247.353668,705.121094 
	C242.970444,699.916565 242.937454,699.944336 237.130829,704.656311 
z"/>
<path fill="#000000" opacity="1.000000" stroke="none" 
	d="
M724.452026,775.297729 
	C728.162842,775.918701 730.581360,777.644897 732.411987,780.515320 
	C737.686279,788.785156 741.990662,797.661743 748.005371,805.465393 
	C749.094482,806.878540 749.367371,808.358521 747.618591,809.230530 
	C744.447693,810.811646 742.129639,814.306580 737.982056,813.721497 
	C735.982971,813.439575 735.476929,815.075378 734.642395,816.207031 
	C731.694946,820.203308 727.922913,823.072754 723.316162,824.901184 
	C717.789246,827.094910 712.827087,825.837402 709.030701,821.220398 
	C704.987000,816.302734 704.502563,810.413940 707.735291,805.530273 
	C710.271057,801.699585 714.079773,799.217712 717.479492,796.299500 
	C718.734131,795.222534 720.010376,794.148010 721.115417,792.926453 
	C722.042847,791.901367 722.429565,790.623047 721.737305,789.232910 
	C720.982727,787.717529 719.726685,787.139587 718.089294,787.107788 
	C714.235107,787.033081 710.735229,790.192200 710.392883,794.106018 
	C710.097412,797.485046 704.401367,802.897034 701.145508,802.915161 
	C699.462036,802.924500 698.881592,801.724060 698.432434,800.442810 
	C697.008301,796.380554 697.542419,792.361206 699.936035,788.988525 
	C705.795166,780.733154 713.567505,775.512207 724.452026,775.297729 
M730.603943,805.606140 
	C730.207031,803.332581 729.837463,801.044128 727.373962,799.712769 
	C724.169495,801.156982 721.717346,803.591980 719.492310,806.197998 
	C717.842773,808.130188 717.586365,810.453186 719.436096,812.486816 
	C721.173340,814.396729 723.304077,813.996338 725.327332,812.959229 
	C728.059692,811.558655 730.322144,809.722595 730.603943,805.606140 
z"/>
<path fill="#000000" opacity="1.000000" stroke="none" 
	d="
M774.662659,745.866211 
	C772.062927,735.533936 776.544617,725.111023 785.300598,720.432556 
	C793.379089,716.116028 804.885071,718.162964 811.497498,724.936401 
	C813.884766,727.381775 813.805664,729.309082 811.313171,731.637695 
	C806.695862,735.951538 802.237732,740.437988 797.777161,744.916260 
	C796.515198,746.183228 794.940430,747.269714 794.417542,749.506714 
	C796.215149,752.181458 799.012268,752.483337 801.740479,751.539612 
	C805.810974,750.131653 808.756409,747.052368 808.613708,742.681030 
	C808.468506,738.230957 811.271301,736.135254 813.881165,733.659180 
	C815.924011,731.721069 817.486694,732.393250 818.449036,734.794189 
	C819.634277,737.751465 820.385315,740.762817 819.835022,744.034424 
	C818.202576,753.738708 809.709595,762.162720 799.796021,763.773926 
	C791.383362,765.141174 781.375793,759.387695 776.578613,750.373840 
	C775.878601,749.058350 775.381958,747.634583 774.662659,745.866211 
M785.627014,740.243042 
	C786.162781,740.561096 786.998474,741.280884 787.190002,741.137939 
	C790.929321,738.345947 794.686523,735.540100 797.363464,731.327881 
	C789.532715,728.604126 785.312561,731.788879 785.627014,740.243042 
z"/>
<path fill="#000000" opacity="1.000000" stroke="none" 
	d="
M610.186279,830.818726 
	C613.327881,834.416443 614.953674,838.363831 616.368042,842.495483 
	C617.761719,846.566345 616.309265,848.392395 612.338745,849.059998 
	C606.436768,850.052368 600.553772,851.162720 594.676392,852.293579 
	C592.763367,852.661743 590.892944,853.251343 588.818970,853.787231 
	C589.056335,857.767029 591.173767,859.667786 594.296082,860.378357 
	C598.155579,861.256836 601.959839,860.317444 604.066284,856.995544 
	C606.253845,853.545593 609.357544,852.781616 612.798584,852.129944 
	C616.131653,851.498718 617.725769,852.694031 616.741028,856.161560 
	C615.731995,859.714539 614.272766,863.076721 611.316223,865.514832 
	C604.512207,871.125793 596.705566,872.824219 588.395752,870.221130 
	C579.728210,867.506042 575.341370,860.614685 573.907898,852.090332 
	C571.320007,836.701294 581.644226,824.428040 596.482910,824.795471 
	C601.704346,824.924683 606.108582,827.096008 610.186279,830.818726 
M594.482605,835.998901 
	C588.252136,837.038513 587.004150,838.377258 588.001099,843.191101 
	C592.577759,843.325623 597.043762,842.786987 601.566772,840.852783 
	C600.677429,837.311523 598.144775,836.453918 594.482605,835.998901 
z"/>
<path fill="#000000" opacity="1.000000" stroke="none" 
	d="
M414.938843,845.172974 
	C409.192749,843.304565 403.841370,841.492126 398.467987,839.747559 
	C397.062012,839.291016 395.486206,838.733154 394.316864,840.177979 
	C393.224121,841.528320 393.792755,843.078064 394.303711,844.462769 
	C395.919006,848.840149 402.722595,851.163147 407.558685,848.991577 
	C408.901672,848.388428 410.073517,847.040466 411.657806,847.517029 
	C414.444916,848.355591 418.394043,848.181152 419.344086,851.231628 
	C420.306213,854.320923 416.829010,856.000427 414.627502,857.552856 
	C407.523682,862.561890 400.093353,861.421997 392.879211,857.854797 
	C385.194397,854.054871 380.767059,847.508667 381.035339,839.059021 
	C381.714355,817.671570 398.847778,810.122192 413.240326,816.334900 
	C422.968628,820.534363 428.297333,834.726990 423.530731,844.293884 
	C421.241760,848.888123 418.094330,845.251465 414.938843,845.172974 
M406.013336,825.316589 
	C402.633484,824.929565 399.501556,825.063843 397.781067,829.227051 
	C402.584625,831.518799 407.207977,833.140808 412.385712,833.490967 
	C412.981232,828.525574 410.393188,826.616821 406.013336,825.316589 
z"/>
<path fill="#000000" opacity="1.000000" stroke="none" 
	d="
M309.383606,767.937134 
	C315.035767,781.974976 308.027863,797.275696 293.969543,801.403320 
	C284.336853,804.231567 276.640625,799.890198 270.509033,792.918335 
	C264.281525,785.837463 263.541016,777.523132 267.852692,769.231262 
	C271.932465,761.385437 277.902802,755.273865 287.427734,755.018127 
	C297.044067,754.760010 304.170044,759.548645 309.383606,767.937134 
M278.978180,776.510742 
	C276.818359,782.696716 277.753479,786.271667 282.243378,788.993896 
	C286.196777,791.390869 290.364014,790.362671 294.514984,785.900146 
	C296.447327,783.822815 297.983459,781.502930 298.996490,778.802429 
	C300.564758,774.621948 299.400177,771.271667 296.027344,768.675720 
	C292.753632,766.156006 289.200348,766.398682 285.812164,768.462524 
	C282.910095,770.230347 281.012299,772.989258 278.978180,776.510742 
z"/>
<path fill="#000000" opacity="1.000000" stroke="none" 
	d="
M828.009033,718.334351 
	C833.565063,719.104858 837.641235,716.634521 838.607056,712.189880 
	C838.934143,710.684692 839.012817,709.156067 837.681580,708.042297 
	C836.291138,706.879028 834.825806,707.312500 833.539551,708.219849 
	C830.007507,710.711426 826.553162,713.313049 823.025208,715.810486 
	C816.897156,720.148621 811.370300,720.456543 806.968811,716.770386 
	C801.807007,712.447449 800.786804,706.417603 804.023071,699.616272 
	C806.500732,694.409058 809.843933,689.927490 814.709656,686.711365 
	C816.952698,685.228760 819.357910,683.925293 822.075500,683.887512 
	C825.553223,683.838989 829.488953,683.786987 830.809204,687.876465 
	C831.626099,690.406921 824.953186,696.368896 821.946289,696.299561 
	C821.449158,696.288086 820.941040,696.116150 820.459229,696.179749 
	C816.820496,696.659363 815.249451,699.451782 813.838623,702.314148 
	C813.202271,703.605103 813.989990,704.657593 815.146240,705.143005 
	C818.053711,706.363647 819.819214,704.092834 821.698364,702.632690 
	C824.973267,700.088013 828.233215,697.568237 831.659607,695.197937 
	C839.965698,689.451904 851.089905,697.854736 850.682373,707.908691 
	C850.310364,717.088989 840.527466,728.591370 831.491760,730.673401 
	C827.092407,731.687134 820.979492,730.085205 820.097473,727.687561 
	C819.299072,725.517212 823.596741,720.136719 828.009033,718.334351 
z"/>
<path fill="#000000" opacity="1.000000" stroke="none" 
	d="
M495.284729,877.680542 
	C489.004333,878.700989 483.644165,876.833862 478.421906,874.586182 
	C475.474396,873.317566 472.984314,871.237671 471.507355,868.313477 
	C470.064026,865.455933 467.551392,862.275696 471.126312,859.447571 
	C473.311035,857.719299 480.901123,860.445801 482.348297,862.989502 
	C484.714233,867.148132 490.102173,869.029602 493.869598,866.893127 
	C496.667114,865.306824 497.457214,863.338440 494.323303,861.247864 
	C490.944672,858.994141 486.984558,858.182617 483.204803,856.911560 
	C473.539429,853.661316 470.003479,847.799011 472.639771,839.777283 
	C473.701660,836.546265 475.731506,834.263855 478.792633,832.962952 
	C486.641510,829.627441 494.434174,830.316467 502.019196,833.775635 
	C503.775757,834.576721 505.541138,835.925537 506.634430,837.489380 
	C508.576782,840.267822 511.121613,843.377930 508.858643,846.954468 
	C507.523834,849.064026 498.992462,846.839355 496.966309,844.210388 
	C496.272430,843.309753 495.511414,842.123962 494.548767,841.830566 
	C491.628693,840.940735 487.644806,838.895691 486.042145,842.508301 
	C484.392670,846.226440 488.858795,846.507385 491.218964,847.513306 
	C494.119904,848.749695 497.149078,849.697632 500.153625,850.675659 
	C505.745667,852.495789 509.340271,856.089966 509.854187,862.080261 
	C510.339203,867.734314 506.960358,872.858093 501.288483,875.506836 
	C499.490784,876.346375 497.565582,876.912903 495.284729,877.680542 
z"/>
<path fill="#000000" opacity="1.000000" stroke="none" 
	d="
M444.431946,839.557617 
	C448.712219,841.788635 452.768707,843.706238 456.742126,845.782837 
	C463.436646,849.281433 466.242950,854.226074 465.031860,860.120056 
	C463.710876,866.548645 458.804260,870.994690 451.604248,871.527405 
	C444.871002,872.025635 438.338562,870.962463 432.482788,867.171509 
	C430.189514,865.686890 428.216431,863.869019 427.023926,861.463257 
	C425.435303,858.258606 423.101807,854.641663 426.743652,851.565979 
	C429.174957,849.512695 436.811462,853.049988 438.166351,856.562378 
	C439.864624,860.965027 443.463715,861.742676 447.471710,861.577881 
	C449.347961,861.500549 451.122040,860.641968 451.506989,858.484558 
	C451.865387,856.476257 450.417206,855.427368 448.897888,854.666992 
	C445.031036,852.731750 441.035126,851.042908 437.233154,848.991760 
	C429.360748,844.744812 427.295013,838.380188 431.250305,831.171265 
	C434.278107,825.652893 442.233032,823.345459 450.922607,825.465027 
	C461.178864,827.966736 467.026794,833.187988 467.214935,839.914062 
	C467.300171,842.961304 466.166290,844.196716 462.985474,843.527161 
	C459.279236,842.747131 455.619354,842.697693 453.870300,838.025574 
	C452.767517,835.079895 449.019226,834.529419 446.026306,834.722046 
	C443.101715,834.910339 442.517822,836.856567 444.431946,839.557617 
z"/>
<path fill="#000000" opacity="1.000000" stroke="none" 
	d="
M547.018188,874.250610 
	C541.548218,862.031555 536.353394,850.130798 530.986877,838.307983 
	C529.499695,835.031555 530.572571,833.740845 533.783447,833.159607 
	C541.488525,831.764771 542.885315,832.481079 545.844727,839.660400 
	C548.170471,845.302429 550.513733,850.937195 553.271606,857.594788 
	C555.865967,850.763672 556.759216,844.725342 558.088989,838.808716 
	C559.890564,830.792969 563.276184,829.014160 572.132629,831.873474 
	C571.650513,834.707275 571.321472,837.653625 570.631714,840.512939 
	C568.177612,850.685913 565.558960,860.819153 563.096069,870.989990 
	C562.375000,873.967407 560.786499,875.843140 557.649841,875.794739 
	C554.150452,875.740906 550.369995,877.815308 547.018188,874.250610 
z"/>
<path fill="#000000" opacity="1.000000" stroke="none" 
	d="
M235.593475,762.167114 
	C234.125931,759.513000 235.884964,758.039429 237.141830,756.627441 
	C244.665482,748.174866 252.231186,739.758179 259.894562,731.432251 
	C262.806854,728.268250 269.607147,731.112610 270.982574,736.582275 
	C271.752167,739.642639 272.964691,740.802612 275.804321,741.019836 
	C276.598846,741.080627 277.403412,741.497131 278.128693,741.888794 
	C280.573334,743.208679 284.099152,744.161743 283.682281,747.500732 
	C283.261078,750.874084 280.064056,752.968567 277.475983,755.002991 
	C275.949493,756.202942 274.807617,754.522400 273.669373,753.593628 
	C267.734589,748.750854 262.885864,748.941406 257.438995,754.449097 
	C254.044907,757.881104 250.902054,761.560425 247.612885,765.097473 
	C243.317963,769.716187 243.298996,769.707825 238.640778,765.288757 
	C237.674789,764.372375 236.757187,763.404968 235.593475,762.167114 
z"/>
<path fill="#000000" opacity="1.000000" stroke="none" 
	d="
M386.094910,818.939819 
	C384.089905,820.319336 382.655212,819.052063 381.140747,818.549377 
	C374.656494,816.397461 370.205383,818.149109 367.210236,824.391602 
	C364.765015,829.487976 362.528503,834.688660 360.332886,839.899353 
	C357.907440,845.655457 354.383514,841.994629 351.294678,840.965576 
	C347.998779,839.867615 346.516815,838.067810 348.301453,834.182373 
	C352.883331,824.206665 357.001862,814.019043 361.427490,803.969849 
	C362.288025,802.015991 362.596466,798.556580 365.696167,799.460205 
	C369.105286,800.454102 373.479004,800.718750 374.620972,805.377319 
	C374.771423,805.990906 374.475098,806.731018 375.405518,807.237732 
	C378.314026,806.843323 381.276672,805.635376 384.535767,806.480591 
	C389.784790,807.841919 390.607635,809.203003 388.468018,814.172668 
	C387.812225,815.695923 387.059235,817.177246 386.094910,818.939819 
z"/>
<path fill="#000000" opacity="1.000000" stroke="none" 
	d="
M515.734131,873.668213 
	C515.700439,861.702942 515.784729,850.204224 515.604553,838.709656 
	C515.543640,834.818726 516.585571,832.756958 520.889893,832.880310 
	C524.892151,832.995056 528.870972,832.651306 528.893494,838.369568 
	C528.939453,850.032043 528.968140,861.694641 529.055298,873.356812 
	C529.076721,876.216980 527.767944,878.007263 524.950806,877.812500 
	C521.578979,877.579346 516.902954,880.072144 515.734131,873.668213 
z"/>
<path fill="#000000" opacity="1.000000" stroke="none" 
	d="
M527.732117,827.339478 
	C525.618103,829.098755 523.431580,828.866638 521.289429,828.970520 
	C516.911743,829.182861 515.054504,827.270142 515.040894,822.784912 
	C515.026855,818.166016 517.035828,816.735596 521.401672,816.861816 
	C528.402710,817.064270 529.009888,817.808411 527.732117,827.339478 
z"/>
</svg>