<svg width="720" height="500" viewBox="0 0 720 500" fill="none" xmlns="http://www.w3.org/2000/svg">
<rect width="220" height="60" transform="translate(250 40)" fill="#031D45"/>
<rect x="250" y="40" width="4" height="60" fill="#00C1E6"/>
<path d="M303.936 75V65.315H305.704V70.359L305.223 70.19L309.344 65.315H311.567L307.706 69.891L307.81 68.643L311.684 75H309.604L307.004 70.736L305.704 72.283V75H303.936ZM312.616 75V67.928H314.319V75H312.616ZM312.616 67.135V65.315H314.319V67.135H312.616ZM315.892 75V67.928H317.491V69.319L317.361 69.072C317.525 68.6473 317.794 68.3267 318.167 68.11C318.548 67.8847 318.99 67.772 319.493 67.772C320.013 67.772 320.472 67.8847 320.871 68.11C321.278 68.3353 321.594 68.6517 321.82 69.059C322.045 69.4577 322.158 69.9213 322.158 70.45V75H320.455V70.853C320.455 70.541 320.394 70.2723 320.273 70.047C320.151 69.8217 319.982 69.6483 319.766 69.527C319.558 69.397 319.311 69.332 319.025 69.332C318.747 69.332 318.5 69.397 318.284 69.527C318.067 69.6483 317.898 69.8217 317.777 70.047C317.655 70.2723 317.595 70.541 317.595 70.853V75H315.892ZM330.64 75.156C329.947 75.156 329.306 75.0303 328.716 74.779C328.127 74.5277 327.611 74.1767 327.169 73.726C326.727 73.2753 326.381 72.7467 326.129 72.14C325.887 71.5333 325.765 70.8703 325.765 70.151C325.765 69.4317 325.882 68.7687 326.116 68.162C326.359 67.5467 326.697 67.018 327.13 66.576C327.572 66.1253 328.088 65.7787 328.677 65.536C329.267 65.2847 329.908 65.159 330.601 65.159C331.295 65.159 331.914 65.276 332.46 65.51C333.015 65.744 333.483 66.056 333.864 66.446C334.246 66.8273 334.519 67.2477 334.683 67.707L333.11 68.461C332.928 67.9583 332.621 67.551 332.187 67.239C331.754 66.927 331.225 66.771 330.601 66.771C329.995 66.771 329.457 66.914 328.989 67.2C328.53 67.486 328.17 67.8803 327.91 68.383C327.659 68.8857 327.533 69.475 327.533 70.151C327.533 70.827 327.663 71.4207 327.923 71.932C328.192 72.4347 328.56 72.829 329.028 73.115C329.496 73.401 330.034 73.544 330.64 73.544C331.134 73.544 331.589 73.4487 332.005 73.258C332.421 73.0587 332.755 72.7813 333.006 72.426C333.258 72.062 333.383 71.633 333.383 71.139V70.398L334.189 71.1H330.601V69.605H335.151V70.58C335.151 71.3253 335.026 71.984 334.774 72.556C334.523 73.128 334.181 73.609 333.747 73.999C333.323 74.3803 332.842 74.6707 332.304 74.87C331.767 75.0607 331.212 75.156 330.64 75.156ZM336.407 75V65.159H338.11V75H336.407ZM343.141 75.156C342.447 75.156 341.815 74.9957 341.243 74.675C340.679 74.3543 340.229 73.9167 339.891 73.362C339.561 72.8073 339.397 72.1747 339.397 71.464C339.397 70.7533 339.561 70.1207 339.891 69.566C340.229 69.0113 340.679 68.5737 341.243 68.253C341.806 67.9323 342.439 67.772 343.141 67.772C343.834 67.772 344.462 67.9323 345.026 68.253C345.589 68.5737 346.035 69.0113 346.365 69.566C346.703 70.112 346.872 70.7447 346.872 71.464C346.872 72.1747 346.703 72.8073 346.365 73.362C346.027 73.9167 345.576 74.3543 345.013 74.675C344.449 74.9957 343.825 75.156 343.141 75.156ZM343.141 73.596C343.522 73.596 343.856 73.505 344.142 73.323C344.436 73.141 344.666 72.8897 344.831 72.569C345.004 72.2397 345.091 71.8713 345.091 71.464C345.091 71.048 345.004 70.684 344.831 70.372C344.666 70.0513 344.436 69.8 344.142 69.618C343.856 69.4273 343.522 69.332 343.141 69.332C342.751 69.332 342.408 69.4273 342.114 69.618C341.819 69.8 341.585 70.0513 341.412 70.372C341.247 70.684 341.165 71.048 341.165 71.464C341.165 71.8713 341.247 72.2397 341.412 72.569C341.585 72.8897 341.819 73.141 342.114 73.323C342.408 73.505 342.751 73.596 343.141 73.596ZM352.024 75.156C351.513 75.156 351.04 75.0563 350.607 74.857C350.182 74.649 349.844 74.3543 349.593 73.973L349.762 73.635V75H348.163V65.159H349.866V69.332L349.606 68.981C349.849 68.5997 350.178 68.305 350.594 68.097C351.01 67.8803 351.491 67.772 352.037 67.772C352.704 67.772 353.307 67.9367 353.844 68.266C354.381 68.5953 354.806 69.0373 355.118 69.592C355.439 70.1467 355.599 70.7707 355.599 71.464C355.599 72.1487 355.443 72.7727 355.131 73.336C354.819 73.8993 354.394 74.3457 353.857 74.675C353.32 74.9957 352.709 75.156 352.024 75.156ZM351.829 73.596C352.219 73.596 352.566 73.505 352.869 73.323C353.172 73.141 353.406 72.8897 353.571 72.569C353.744 72.2483 353.831 71.88 353.831 71.464C353.831 71.048 353.744 70.684 353.571 70.372C353.406 70.0513 353.172 69.8 352.869 69.618C352.566 69.4273 352.219 69.332 351.829 69.332C351.456 69.332 351.118 69.423 350.815 69.605C350.52 69.787 350.286 70.0427 350.113 70.372C349.948 70.6927 349.866 71.0567 349.866 71.464C349.866 71.88 349.948 72.2483 350.113 72.569C350.286 72.8897 350.52 73.141 350.815 73.323C351.118 73.505 351.456 73.596 351.829 73.596ZM359.042 75.156C358.548 75.156 358.119 75.0737 357.755 74.909C357.391 74.7443 357.11 74.5103 356.91 74.207C356.711 73.895 356.611 73.5353 356.611 73.128C356.611 72.738 356.698 72.3913 356.871 72.088C357.045 71.776 357.313 71.516 357.677 71.308C358.041 71.1 358.501 70.9527 359.055 70.866L361.369 70.489V71.789L359.38 72.127C359.042 72.1877 358.791 72.296 358.626 72.452C358.462 72.608 358.379 72.8117 358.379 73.063C358.379 73.3057 358.47 73.5007 358.652 73.648C358.843 73.7867 359.077 73.856 359.354 73.856C359.71 73.856 360.022 73.7823 360.29 73.635C360.568 73.479 360.78 73.2667 360.927 72.998C361.083 72.7293 361.161 72.4347 361.161 72.114V70.294C361.161 69.9907 361.04 69.7393 360.797 69.54C360.563 69.332 360.251 69.228 359.861 69.228C359.497 69.228 359.172 69.3277 358.886 69.527C358.609 69.7177 358.405 69.9733 358.275 70.294L356.884 69.618C357.023 69.2453 357.24 68.9247 357.534 68.656C357.838 68.3787 358.193 68.162 358.6 68.006C359.008 67.85 359.45 67.772 359.926 67.772C360.507 67.772 361.018 67.8803 361.46 68.097C361.902 68.305 362.245 68.5997 362.487 68.981C362.739 69.3537 362.864 69.7913 362.864 70.294V75H361.252V73.791L361.616 73.765C361.434 74.0683 361.218 74.324 360.966 74.532C360.715 74.7313 360.429 74.8873 360.108 75C359.788 75.104 359.432 75.156 359.042 75.156ZM364.439 75V65.159H366.142V75H364.439ZM370.167 75V65.315H371.935V73.44H376.082V75H370.167ZM377.083 75V67.928H378.786V75H377.083ZM377.083 67.135V65.315H378.786V67.135H377.083ZM380.358 75V67.928H381.957V69.566L381.775 69.293C381.905 68.7817 382.165 68.4003 382.555 68.149C382.945 67.8977 383.405 67.772 383.933 67.772C384.514 67.772 385.025 67.9237 385.467 68.227C385.909 68.5303 386.195 68.929 386.325 69.423L385.844 69.462C386.061 68.8987 386.386 68.4783 386.819 68.201C387.253 67.915 387.751 67.772 388.314 67.772C388.817 67.772 389.263 67.8847 389.653 68.11C390.052 68.3353 390.364 68.6517 390.589 69.059C390.815 69.4577 390.927 69.9213 390.927 70.45V75H389.224V70.853C389.224 70.541 389.168 70.2723 389.055 70.047C388.943 69.8217 388.787 69.6483 388.587 69.527C388.388 69.397 388.145 69.332 387.859 69.332C387.591 69.332 387.352 69.397 387.144 69.527C386.936 69.6483 386.776 69.8217 386.663 70.047C386.551 70.2723 386.494 70.541 386.494 70.853V75H384.791V70.853C384.791 70.541 384.735 70.2723 384.622 70.047C384.51 69.8217 384.349 69.6483 384.141 69.527C383.942 69.397 383.704 69.332 383.426 69.332C383.158 69.332 382.919 69.397 382.711 69.527C382.503 69.6483 382.343 69.8217 382.23 70.047C382.118 70.2723 382.061 70.541 382.061 70.853V75H380.358ZM392.368 75V67.928H394.071V75H392.368ZM392.368 67.135V65.315H394.071V67.135H392.368ZM398.868 75.078C398.07 75.078 397.451 74.8613 397.009 74.428C396.575 73.986 396.359 73.3663 396.359 72.569V69.449H395.137V67.928H395.267C395.613 67.928 395.882 67.837 396.073 67.655C396.263 67.473 396.359 67.2087 396.359 66.862V66.316H398.062V67.928H399.687V69.449H398.062V72.478C398.062 72.712 398.101 72.9113 398.179 73.076C398.265 73.2407 398.395 73.3663 398.569 73.453C398.751 73.5397 398.98 73.583 399.258 73.583C399.318 73.583 399.388 73.5787 399.466 73.57C399.552 73.5613 399.635 73.5527 399.713 73.544V75C399.591 75.0173 399.453 75.0347 399.297 75.052C399.141 75.0693 398.998 75.078 398.868 75.078ZM404.304 75.156C403.576 75.156 402.939 74.9913 402.393 74.662C401.847 74.3327 401.423 73.8863 401.119 73.323C400.816 72.7597 400.664 72.1357 400.664 71.451C400.664 70.7403 400.816 70.112 401.119 69.566C401.431 69.0113 401.852 68.5737 402.38 68.253C402.918 67.9323 403.516 67.772 404.174 67.772C404.729 67.772 405.214 67.863 405.63 68.045C406.055 68.227 406.415 68.4783 406.709 68.799C407.004 69.1197 407.229 69.488 407.385 69.904C407.541 70.3113 407.619 70.7533 407.619 71.23C407.619 71.3513 407.611 71.477 407.593 71.607C407.585 71.737 407.563 71.8497 407.528 71.945H402.068V70.645H406.566L405.76 71.256C405.838 70.8573 405.817 70.502 405.695 70.19C405.583 69.878 405.392 69.631 405.123 69.449C404.863 69.267 404.547 69.176 404.174 69.176C403.819 69.176 403.503 69.267 403.225 69.449C402.948 69.6223 402.736 69.8823 402.588 70.229C402.45 70.567 402.398 70.9787 402.432 71.464C402.398 71.8973 402.454 72.283 402.601 72.621C402.757 72.9503 402.983 73.206 403.277 73.388C403.581 73.57 403.927 73.661 404.317 73.661C404.707 73.661 405.037 73.5787 405.305 73.414C405.583 73.2493 405.799 73.0283 405.955 72.751L407.333 73.427C407.195 73.765 406.978 74.064 406.683 74.324C406.389 74.584 406.038 74.7877 405.63 74.935C405.232 75.0823 404.79 75.156 404.304 75.156ZM412.199 75.156C411.515 75.156 410.904 74.9957 410.366 74.675C409.829 74.3457 409.404 73.8993 409.092 73.336C408.78 72.7727 408.624 72.1487 408.624 71.464C408.624 70.7707 408.78 70.1467 409.092 69.592C409.404 69.0373 409.829 68.5953 410.366 68.266C410.912 67.9367 411.519 67.772 412.186 67.772C412.724 67.772 413.2 67.8803 413.616 68.097C414.041 68.305 414.375 68.5997 414.617 68.981L414.357 69.332V65.159H416.06V75H414.448V73.635L414.63 73.973C414.388 74.3543 414.05 74.649 413.616 74.857C413.183 75.0563 412.711 75.156 412.199 75.156ZM412.381 73.596C412.771 73.596 413.114 73.505 413.408 73.323C413.703 73.141 413.933 72.8897 414.097 72.569C414.271 72.2483 414.357 71.88 414.357 71.464C414.357 71.0567 414.271 70.6927 414.097 70.372C413.933 70.0427 413.703 69.787 413.408 69.605C413.114 69.423 412.771 69.332 412.381 69.332C412 69.332 411.658 69.4273 411.354 69.618C411.051 69.8 410.813 70.0513 410.639 70.372C410.475 70.684 410.392 71.048 410.392 71.464C410.392 71.88 410.475 72.2483 410.639 72.569C410.813 72.8897 411.051 73.141 411.354 73.323C411.658 73.505 412 73.596 412.381 73.596Z" fill="white"/>
<rect width="220" height="60" transform="translate(250 160)" fill="#031D45"/>
<path d="M286.936 195V185.315H288.704V190.359L288.223 190.19L292.344 185.315H294.567L290.706 189.891L290.81 188.643L294.684 195H292.604L290.004 190.736L288.704 192.283V195H286.936ZM295.616 195V187.928H297.319V195H295.616ZM295.616 187.135V185.315H297.319V187.135H295.616ZM298.892 195V187.928H300.491V189.319L300.361 189.072C300.525 188.647 300.794 188.327 301.167 188.11C301.548 187.885 301.99 187.772 302.493 187.772C303.013 187.772 303.472 187.885 303.871 188.11C304.278 188.335 304.594 188.652 304.82 189.059C305.045 189.458 305.158 189.921 305.158 190.45V195H303.455V190.853C303.455 190.541 303.394 190.272 303.273 190.047C303.151 189.822 302.982 189.648 302.766 189.527C302.558 189.397 302.311 189.332 302.025 189.332C301.747 189.332 301.5 189.397 301.284 189.527C301.067 189.648 300.898 189.822 300.777 190.047C300.655 190.272 300.595 190.541 300.595 190.853V195H298.892ZM309.051 195V185.315H312.665C313.324 185.315 313.905 185.436 314.407 185.679C314.919 185.913 315.317 186.26 315.603 186.719C315.889 187.17 316.032 187.72 316.032 188.37C316.032 189.011 315.885 189.562 315.59 190.021C315.304 190.472 314.91 190.818 314.407 191.061C313.905 191.304 313.324 191.425 312.665 191.425H310.819V195H309.051ZM310.819 189.865H312.691C313.012 189.865 313.289 189.804 313.523 189.683C313.757 189.553 313.939 189.375 314.069 189.15C314.199 188.925 314.264 188.665 314.264 188.37C314.264 188.067 314.199 187.807 314.069 187.59C313.939 187.365 313.757 187.191 313.523 187.07C313.289 186.94 313.012 186.875 312.691 186.875H310.819V189.865ZM317.338 195V187.928H318.937V189.501L318.807 189.267C318.972 188.738 319.227 188.37 319.574 188.162C319.929 187.954 320.354 187.85 320.848 187.85H321.264V189.358H320.653C320.168 189.358 319.778 189.51 319.483 189.813C319.188 190.108 319.041 190.524 319.041 191.061V195H317.338ZM325.658 195.156C324.965 195.156 324.332 194.996 323.76 194.675C323.197 194.354 322.746 193.917 322.408 193.362C322.079 192.807 321.914 192.175 321.914 191.464C321.914 190.753 322.079 190.121 322.408 189.566C322.746 189.011 323.197 188.574 323.76 188.253C324.324 187.932 324.956 187.772 325.658 187.772C326.352 187.772 326.98 187.932 327.543 188.253C328.107 188.574 328.553 189.011 328.882 189.566C329.22 190.112 329.389 190.745 329.389 191.464C329.389 192.175 329.22 192.807 328.882 193.362C328.544 193.917 328.094 194.354 327.53 194.675C326.967 194.996 326.343 195.156 325.658 195.156ZM325.658 193.596C326.04 193.596 326.373 193.505 326.659 193.323C326.954 193.141 327.184 192.89 327.348 192.569C327.522 192.24 327.608 191.871 327.608 191.464C327.608 191.048 327.522 190.684 327.348 190.372C327.184 190.051 326.954 189.8 326.659 189.618C326.373 189.427 326.04 189.332 325.658 189.332C325.268 189.332 324.926 189.427 324.631 189.618C324.337 189.8 324.103 190.051 323.929 190.372C323.765 190.684 323.682 191.048 323.682 191.464C323.682 191.871 323.765 192.24 323.929 192.569C324.103 192.89 324.337 193.141 324.631 193.323C324.926 193.505 325.268 193.596 325.658 193.596ZM333.97 195.156C333.285 195.156 332.674 194.996 332.137 194.675C331.599 194.346 331.175 193.899 330.863 193.336C330.551 192.773 330.395 192.149 330.395 191.464C330.395 190.771 330.551 190.147 330.863 189.592C331.175 189.037 331.599 188.595 332.137 188.266C332.683 187.937 333.289 187.772 333.957 187.772C334.494 187.772 334.971 187.88 335.387 188.097C335.811 188.305 336.145 188.6 336.388 188.981L336.128 189.332V185.159H337.831V195H336.219V193.635L336.401 193.973C336.158 194.354 335.82 194.649 335.387 194.857C334.953 195.056 334.481 195.156 333.97 195.156ZM334.152 193.596C334.542 193.596 334.884 193.505 335.179 193.323C335.473 193.141 335.703 192.89 335.868 192.569C336.041 192.248 336.128 191.88 336.128 191.464C336.128 191.057 336.041 190.693 335.868 190.372C335.703 190.043 335.473 189.787 335.179 189.605C334.884 189.423 334.542 189.332 334.152 189.332C333.77 189.332 333.428 189.427 333.125 189.618C332.821 189.8 332.583 190.051 332.41 190.372C332.245 190.684 332.163 191.048 332.163 191.464C332.163 191.88 332.245 192.248 332.41 192.569C332.583 192.89 332.821 193.141 333.125 193.323C333.428 193.505 333.77 193.596 334.152 193.596ZM341.937 195.156C341.391 195.156 340.914 195.035 340.507 194.792C340.108 194.549 339.801 194.211 339.584 193.778C339.376 193.345 339.272 192.838 339.272 192.257V187.928H340.975V192.114C340.975 192.409 341.031 192.669 341.144 192.894C341.265 193.111 341.434 193.284 341.651 193.414C341.876 193.535 342.128 193.596 342.405 193.596C342.682 193.596 342.929 193.535 343.146 193.414C343.363 193.284 343.532 193.106 343.653 192.881C343.774 192.656 343.835 192.387 343.835 192.075V187.928H345.538V195H343.926V193.609L344.069 193.856C343.904 194.289 343.631 194.614 343.25 194.831C342.877 195.048 342.44 195.156 341.937 195.156ZM350.527 195.156C349.825 195.156 349.192 194.996 348.629 194.675C348.074 194.346 347.637 193.904 347.316 193.349C346.995 192.786 346.835 192.153 346.835 191.451C346.835 190.749 346.995 190.121 347.316 189.566C347.637 189.011 348.074 188.574 348.629 188.253C349.192 187.932 349.825 187.772 350.527 187.772C351.03 187.772 351.498 187.863 351.931 188.045C352.364 188.218 352.737 188.461 353.049 188.773C353.37 189.076 353.599 189.44 353.738 189.865L352.243 190.515C352.113 190.16 351.892 189.874 351.58 189.657C351.277 189.44 350.926 189.332 350.527 189.332C350.154 189.332 349.821 189.423 349.526 189.605C349.24 189.787 349.015 190.038 348.85 190.359C348.685 190.68 348.603 191.048 348.603 191.464C348.603 191.88 348.685 192.248 348.85 192.569C349.015 192.89 349.24 193.141 349.526 193.323C349.821 193.505 350.154 193.596 350.527 193.596C350.934 193.596 351.29 193.488 351.593 193.271C351.896 193.054 352.113 192.764 352.243 192.4L353.738 193.076C353.599 193.475 353.374 193.834 353.062 194.155C352.75 194.467 352.377 194.714 351.944 194.896C351.511 195.069 351.038 195.156 350.527 195.156ZM358.254 195.078C357.457 195.078 356.837 194.861 356.395 194.428C355.962 193.986 355.745 193.366 355.745 192.569V189.449H354.523V187.928H354.653C355 187.928 355.269 187.837 355.459 187.655C355.65 187.473 355.745 187.209 355.745 186.862V186.316H357.448V187.928H359.073V189.449H357.448V192.478C357.448 192.712 357.487 192.911 357.565 193.076C357.652 193.241 357.782 193.366 357.955 193.453C358.137 193.54 358.367 193.583 358.644 193.583C358.705 193.583 358.774 193.579 358.852 193.57C358.939 193.561 359.021 193.553 359.099 193.544V195C358.978 195.017 358.839 195.035 358.683 195.052C358.527 195.069 358.384 195.078 358.254 195.078ZM360.4 195V187.928H362.103V195H360.4ZM360.4 187.135V185.315H362.103V187.135H360.4ZM367.134 195.156C366.44 195.156 365.808 194.996 365.236 194.675C364.672 194.354 364.222 193.917 363.884 193.362C363.554 192.807 363.39 192.175 363.39 191.464C363.39 190.753 363.554 190.121 363.884 189.566C364.222 189.011 364.672 188.574 365.236 188.253C365.799 187.932 366.432 187.772 367.134 187.772C367.827 187.772 368.455 187.932 369.019 188.253C369.582 188.574 370.028 189.011 370.358 189.566C370.696 190.112 370.865 190.745 370.865 191.464C370.865 192.175 370.696 192.807 370.358 193.362C370.02 193.917 369.569 194.354 369.006 194.675C368.442 194.996 367.818 195.156 367.134 195.156ZM367.134 193.596C367.515 193.596 367.849 193.505 368.135 193.323C368.429 193.141 368.659 192.89 368.824 192.569C368.997 192.24 369.084 191.871 369.084 191.464C369.084 191.048 368.997 190.684 368.824 190.372C368.659 190.051 368.429 189.8 368.135 189.618C367.849 189.427 367.515 189.332 367.134 189.332C366.744 189.332 366.401 189.427 366.107 189.618C365.812 189.8 365.578 190.051 365.405 190.372C365.24 190.684 365.158 191.048 365.158 191.464C365.158 191.871 365.24 192.24 365.405 192.569C365.578 192.89 365.812 193.141 366.107 193.323C366.401 193.505 366.744 193.596 367.134 193.596ZM372.156 195V187.928H373.755V189.319L373.625 189.072C373.79 188.647 374.059 188.327 374.431 188.11C374.813 187.885 375.255 187.772 375.757 187.772C376.277 187.772 376.737 187.885 377.135 188.11C377.543 188.335 377.859 188.652 378.084 189.059C378.31 189.458 378.422 189.921 378.422 190.45V195H376.719V190.853C376.719 190.541 376.659 190.272 376.537 190.047C376.416 189.822 376.247 189.648 376.03 189.527C375.822 189.397 375.575 189.332 375.289 189.332C375.012 189.332 374.765 189.397 374.548 189.527C374.332 189.648 374.163 189.822 374.041 190.047C373.92 190.272 373.859 190.541 373.859 190.853V195H372.156ZM382.553 195.156C381.799 195.156 381.141 194.978 380.577 194.623C380.023 194.259 379.641 193.769 379.433 193.154L380.707 192.543C380.889 192.942 381.141 193.254 381.461 193.479C381.791 193.704 382.155 193.817 382.553 193.817C382.865 193.817 383.112 193.748 383.294 193.609C383.476 193.47 383.567 193.288 383.567 193.063C383.567 192.924 383.528 192.812 383.45 192.725C383.381 192.63 383.281 192.552 383.151 192.491C383.03 192.422 382.896 192.365 382.748 192.322L381.591 191.997C380.993 191.824 380.538 191.559 380.226 191.204C379.923 190.849 379.771 190.428 379.771 189.943C379.771 189.51 379.88 189.133 380.096 188.812C380.322 188.483 380.629 188.227 381.019 188.045C381.418 187.863 381.873 187.772 382.384 187.772C383.052 187.772 383.641 187.932 384.152 188.253C384.664 188.574 385.028 189.024 385.244 189.605L383.944 190.216C383.823 189.895 383.619 189.64 383.333 189.449C383.047 189.258 382.727 189.163 382.371 189.163C382.085 189.163 381.86 189.228 381.695 189.358C381.531 189.488 381.448 189.657 381.448 189.865C381.448 189.995 381.483 190.108 381.552 190.203C381.622 190.298 381.717 190.376 381.838 190.437C381.968 190.498 382.116 190.554 382.28 190.606L383.411 190.944C383.992 191.117 384.438 191.377 384.75 191.724C385.071 192.071 385.231 192.495 385.231 192.998C385.231 193.423 385.119 193.8 384.893 194.129C384.668 194.45 384.356 194.701 383.957 194.883C383.559 195.065 383.091 195.156 382.553 195.156ZM388.994 195V185.315H392.608C393.266 185.315 393.847 185.436 394.35 185.679C394.861 185.913 395.26 186.26 395.546 186.719C395.832 187.17 395.975 187.72 395.975 188.37C395.975 189.011 395.827 189.562 395.533 190.021C395.247 190.472 394.852 190.818 394.35 191.061C393.847 191.304 393.266 191.425 392.608 191.425H390.762V195H388.994ZM390.762 189.865H392.634C392.954 189.865 393.232 189.804 393.466 189.683C393.7 189.553 393.882 189.375 394.012 189.15C394.142 188.925 394.207 188.665 394.207 188.37C394.207 188.067 394.142 187.807 394.012 187.59C393.882 187.365 393.7 187.191 393.466 187.07C393.232 186.94 392.954 186.875 392.634 186.875H390.762V189.865ZM400.504 195.078C399.707 195.078 399.087 194.861 398.645 194.428C398.212 193.986 397.995 193.366 397.995 192.569V189.449H396.773V187.928H396.903C397.25 187.928 397.519 187.837 397.709 187.655C397.9 187.473 397.995 187.209 397.995 186.862V186.316H399.698V187.928H401.323V189.449H399.698V192.478C399.698 192.712 399.737 192.911 399.815 193.076C399.902 193.241 400.032 193.366 400.205 193.453C400.387 193.54 400.617 193.583 400.894 193.583C400.955 193.583 401.024 193.579 401.102 193.57C401.189 193.561 401.271 193.553 401.349 193.544V195C401.228 195.017 401.089 195.035 400.933 195.052C400.777 195.069 400.634 195.078 400.504 195.078ZM405.941 195.156C405.213 195.156 404.576 194.991 404.03 194.662C403.484 194.333 403.059 193.886 402.756 193.323C402.453 192.76 402.301 192.136 402.301 191.451C402.301 190.74 402.453 190.112 402.756 189.566C403.068 189.011 403.488 188.574 404.017 188.253C404.554 187.932 405.152 187.772 405.811 187.772C406.366 187.772 406.851 187.863 407.267 188.045C407.692 188.227 408.051 188.478 408.346 188.799C408.641 189.12 408.866 189.488 409.022 189.904C409.178 190.311 409.256 190.753 409.256 191.23C409.256 191.351 409.247 191.477 409.23 191.607C409.221 191.737 409.2 191.85 409.165 191.945H403.705V190.645H408.203L407.397 191.256C407.475 190.857 407.453 190.502 407.332 190.19C407.219 189.878 407.029 189.631 406.76 189.449C406.5 189.267 406.184 189.176 405.811 189.176C405.456 189.176 405.139 189.267 404.862 189.449C404.585 189.622 404.372 189.882 404.225 190.229C404.086 190.567 404.034 190.979 404.069 191.464C404.034 191.897 404.091 192.283 404.238 192.621C404.394 192.95 404.619 193.206 404.914 193.388C405.217 193.57 405.564 193.661 405.954 193.661C406.344 193.661 406.673 193.579 406.942 193.414C407.219 193.249 407.436 193.028 407.592 192.751L408.97 193.427C408.831 193.765 408.615 194.064 408.32 194.324C408.025 194.584 407.674 194.788 407.267 194.935C406.868 195.082 406.426 195.156 405.941 195.156ZM413 195V185.315H414.768V193.44H418.915V195H413ZM422.746 195.078C421.949 195.078 421.329 194.861 420.887 194.428C420.454 193.986 420.237 193.366 420.237 192.569V189.449H419.015V187.928H419.145C419.492 187.928 419.761 187.837 419.951 187.655C420.142 187.473 420.237 187.209 420.237 186.862V186.316H421.94V187.928H423.565V189.449H421.94V192.478C421.94 192.712 421.979 192.911 422.057 193.076C422.144 193.241 422.274 193.366 422.447 193.453C422.629 193.54 422.859 193.583 423.136 193.583C423.197 193.583 423.266 193.579 423.344 193.57C423.431 193.561 423.513 193.553 423.591 193.544V195C423.47 195.017 423.331 195.035 423.175 195.052C423.019 195.069 422.876 195.078 422.746 195.078ZM428.118 195.156C427.433 195.156 426.822 194.996 426.285 194.675C425.748 194.346 425.323 193.899 425.011 193.336C424.699 192.773 424.543 192.149 424.543 191.464C424.543 190.771 424.699 190.147 425.011 189.592C425.323 189.037 425.748 188.595 426.285 188.266C426.831 187.937 427.438 187.772 428.105 187.772C428.642 187.772 429.119 187.88 429.535 188.097C429.96 188.305 430.293 188.6 430.536 188.981L430.276 189.332V185.159H431.979V195H430.367V193.635L430.549 193.973C430.306 194.354 429.968 194.649 429.535 194.857C429.102 195.056 428.629 195.156 428.118 195.156ZM428.3 193.596C428.69 193.596 429.032 193.505 429.327 193.323C429.622 193.141 429.851 192.89 430.016 192.569C430.189 192.248 430.276 191.88 430.276 191.464C430.276 191.057 430.189 190.693 430.016 190.372C429.851 190.043 429.622 189.787 429.327 189.605C429.032 189.423 428.69 189.332 428.3 189.332C427.919 189.332 427.576 189.427 427.273 189.618C426.97 189.8 426.731 190.051 426.558 190.372C426.393 190.684 426.311 191.048 426.311 191.464C426.311 191.88 426.393 192.248 426.558 192.569C426.731 192.89 426.97 193.141 427.273 193.323C427.576 193.505 427.919 193.596 428.3 193.596Z" fill="white"/>
<rect width="220" height="60" transform="translate(120 320)" fill="#031D45"/>
<path d="M182.27 355V345.315H184.038V350.359L183.557 350.19L187.678 345.315H189.901L186.04 349.891L186.144 348.643L190.018 355H187.938L185.338 350.736L184.038 352.283V355H182.27ZM190.95 355V347.928H192.653V355H190.95ZM190.95 347.135V345.315H192.653V347.135H190.95ZM194.226 355V347.928H195.825V349.319L195.695 349.072C195.859 348.647 196.128 348.327 196.501 348.11C196.882 347.885 197.324 347.772 197.827 347.772C198.347 347.772 198.806 347.885 199.205 348.11C199.612 348.335 199.928 348.652 200.154 349.059C200.379 349.458 200.492 349.921 200.492 350.45V355H198.789V350.853C198.789 350.541 198.728 350.272 198.607 350.047C198.485 349.822 198.316 349.648 198.1 349.527C197.892 349.397 197.645 349.332 197.359 349.332C197.081 349.332 196.834 349.397 196.618 349.527C196.401 349.648 196.232 349.822 196.111 350.047C195.989 350.272 195.929 350.541 195.929 350.853V355H194.226ZM204.385 355V345.315H207.544C208.567 345.315 209.455 345.523 210.209 345.939C210.972 346.346 211.561 346.914 211.977 347.642C212.393 348.361 212.601 349.198 212.601 350.151C212.601 351.096 212.393 351.936 211.977 352.673C211.561 353.401 210.972 353.973 210.209 354.389C209.455 354.796 208.567 355 207.544 355H204.385ZM206.153 353.44H207.583C208.242 353.44 208.81 353.306 209.286 353.037C209.772 352.76 210.149 352.378 210.417 351.893C210.686 351.399 210.82 350.818 210.82 350.151C210.82 349.475 210.686 348.894 210.417 348.409C210.149 347.924 209.772 347.547 209.286 347.278C208.81 347.009 208.242 346.875 207.583 346.875H206.153V353.44ZM216.634 355V352.478H214.112V351.009H216.634V348.5H218.103V351.009H220.612V352.478H218.103V355H216.634ZM222.59 355V345.315H226.672C227.314 345.315 227.86 345.428 228.31 345.653C228.77 345.87 229.121 346.182 229.363 346.589C229.615 346.988 229.74 347.473 229.74 348.045C229.74 348.487 229.619 348.903 229.376 349.293C229.142 349.674 228.765 349.991 228.245 350.242V349.423C228.722 349.605 229.099 349.83 229.376 350.099C229.654 350.368 229.849 350.667 229.961 350.996C230.074 351.325 230.13 351.672 230.13 352.036C230.13 352.963 229.823 353.691 229.207 354.22C228.601 354.74 227.756 355 226.672 355H222.59ZM224.358 353.44H226.854C227.314 353.44 227.678 353.314 227.946 353.063C228.224 352.803 228.362 352.461 228.362 352.036C228.362 351.611 228.224 351.269 227.946 351.009C227.678 350.749 227.314 350.619 226.854 350.619H224.358V353.44ZM224.358 349.072H226.763C227.127 349.072 227.418 348.968 227.634 348.76C227.851 348.543 227.959 348.266 227.959 347.928C227.959 347.59 227.851 347.321 227.634 347.122C227.418 346.923 227.127 346.823 226.763 346.823H224.358V349.072ZM233.889 355V345.315H237.503C238.162 345.315 238.742 345.436 239.245 345.679C239.756 345.913 240.155 346.26 240.441 346.719C240.727 347.17 240.87 347.72 240.87 348.37C240.87 349.011 240.723 349.562 240.428 350.021C240.142 350.472 239.748 350.818 239.245 351.061C238.742 351.304 238.162 351.425 237.503 351.425H235.657V355H233.889ZM235.657 349.865H237.529C237.85 349.865 238.127 349.804 238.361 349.683C238.595 349.553 238.777 349.375 238.907 349.15C239.037 348.925 239.102 348.665 239.102 348.37C239.102 348.067 239.037 347.807 238.907 347.59C238.777 347.365 238.595 347.191 238.361 347.07C238.127 346.94 237.85 346.875 237.529 346.875H235.657V349.865ZM245.4 355.078C244.602 355.078 243.983 354.861 243.541 354.428C243.107 353.986 242.891 353.366 242.891 352.569V349.449H241.669V347.928H241.799C242.145 347.928 242.414 347.837 242.605 347.655C242.795 347.473 242.891 347.209 242.891 346.862V346.316H244.594V347.928H246.219V349.449H244.594V352.478C244.594 352.712 244.633 352.911 244.711 353.076C244.797 353.241 244.927 353.366 245.101 353.453C245.283 353.54 245.512 353.583 245.79 353.583C245.85 353.583 245.92 353.579 245.998 353.57C246.084 353.561 246.167 353.553 246.245 353.544V355C246.123 355.017 245.985 355.035 245.829 355.052C245.673 355.069 245.53 355.078 245.4 355.078ZM250.836 355.156C250.108 355.156 249.471 354.991 248.925 354.662C248.379 354.333 247.955 353.886 247.651 353.323C247.348 352.76 247.196 352.136 247.196 351.451C247.196 350.74 247.348 350.112 247.651 349.566C247.963 349.011 248.384 348.574 248.912 348.253C249.45 347.932 250.048 347.772 250.706 347.772C251.261 347.772 251.746 347.863 252.162 348.045C252.587 348.227 252.947 348.478 253.241 348.799C253.536 349.12 253.761 349.488 253.917 349.904C254.073 350.311 254.151 350.753 254.151 351.23C254.151 351.351 254.143 351.477 254.125 351.607C254.117 351.737 254.095 351.85 254.06 351.945H248.6V350.645H253.098L252.292 351.256C252.37 350.857 252.349 350.502 252.227 350.19C252.115 349.878 251.924 349.631 251.655 349.449C251.395 349.267 251.079 349.176 250.706 349.176C250.351 349.176 250.035 349.267 249.757 349.449C249.48 349.622 249.268 349.882 249.12 350.229C248.982 350.567 248.93 350.979 248.964 351.464C248.93 351.897 248.986 352.283 249.133 352.621C249.289 352.95 249.515 353.206 249.809 353.388C250.113 353.57 250.459 353.661 250.849 353.661C251.239 353.661 251.569 353.579 251.837 353.414C252.115 353.249 252.331 353.028 252.487 352.751L253.865 353.427C253.727 353.765 253.51 354.064 253.215 354.324C252.921 354.584 252.57 354.788 252.162 354.935C251.764 355.082 251.322 355.156 250.836 355.156ZM257.896 355V345.315H259.664V353.44H263.811V355H257.896ZM267.642 355.078C266.845 355.078 266.225 354.861 265.783 354.428C265.35 353.986 265.133 353.366 265.133 352.569V349.449H263.911V347.928H264.041C264.388 347.928 264.656 347.837 264.847 347.655C265.038 347.473 265.133 347.209 265.133 346.862V346.316H266.836V347.928H268.461V349.449H266.836V352.478C266.836 352.712 266.875 352.911 266.953 353.076C267.04 353.241 267.17 353.366 267.343 353.453C267.525 353.54 267.755 353.583 268.032 353.583C268.093 353.583 268.162 353.579 268.24 353.57C268.327 353.561 268.409 353.553 268.487 353.544V355C268.366 355.017 268.227 355.035 268.071 355.052C267.915 355.069 267.772 355.078 267.642 355.078ZM273.014 355.156C272.329 355.156 271.718 354.996 271.181 354.675C270.643 354.346 270.219 353.899 269.907 353.336C269.595 352.773 269.439 352.149 269.439 351.464C269.439 350.771 269.595 350.147 269.907 349.592C270.219 349.037 270.643 348.595 271.181 348.266C271.727 347.937 272.333 347.772 273.001 347.772C273.538 347.772 274.015 347.88 274.431 348.097C274.855 348.305 275.189 348.6 275.432 348.981L275.172 349.332V345.159H276.875V355H275.263V353.635L275.445 353.973C275.202 354.354 274.864 354.649 274.431 354.857C273.997 355.056 273.525 355.156 273.014 355.156ZM273.196 353.596C273.586 353.596 273.928 353.505 274.223 353.323C274.517 353.141 274.747 352.89 274.912 352.569C275.085 352.248 275.172 351.88 275.172 351.464C275.172 351.057 275.085 350.693 274.912 350.372C274.747 350.043 274.517 349.787 274.223 349.605C273.928 349.423 273.586 349.332 273.196 349.332C272.814 349.332 272.472 349.427 272.169 349.618C271.865 349.8 271.627 350.051 271.454 350.372C271.289 350.684 271.207 351.048 271.207 351.464C271.207 351.88 271.289 352.248 271.454 352.569C271.627 352.89 271.865 353.141 272.169 353.323C272.472 353.505 272.814 353.596 273.196 353.596Z" fill="white"/>
<rect width="220" height="60" transform="translate(380 320)" fill="#031D45"/>
<path d="M422.936 355V345.315H424.704V350.359L424.223 350.19L428.344 345.315H430.567L426.706 349.891L426.81 348.643L430.684 355H428.604L426.004 350.736L424.704 352.283V355H422.936ZM431.616 355V347.928H433.319V355H431.616ZM431.616 347.135V345.315H433.319V347.135H431.616ZM434.892 355V347.928H436.491V349.319L436.361 349.072C436.525 348.647 436.794 348.327 437.167 348.11C437.548 347.885 437.99 347.772 438.493 347.772C439.013 347.772 439.472 347.885 439.871 348.11C440.278 348.335 440.594 348.652 440.82 349.059C441.045 349.458 441.158 349.921 441.158 350.45V355H439.455V350.853C439.455 350.541 439.394 350.272 439.273 350.047C439.151 349.822 438.982 349.648 438.766 349.527C438.558 349.397 438.311 349.332 438.025 349.332C437.747 349.332 437.5 349.397 437.284 349.527C437.067 349.648 436.898 349.822 436.777 350.047C436.655 350.272 436.595 350.541 436.595 350.853V355H434.892ZM445.051 355V345.315H446.741L450.368 350.242H449.562L453.111 345.315H454.801V355H453.02V347.33L453.709 347.499L450.03 352.4H449.822L446.234 347.499L446.819 347.33V355H445.051ZM456.512 355V347.928H458.215V355H456.512ZM456.512 347.135V345.315H458.215V347.135H456.512ZM463.076 355.156C462.391 355.156 461.78 354.996 461.243 354.675C460.706 354.346 460.281 353.899 459.969 353.336C459.657 352.773 459.501 352.149 459.501 351.464C459.501 350.771 459.657 350.147 459.969 349.592C460.281 349.037 460.706 348.595 461.243 348.266C461.789 347.937 462.396 347.772 463.063 347.772C463.6 347.772 464.077 347.88 464.493 348.097C464.918 348.305 465.251 348.6 465.494 348.981L465.234 349.332V345.159H466.937V355H465.325V353.635L465.507 353.973C465.264 354.354 464.926 354.649 464.493 354.857C464.06 355.056 463.587 355.156 463.076 355.156ZM463.258 353.596C463.648 353.596 463.99 353.505 464.285 353.323C464.58 353.141 464.809 352.89 464.974 352.569C465.147 352.248 465.234 351.88 465.234 351.464C465.234 351.057 465.147 350.693 464.974 350.372C464.809 350.043 464.58 349.787 464.285 349.605C463.99 349.423 463.648 349.332 463.258 349.332C462.877 349.332 462.534 349.427 462.231 349.618C461.928 349.8 461.689 350.051 461.516 350.372C461.351 350.684 461.269 351.048 461.269 351.464C461.269 351.88 461.351 352.248 461.516 352.569C461.689 352.89 461.928 353.141 462.231 353.323C462.534 353.505 462.877 353.596 463.258 353.596ZM471.811 355.156C471.126 355.156 470.515 354.996 469.978 354.675C469.44 354.346 469.016 353.899 468.704 353.336C468.392 352.773 468.236 352.149 468.236 351.464C468.236 350.771 468.392 350.147 468.704 349.592C469.016 349.037 469.44 348.595 469.978 348.266C470.524 347.937 471.13 347.772 471.798 347.772C472.335 347.772 472.812 347.88 473.228 348.097C473.652 348.305 473.986 348.6 474.229 348.981L473.969 349.332V345.159H475.672V355H474.06V353.635L474.242 353.973C473.999 354.354 473.661 354.649 473.228 354.857C472.794 355.056 472.322 355.156 471.811 355.156ZM471.993 353.596C472.383 353.596 472.725 353.505 473.02 353.323C473.314 353.141 473.544 352.89 473.709 352.569C473.882 352.248 473.969 351.88 473.969 351.464C473.969 351.057 473.882 350.693 473.709 350.372C473.544 350.043 473.314 349.787 473.02 349.605C472.725 349.423 472.383 349.332 471.993 349.332C471.611 349.332 471.269 349.427 470.966 349.618C470.662 349.8 470.424 350.051 470.251 350.372C470.086 350.684 470.004 351.048 470.004 351.464C470.004 351.88 470.086 352.248 470.251 352.569C470.424 352.89 470.662 353.141 470.966 353.323C471.269 353.505 471.611 353.596 471.993 353.596ZM477.256 355V345.159H478.959V355H477.256ZM483.885 355.156C483.157 355.156 482.52 354.991 481.974 354.662C481.428 354.333 481.004 353.886 480.7 353.323C480.397 352.76 480.245 352.136 480.245 351.451C480.245 350.74 480.397 350.112 480.7 349.566C481.012 349.011 481.433 348.574 481.961 348.253C482.499 347.932 483.097 347.772 483.755 347.772C484.31 347.772 484.795 347.863 485.211 348.045C485.636 348.227 485.996 348.478 486.29 348.799C486.585 349.12 486.81 349.488 486.966 349.904C487.122 350.311 487.2 350.753 487.2 351.23C487.2 351.351 487.192 351.477 487.174 351.607C487.166 351.737 487.144 351.85 487.109 351.945H481.649V350.645H486.147L485.341 351.256C485.419 350.857 485.398 350.502 485.276 350.19C485.164 349.878 484.973 349.631 484.704 349.449C484.444 349.267 484.128 349.176 483.755 349.176C483.4 349.176 483.084 349.267 482.806 349.449C482.529 349.622 482.317 349.882 482.169 350.229C482.031 350.567 481.979 350.979 482.013 351.464C481.979 351.897 482.035 352.283 482.182 352.621C482.338 352.95 482.564 353.206 482.858 353.388C483.162 353.57 483.508 353.661 483.898 353.661C484.288 353.661 484.618 353.579 484.886 353.414C485.164 353.249 485.38 353.028 485.536 352.751L486.914 353.427C486.776 353.765 486.559 354.064 486.264 354.324C485.97 354.584 485.619 354.788 485.211 354.935C484.813 355.082 484.371 355.156 483.885 355.156ZM490.945 355V345.315H497.38V346.875H492.713V349.358H497.12V350.918H492.713V353.44H497.38V355H490.945ZM500.678 355.156C500.184 355.156 499.755 355.074 499.391 354.909C499.027 354.744 498.746 354.51 498.546 354.207C498.347 353.895 498.247 353.535 498.247 353.128C498.247 352.738 498.334 352.391 498.507 352.088C498.681 351.776 498.949 351.516 499.313 351.308C499.677 351.1 500.137 350.953 500.691 350.866L503.005 350.489V351.789L501.016 352.127C500.678 352.188 500.427 352.296 500.262 352.452C500.098 352.608 500.015 352.812 500.015 353.063C500.015 353.306 500.106 353.501 500.288 353.648C500.479 353.787 500.713 353.856 500.99 353.856C501.346 353.856 501.658 353.782 501.926 353.635C502.204 353.479 502.416 353.267 502.563 352.998C502.719 352.729 502.797 352.435 502.797 352.114V350.294C502.797 349.991 502.676 349.739 502.433 349.54C502.199 349.332 501.887 349.228 501.497 349.228C501.133 349.228 500.808 349.328 500.522 349.527C500.245 349.718 500.041 349.973 499.911 350.294L498.52 349.618C498.659 349.245 498.876 348.925 499.17 348.656C499.474 348.379 499.829 348.162 500.236 348.006C500.644 347.85 501.086 347.772 501.562 347.772C502.143 347.772 502.654 347.88 503.096 348.097C503.538 348.305 503.881 348.6 504.123 348.981C504.375 349.354 504.5 349.791 504.5 350.294V355H502.888V353.791L503.252 353.765C503.07 354.068 502.854 354.324 502.602 354.532C502.351 354.731 502.065 354.887 501.744 355C501.424 355.104 501.068 355.156 500.678 355.156ZM508.765 355.156C508.011 355.156 507.353 354.978 506.789 354.623C506.235 354.259 505.853 353.769 505.645 353.154L506.919 352.543C507.101 352.942 507.353 353.254 507.673 353.479C508.003 353.704 508.367 353.817 508.765 353.817C509.077 353.817 509.324 353.748 509.506 353.609C509.688 353.47 509.779 353.288 509.779 353.063C509.779 352.924 509.74 352.812 509.662 352.725C509.593 352.63 509.493 352.552 509.363 352.491C509.242 352.422 509.108 352.365 508.96 352.322L507.803 351.997C507.205 351.824 506.75 351.559 506.438 351.204C506.135 350.849 505.983 350.428 505.983 349.943C505.983 349.51 506.092 349.133 506.308 348.812C506.534 348.483 506.841 348.227 507.231 348.045C507.63 347.863 508.085 347.772 508.596 347.772C509.264 347.772 509.853 347.932 510.364 348.253C510.876 348.574 511.24 349.024 511.456 349.605L510.156 350.216C510.035 349.895 509.831 349.64 509.545 349.449C509.259 349.258 508.939 349.163 508.583 349.163C508.297 349.163 508.072 349.228 507.907 349.358C507.743 349.488 507.66 349.657 507.66 349.865C507.66 349.995 507.695 350.108 507.764 350.203C507.834 350.298 507.929 350.376 508.05 350.437C508.18 350.498 508.328 350.554 508.492 350.606L509.623 350.944C510.204 351.117 510.65 351.377 510.962 351.724C511.283 352.071 511.443 352.495 511.443 352.998C511.443 353.423 511.331 353.8 511.105 354.129C510.88 354.45 510.568 354.701 510.169 354.883C509.771 355.065 509.303 355.156 508.765 355.156ZM515.976 355.078C515.179 355.078 514.559 354.861 514.117 354.428C513.684 353.986 513.467 353.366 513.467 352.569V349.449H512.245V347.928H512.375C512.722 347.928 512.99 347.837 513.181 347.655C513.372 347.473 513.467 347.209 513.467 346.862V346.316H515.17V347.928H516.795V349.449H515.17V352.478C515.17 352.712 515.209 352.911 515.287 353.076C515.374 353.241 515.504 353.366 515.677 353.453C515.859 353.54 516.089 353.583 516.366 353.583C516.427 353.583 516.496 353.579 516.574 353.57C516.661 353.561 516.743 353.553 516.821 353.544V355C516.7 355.017 516.561 355.035 516.405 355.052C516.249 355.069 516.106 355.078 515.976 355.078ZM522.383 355L519.783 345.315H521.681L523.722 353.57H523.228L525.36 345.315H527.193L529.312 353.57H528.818L530.859 345.315H532.757L530.157 355H528.129L525.984 346.966H526.556L524.411 355H522.383ZM534.493 355V353.18H536.209V355H534.493ZM538.743 355V345.315H540.511V353.44H544.658V355H538.743ZM546.464 355V353.18H548.18V355H546.464ZM550.714 355V345.315H552.482V353.44H556.629V355H550.714Z" fill="white"/>
<rect x="359.25" y="100" width="1.5" height="60" fill="#031D45" fill-opacity="0.22"/>
<path d="M367.76 134V127.55H366.33V126.55H368.93V134H367.76ZM373.506 134.12C372.913 134.12 372.393 133.96 371.946 133.64C371.499 133.313 371.149 132.863 370.896 132.29C370.649 131.71 370.526 131.037 370.526 130.27C370.526 129.497 370.649 128.823 370.896 128.25C371.149 127.677 371.496 127.23 371.936 126.91C372.383 126.59 372.903 126.43 373.496 126.43C374.089 126.43 374.606 126.59 375.046 126.91C375.493 127.23 375.839 127.68 376.086 128.26C376.339 128.833 376.466 129.503 376.466 130.27C376.466 131.037 376.343 131.71 376.096 132.29C375.849 132.863 375.503 133.313 375.056 133.64C374.616 133.96 374.099 134.12 373.506 134.12ZM373.506 133.04C373.873 133.04 374.189 132.927 374.456 132.7C374.723 132.473 374.929 132.153 375.076 131.74C375.223 131.327 375.296 130.837 375.296 130.27C375.296 129.703 375.223 129.213 375.076 128.8C374.929 128.387 374.723 128.067 374.456 127.84C374.189 127.613 373.869 127.5 373.496 127.5C373.129 127.5 372.813 127.613 372.546 127.84C372.279 128.067 372.073 128.387 371.926 128.8C371.779 129.213 371.706 129.703 371.706 130.27C371.706 130.83 371.779 131.32 371.926 131.74C372.073 132.153 372.279 132.473 372.546 132.7C372.819 132.927 373.139 133.04 373.506 133.04ZM380.664 134.12C380.071 134.12 379.551 133.96 379.104 133.64C378.658 133.313 378.308 132.863 378.054 132.29C377.808 131.71 377.684 131.037 377.684 130.27C377.684 129.497 377.808 128.823 378.054 128.25C378.308 127.677 378.654 127.23 379.094 126.91C379.541 126.59 380.061 126.43 380.654 126.43C381.248 126.43 381.764 126.59 382.204 126.91C382.651 127.23 382.998 127.68 383.244 128.26C383.498 128.833 383.624 129.503 383.624 130.27C383.624 131.037 383.501 131.71 383.254 132.29C383.008 132.863 382.661 133.313 382.214 133.64C381.774 133.96 381.258 134.12 380.664 134.12ZM380.664 133.04C381.031 133.04 381.348 132.927 381.614 132.7C381.881 132.473 382.088 132.153 382.234 131.74C382.381 131.327 382.454 130.837 382.454 130.27C382.454 129.703 382.381 129.213 382.234 128.8C382.088 128.387 381.881 128.067 381.614 127.84C381.348 127.613 381.028 127.5 380.654 127.5C380.288 127.5 379.971 127.613 379.704 127.84C379.438 128.067 379.231 128.387 379.084 128.8C378.938 129.213 378.864 129.703 378.864 130.27C378.864 130.83 378.938 131.32 379.084 131.74C379.231 132.153 379.438 132.473 379.704 132.7C379.978 132.927 380.298 133.04 380.664 133.04ZM385.712 134L391.772 126.55H393.032L386.972 134H385.712ZM386.852 130.33C386.486 130.33 386.156 130.243 385.862 130.07C385.569 129.89 385.332 129.653 385.152 129.36C384.979 129.067 384.892 128.74 384.892 128.38C384.892 128.02 384.979 127.693 385.152 127.4C385.332 127.1 385.569 126.863 385.862 126.69C386.156 126.517 386.486 126.43 386.852 126.43C387.219 126.43 387.549 126.517 387.842 126.69C388.136 126.863 388.369 127.1 388.542 127.4C388.716 127.693 388.802 128.02 388.802 128.38C388.802 128.74 388.716 129.067 388.542 129.36C388.369 129.653 388.136 129.89 387.842 130.07C387.549 130.243 387.219 130.33 386.852 130.33ZM386.852 129.42C387.059 129.42 387.236 129.37 387.382 129.27C387.536 129.17 387.652 129.04 387.732 128.88C387.812 128.72 387.852 128.553 387.852 128.38C387.852 128.2 387.812 128.033 387.732 127.88C387.652 127.72 387.536 127.59 387.382 127.49C387.236 127.39 387.059 127.34 386.852 127.34C386.652 127.34 386.476 127.39 386.322 127.49C386.169 127.59 386.049 127.72 385.962 127.88C385.882 128.033 385.842 128.2 385.842 128.38C385.842 128.553 385.882 128.72 385.962 128.88C386.049 129.04 386.169 129.17 386.322 129.27C386.476 129.37 386.652 129.42 386.852 129.42ZM391.842 134.12C391.476 134.12 391.142 134.033 390.842 133.86C390.549 133.68 390.316 133.443 390.142 133.15C389.969 132.857 389.882 132.53 389.882 132.17C389.882 131.81 389.969 131.483 390.142 131.19C390.316 130.89 390.549 130.653 390.842 130.48C391.142 130.307 391.476 130.22 391.842 130.22C392.209 130.22 392.539 130.307 392.832 130.48C393.126 130.653 393.359 130.89 393.532 131.19C393.706 131.483 393.792 131.81 393.792 132.17C393.792 132.53 393.706 132.857 393.532 133.15C393.359 133.443 393.126 133.68 392.832 133.86C392.539 134.033 392.209 134.12 391.842 134.12ZM391.842 133.21C392.049 133.21 392.226 133.16 392.372 133.06C392.519 132.96 392.632 132.83 392.712 132.67C392.799 132.51 392.842 132.343 392.842 132.17C392.842 131.99 392.799 131.823 392.712 131.67C392.632 131.51 392.519 131.38 392.372 131.28C392.226 131.18 392.049 131.13 391.842 131.13C391.642 131.13 391.466 131.18 391.312 131.28C391.159 131.38 391.039 131.51 390.952 131.67C390.872 131.823 390.832 131.99 390.832 132.17C390.832 132.343 390.872 132.51 390.952 132.67C391.039 132.83 391.159 132.96 391.312 133.06C391.466 133.16 391.642 133.21 391.842 133.21Z" fill="#00C1E6"/>
<rect x="359.25" y="220" width="1.5" height="40" fill="#031D45" fill-opacity="0.22"/>
<rect x="230" y="260" width="260" height="1.5" fill="#031D45" fill-opacity="0.22"/>
<rect x="229.25" y="260" width="1.5" height="60" fill="#031D45" fill-opacity="0.22"/>
<rect x="489.25" y="260" width="1.5" height="60" fill="#031D45" fill-opacity="0.22"/>
<path d="M202.75 294L205.93 287.55H202.35V286.55H207.16V287.55L204.03 294H202.75ZM210.332 294.12C209.938 294.12 209.568 294.05 209.222 293.91C208.875 293.763 208.575 293.56 208.322 293.3C208.068 293.04 207.888 292.727 207.782 292.36L208.772 291.98C208.898 292.333 209.105 292.603 209.392 292.79C209.678 292.977 209.992 293.07 210.332 293.07C210.612 293.07 210.858 293.007 211.072 292.88C211.285 292.753 211.452 292.58 211.572 292.36C211.698 292.14 211.762 291.89 211.762 291.61C211.762 291.323 211.698 291.073 211.572 290.86C211.452 290.64 211.285 290.47 211.072 290.35C210.858 290.223 210.612 290.16 210.332 290.16C210.052 290.16 209.795 290.223 209.562 290.35C209.328 290.477 209.158 290.647 209.052 290.86L208.102 290.65L208.682 286.55H212.652V287.55H209.142L209.592 287.06L209.162 290.2L208.792 289.95C208.992 289.67 209.235 289.467 209.522 289.34C209.808 289.213 210.135 289.15 210.502 289.15C210.988 289.15 211.412 289.26 211.772 289.48C212.138 289.693 212.422 289.987 212.622 290.36C212.828 290.727 212.932 291.143 212.932 291.61C212.932 292.083 212.818 292.51 212.592 292.89C212.365 293.27 212.055 293.57 211.662 293.79C211.275 294.01 210.832 294.12 210.332 294.12ZM214.974 294L221.034 286.55H222.294L216.234 294H214.974ZM216.114 290.33C215.747 290.33 215.417 290.243 215.124 290.07C214.831 289.89 214.594 289.653 214.414 289.36C214.241 289.067 214.154 288.74 214.154 288.38C214.154 288.02 214.241 287.693 214.414 287.4C214.594 287.1 214.831 286.863 215.124 286.69C215.417 286.517 215.747 286.43 216.114 286.43C216.481 286.43 216.811 286.517 217.104 286.69C217.397 286.863 217.631 287.1 217.804 287.4C217.977 287.693 218.064 288.02 218.064 288.38C218.064 288.74 217.977 289.067 217.804 289.36C217.631 289.653 217.397 289.89 217.104 290.07C216.811 290.243 216.481 290.33 216.114 290.33ZM216.114 289.42C216.321 289.42 216.497 289.37 216.644 289.27C216.797 289.17 216.914 289.04 216.994 288.88C217.074 288.72 217.114 288.553 217.114 288.38C217.114 288.2 217.074 288.033 216.994 287.88C216.914 287.72 216.797 287.59 216.644 287.49C216.497 287.39 216.321 287.34 216.114 287.34C215.914 287.34 215.737 287.39 215.584 287.49C215.431 287.59 215.311 287.72 215.224 287.88C215.144 288.033 215.104 288.2 215.104 288.38C215.104 288.553 215.144 288.72 215.224 288.88C215.311 289.04 215.431 289.17 215.584 289.27C215.737 289.37 215.914 289.42 216.114 289.42ZM221.104 294.12C220.737 294.12 220.404 294.033 220.104 293.86C219.811 293.68 219.577 293.443 219.404 293.15C219.231 292.857 219.144 292.53 219.144 292.17C219.144 291.81 219.231 291.483 219.404 291.19C219.577 290.89 219.811 290.653 220.104 290.48C220.404 290.307 220.737 290.22 221.104 290.22C221.471 290.22 221.801 290.307 222.094 290.48C222.387 290.653 222.621 290.89 222.794 291.19C222.967 291.483 223.054 291.81 223.054 292.17C223.054 292.53 222.967 292.857 222.794 293.15C222.621 293.443 222.387 293.68 222.094 293.86C221.801 294.033 221.471 294.12 221.104 294.12ZM221.104 293.21C221.311 293.21 221.487 293.16 221.634 293.06C221.781 292.96 221.894 292.83 221.974 292.67C222.061 292.51 222.104 292.343 222.104 292.17C222.104 291.99 222.061 291.823 221.974 291.67C221.894 291.51 221.781 291.38 221.634 291.28C221.487 291.18 221.311 291.13 221.104 291.13C220.904 291.13 220.727 291.18 220.574 291.28C220.421 291.38 220.301 291.51 220.214 291.67C220.134 291.823 220.094 291.99 220.094 292.17C220.094 292.343 220.134 292.51 220.214 292.67C220.301 292.83 220.421 292.96 220.574 293.06C220.727 293.16 220.904 293.21 221.104 293.21Z" fill="#00C1E6"/>
<path d="M497.76 294V287.55H496.33V286.55H498.93V294H497.76ZM503.506 294.12C502.913 294.12 502.393 293.96 501.946 293.64C501.499 293.313 501.149 292.863 500.896 292.29C500.649 291.71 500.526 291.037 500.526 290.27C500.526 289.497 500.649 288.823 500.896 288.25C501.149 287.677 501.496 287.23 501.936 286.91C502.383 286.59 502.903 286.43 503.496 286.43C504.089 286.43 504.606 286.59 505.046 286.91C505.493 287.23 505.839 287.68 506.086 288.26C506.339 288.833 506.466 289.503 506.466 290.27C506.466 291.037 506.343 291.71 506.096 292.29C505.849 292.863 505.503 293.313 505.056 293.64C504.616 293.96 504.099 294.12 503.506 294.12ZM503.506 293.04C503.873 293.04 504.189 292.927 504.456 292.7C504.723 292.473 504.929 292.153 505.076 291.74C505.223 291.327 505.296 290.837 505.296 290.27C505.296 289.703 505.223 289.213 505.076 288.8C504.929 288.387 504.723 288.067 504.456 287.84C504.189 287.613 503.869 287.5 503.496 287.5C503.129 287.5 502.813 287.613 502.546 287.84C502.279 288.067 502.073 288.387 501.926 288.8C501.779 289.213 501.706 289.703 501.706 290.27C501.706 290.83 501.779 291.32 501.926 291.74C502.073 292.153 502.279 292.473 502.546 292.7C502.819 292.927 503.139 293.04 503.506 293.04ZM510.664 294.12C510.071 294.12 509.551 293.96 509.104 293.64C508.658 293.313 508.308 292.863 508.054 292.29C507.808 291.71 507.684 291.037 507.684 290.27C507.684 289.497 507.808 288.823 508.054 288.25C508.308 287.677 508.654 287.23 509.094 286.91C509.541 286.59 510.061 286.43 510.654 286.43C511.248 286.43 511.764 286.59 512.204 286.91C512.651 287.23 512.998 287.68 513.244 288.26C513.498 288.833 513.624 289.503 513.624 290.27C513.624 291.037 513.501 291.71 513.254 292.29C513.008 292.863 512.661 293.313 512.214 293.64C511.774 293.96 511.258 294.12 510.664 294.12ZM510.664 293.04C511.031 293.04 511.348 292.927 511.614 292.7C511.881 292.473 512.088 292.153 512.234 291.74C512.381 291.327 512.454 290.837 512.454 290.27C512.454 289.703 512.381 289.213 512.234 288.8C512.088 288.387 511.881 288.067 511.614 287.84C511.348 287.613 511.028 287.5 510.654 287.5C510.288 287.5 509.971 287.613 509.704 287.84C509.438 288.067 509.231 288.387 509.084 288.8C508.938 289.213 508.864 289.703 508.864 290.27C508.864 290.83 508.938 291.32 509.084 291.74C509.231 292.153 509.438 292.473 509.704 292.7C509.978 292.927 510.298 293.04 510.664 293.04ZM515.712 294L521.772 286.55H523.032L516.972 294H515.712ZM516.852 290.33C516.486 290.33 516.156 290.243 515.862 290.07C515.569 289.89 515.332 289.653 515.152 289.36C514.979 289.067 514.892 288.74 514.892 288.38C514.892 288.02 514.979 287.693 515.152 287.4C515.332 287.1 515.569 286.863 515.862 286.69C516.156 286.517 516.486 286.43 516.852 286.43C517.219 286.43 517.549 286.517 517.842 286.69C518.136 286.863 518.369 287.1 518.542 287.4C518.716 287.693 518.802 288.02 518.802 288.38C518.802 288.74 518.716 289.067 518.542 289.36C518.369 289.653 518.136 289.89 517.842 290.07C517.549 290.243 517.219 290.33 516.852 290.33ZM516.852 289.42C517.059 289.42 517.236 289.37 517.382 289.27C517.536 289.17 517.652 289.04 517.732 288.88C517.812 288.72 517.852 288.553 517.852 288.38C517.852 288.2 517.812 288.033 517.732 287.88C517.652 287.72 517.536 287.59 517.382 287.49C517.236 287.39 517.059 287.34 516.852 287.34C516.652 287.34 516.476 287.39 516.322 287.49C516.169 287.59 516.049 287.72 515.962 287.88C515.882 288.033 515.842 288.2 515.842 288.38C515.842 288.553 515.882 288.72 515.962 288.88C516.049 289.04 516.169 289.17 516.322 289.27C516.476 289.37 516.652 289.42 516.852 289.42ZM521.842 294.12C521.476 294.12 521.142 294.033 520.842 293.86C520.549 293.68 520.316 293.443 520.142 293.15C519.969 292.857 519.882 292.53 519.882 292.17C519.882 291.81 519.969 291.483 520.142 291.19C520.316 290.89 520.549 290.653 520.842 290.48C521.142 290.307 521.476 290.22 521.842 290.22C522.209 290.22 522.539 290.307 522.832 290.48C523.126 290.653 523.359 290.89 523.532 291.19C523.706 291.483 523.792 291.81 523.792 292.17C523.792 292.53 523.706 292.857 523.532 293.15C523.359 293.443 523.126 293.68 522.832 293.86C522.539 294.033 522.209 294.12 521.842 294.12ZM521.842 293.21C522.049 293.21 522.226 293.16 522.372 293.06C522.519 292.96 522.632 292.83 522.712 292.67C522.799 292.51 522.842 292.343 522.842 292.17C522.842 291.99 522.799 291.823 522.712 291.67C522.632 291.51 522.519 291.38 522.372 291.28C522.226 291.18 522.049 291.13 521.842 291.13C521.642 291.13 521.466 291.18 521.312 291.28C521.159 291.38 521.039 291.51 520.952 291.67C520.872 291.823 520.832 291.99 520.832 292.17C520.832 292.343 520.872 292.51 520.952 292.67C521.039 292.83 521.159 292.96 521.312 293.06C521.466 293.16 521.642 293.21 521.842 293.21Z" fill="#00C1E6"/>
</svg>
