<?xml version="1.0" encoding="UTF-8"?>
<svg id="Layer_1" xmlns="http://www.w3.org/2000/svg" version="1.1" viewBox="0 0 1190.6 631.9">
  <!-- Generator: Adobe Illustrator 29.8.1, SVG Export Plug-In . SVG Version: 2.1.1 Build 2)  -->
  <defs>
    <style>
      .st0 {
        fill: #032c42;
      }
    </style>
  </defs>
  <g>
    <path class="st0" d="M50.3,69.6h90.9v289.1l133.8-149.3h114.1l-156,173.6,174.7,188.6h-112.8l-153.8-166.9v166.9H50.3V69.6Z"/>
    <path class="st0" d="M480.5,60.3c15.9,0,29.6,5.8,41,17.3,11.4,11.5,17.1,25.5,17.1,41.9s-5.6,30-16.9,41.4c-11.3,11.4-24.8,17.1-40.5,17.1s-29.9-5.8-41.3-17.5c-11.4-11.7-17.1-25.8-17.1-42.4s5.6-29.6,16.9-40.9c11.3-11.3,24.9-17,40.8-17ZM435.1,209.4h90.9v362.2h-90.9V209.4Z"/>
    <path class="st0" d="M608.5,209.4h90.9v37.1c20.6-17.4,39.3-29.5,56-36.2,16.7-6.8,33.8-10.2,51.4-10.2,35.9,0,66.4,12.5,91.4,37.6,21,21.3,31.6,52.8,31.6,94.5v239.3h-89.9v-158.6c0-43.2-1.9-71.9-5.8-86.1-3.9-14.2-10.6-25-20.3-32.4-9.6-7.4-21.5-11.1-35.7-11.1s-34.2,6.2-47.3,18.5c-13.2,12.3-22.3,29.3-27.4,51-2.7,11.3-4,35.8-4,73.5v145.3h-90.9V209.4Z"/>
  </g>
  <path class="st0" d="M1132.7,467.6c-16.9-32.5-57-45.1-89.5-28.2-5.3,2.7-9.8,6.3-14,10.1-.9.7-1.8,1.4-2.7,2.3-52.5,47.5-49.3,119.8-49.3,119.8,31.5-30.5,65.8-14.6,65.8-14.6,0,0,0,0,0,0,18.6,9.8,41.5,10.6,61.5.2,32.5-16.9,45.1-57,28.2-89.5Z"/>
</svg>