<svg width="41" height="57" viewBox="0 0 41 57" fill="none" xmlns="http://www.w3.org/2000/svg">
<path d="M1 56H39.2609V12.1594L28.1014 1H1V56Z" fill="white" stroke="#031D45" stroke-width="2"/>
<path d="M10.5416 36V27.805H13.5996C14.157 27.805 14.6483 27.9077 15.0736 28.113C15.5063 28.311 15.8436 28.6043 16.0856 28.993C16.3276 29.3743 16.4486 29.84 16.4486 30.39C16.4486 30.9327 16.324 31.3983 16.0746 31.787C15.8326 32.1683 15.499 32.4617 15.0736 32.667C14.6483 32.8723 14.157 32.975 13.5996 32.975H12.0376V36H10.5416ZM12.0376 31.655H13.6216C13.893 31.655 14.1276 31.6037 14.3256 31.501C14.5236 31.391 14.6776 31.2407 14.7876 31.05C14.8976 30.8593 14.9526 30.6393 14.9526 30.39C14.9526 30.1333 14.8976 29.9133 14.7876 29.73C14.6776 29.5393 14.5236 29.3927 14.3256 29.29C14.1276 29.18 13.893 29.125 13.6216 29.125H12.0376V31.655ZM17.5645 36V27.805H20.2375C21.1028 27.805 21.8545 27.981 22.4925 28.333C23.1378 28.6777 23.6365 29.158 23.9885 29.774C24.3405 30.3827 24.5165 31.0903 24.5165 31.897C24.5165 32.6963 24.3405 33.4077 23.9885 34.031C23.6365 34.647 23.1378 35.131 22.4925 35.483C21.8545 35.8277 21.1028 36 20.2375 36H17.5645ZM19.0605 34.68H20.2705C20.8278 34.68 21.3081 34.5663 21.7115 34.339C22.1221 34.1043 22.4411 33.7817 22.6685 33.371C22.8958 32.953 23.0095 32.4617 23.0095 31.897C23.0095 31.325 22.8958 30.8337 22.6685 30.423C22.4411 30.0123 22.1221 29.6933 21.7115 29.466C21.3081 29.2387 20.8278 29.125 20.2705 29.125H19.0605V34.68ZM25.597 36V27.805H31.064V29.125H27.093V31.391H30.569V32.711H27.093V36H25.597Z" fill="#031D45"/>
<path d="M28.1016 12.9563H39.261L28.1016 1.79688V12.9563Z" fill="#00C1E6"/>
<path d="M28.1016 1.79688V12.9563H39.261" stroke="#031D45" stroke-width="2"/>
</svg>
